<?xml version="1.0" encoding="utf-8"?>
<!-- Generator: Adobe Illustrator 23.0.2, SVG Export Plug-In . SVG Version: 6.00 Build 0)  -->
<svg version="1.1" id="Calque_1" xmlns="http://www.w3.org/2000/svg" xmlns:xlink="http://www.w3.org/1999/xlink" x="0px" y="0px"
	 viewBox="0 0 283.5 283.5" style="enable-background:new 0 0 283.5 283.5;" xml:space="preserve">
<style type="text/css">
	.st0{clip-path:url(#SVGID_1_);}
	.st1{fill:#F8B393;}
	.st2{fill:#D4D2CF;}
	.st3{fill:#422718;}
	.st4{fill:#FFFFFF;}
	.st5{fill:#D70020;}
	.st6{fill:#C0BEBA;}
	.st7{fill:#003E50;}
	.st8{fill:#002B41;}
	.st9{fill:#270000;}
	.st10{fill:#3D0503;}
</style>
<g>
	<g>
		<defs>
			<path id="SVGID_3_" d="M251,142.3c0,57.8-46.9,104.7-104.7,104.7c-57.8,0-104.7-46.9-104.7-104.7c0-57.8,46.9-104.7,104.7-104.7
				C204.1,37.6,251,84.5,251,142.3z"/>
		</defs>
		<use xlink:href="#SVGID_3_"  style="overflow:visible;fill:#2ED197;"/>
		<clipPath id="SVGID_1_">
			<use xlink:href="#SVGID_3_"  style="overflow:visible;"/>
		</clipPath>
		<g class="st0">
			<g>
				<rect x="129.3" y="175.6" class="st1" width="33.8" height="17.8"/>
				<path class="st2" d="M138.8,189.2c5.4-0.2,10.7-1.8,14.9-4.2c3.4-2,6.1-4.3,8.2-7c0.4-0.5,0.8-1.1,1.3-1.8v-0.6h-33.8v13.3
					C132.5,189.2,135.7,189.3,138.8,189.2z"/>
			</g>
			<path class="st1" d="M146.2,75.9L146.2,75.9C146.2,75.9,146.2,75.9,146.2,75.9C146.2,75.9,146.2,75.9,146.2,75.9L146.2,75.9
				c-21.6,0.6-38.1,9.5-38,40.1c0,18.1,1.7,23.5,7,44.2c3.7,14.3,23.1,21.9,30.5,22.4c0.2,0,0.3,0,0.5,0c0.2,0,0.3,0,0.5,0
				c7.4-0.5,26.9-8,30.5-22.4c5.3-20.7,6.9-26,7-44.2C184.3,85.3,167.8,76.5,146.2,75.9z"/>
			<path class="st1" d="M180.1,128.5l-2.4,18.1c9.3,4.1,10.7-17.2,10.7-17.2C186.3,124.1,180.1,128.5,180.1,128.5z"/>
			<path class="st1" d="M102.9,129.4c0,0,1.4,21.2,10.7,17.2l-2.4-18.1C111.2,128.5,105,124.1,102.9,129.4z"/>
			<path class="st3" d="M178.2,104.4"/>
			<path class="st1" d="M163.4,193.4l45.6,11.9c0,0,15.6,2.4,19.5,16.4l6.8,25.4h-88.7h-0.8H57.2l6.8-25.4c4-14,19.5-16.4,19.5-16.4
				l45.5-11.9H163.4z"/>
			<path class="st4" d="M57.2,247l6.8-25.4c4-14,19.5-16.4,19.5-16.4l45.5-11.9h34.4l45.6,11.9c0,0,15.6,2.4,19.5,16.4l6.8,25.4"/>
			<g>
				<polygon class="st5" points="149.2,193.4 146.3,193.4 146.2,193.4 143.4,193.4 135,206.6 142.5,215 146.2,215 146.3,215 
					150.1,215 157.6,206.6 				"/>
				<path class="st6" d="M150.5,213.4c-4.9-5.2-7-12.9-5.7-20h-1.4l-8.4,13.2l7.5,8.4h7.6l0.9-1
					C150.8,213.8,150.6,213.6,150.5,213.4z"/>
			</g>
			<g>
				<polygon class="st6" points="163.2,184.5 146.2,193.4 157.4,210.3 177.7,198 				"/>
				<polygon class="st4" points="163.2,184.5 146.2,193.4 157.6,208 176.6,197 				"/>
			</g>
			<g>
				<polygon class="st6" points="129.3,184.5 146.2,193.4 135.1,210.3 114.7,198 				"/>
				<polygon class="st4" points="129.3,184.5 146.3,193.4 134.9,208 115.8,197 				"/>
			</g>
			<path class="st7" d="M116,196.8l-32.5,8.5c0,0-15.6,2.4-19.5,16.4L57.2,247h178.2l-6.8-25.4c-4-14-19.5-16.4-19.5-16.4l-34-9.8
				l-28.9,50.2L116,196.8z"/>
			<polygon class="st5" points="142.3,215 138.3,232.9 146.2,245.7 153.5,232.9 150,215 			"/>
			<polygon class="st8" points="116,196.8 100.6,200.8 109.3,204.2 104,210.3 135,247 147.1,247 			"/>
			<polygon class="st8" points="175,195.5 192,200.4 183.3,204.2 188.6,210.3 157.6,247 145.5,247 			"/>
			<path class="st9" d="M111.8,131.2l1.9,22.9c-10-27-4.2-62.2-4.2-62.2c3.2-13,6.1-15.2,11.3-17.9c5.2-2.7,3.2-2.2,11.3-4.2
				c8.1-2,0,0,11-2.7c11-2.7,20.1,3.4,20.1,3.4c7.5,4.4,12.2,6.6,12.2,6.6c16.5,12.8,8.9,48.1,8.9,48.1c0,9.3-6.1,31.2-6.1,31.2
				l2.3-29.7c0-41-20.9-37.3-20.9-37.3c-11,2.2-24.5,0-24.5,0s-25.1-7.7-23.2,41.2"/>
			<path class="st9" d="M113.1,147.1c0,0,2.4,18.3,20.7,26.3c0,0,4.4,2.7,11.8,2.2v6.8c0,0-8.7,0.2-21.1-8.6
				C124.4,173.9,111.8,166.3,113.1,147.1z"/>
			<path class="st9" d="M179.2,147.1c0,0-2.5,18.3-21.7,26.3c0,0-4.6,2.7-12.4,2.2v6.8c0,0,9.1,0.2,22.2-8.6
				C167.3,173.9,180.6,166.3,179.2,147.1z"/>
			<path class="st9" d="M111.8,148.2c0,0,8.2,18.4,18.7,16.6c0,0,9.2-5.9,15.1-2.6c0,0,8.9-3.3,15.9,2.6c0,0,10-1.8,17.3-15.3
				c0,0-2.1,26.1-32.5,28.3C146.2,177.8,117.3,177.8,111.8,148.2z"/>
			<path class="st1" d="M146.4,170.1c6.2-0.6,9.7-3.4,9.7-3.4c-6.4-2.9-9.3-1.6-9.9-1.2c-0.6-0.4-3.4-1.7-9.9,1.2
				c0,0,3.6,2.9,9.7,3.4v0c0,0,0.1,0,0.1,0C146.3,170.1,146.3,170.1,146.4,170.1L146.4,170.1z"/>
			<path class="st10" d="M113.9,90.8c0.1,0.5-0.2,0.8,0.3,1.1c0.5-2.1,0.7-4.2,1.6-6.2c1.3,0.9,4.3,5.9,4,0.8c1.4-0.1,2.9,1.4,4,1.1
				c1.7-0.5,1.8-3.1,2.9-4.5c2.6,1.9,3,3.4,5.5,1.9c0.9-0.5,0.6-2.3,1.8-2.6c1.5-0.4,2.2,1.3,3.3,1.4c0.9,0.1,4.3-0.4,5.1-0.8
				c1.3-0.8,2.3-5.1,4.5-1.8c3-2.2,3.5,2.7,6.2,2.9c0-0.4,0.1-0.9,0.1-1.4c1.7,1.2,2-0.5,3.2-0.4c2.3,0.2,2.7,1.4,4.5,2.1
				c1.5,0.6,5.8,1.9,7.6,1.5c0-0.2,0.1-0.4,0.1-0.7c2.3,2.1,4,5,6.6,6.7c0.2-0.2,0.2-0.5,0.3-0.7c1.5,2,2,4.5,4.4,5.7
				c0.2-4.8-6.5-10.6-8.8-13.7c0.2,0.3,0.3,0.8,0.5,1.1c-2.4-2.4-5.6-4.6-8.9-6.2c0.1,0.5,0.1,1.2,0.3,1.7c-1-2.3-8.3-4.3-10.6-5
				c0.1,0.5-0.2,1.2-0.1,1.8c-0.1-0.1-2-1.3-2.2-1.2c0.7-0.4-2.8,1.4-1.5,1.2c0,0-0.9,1-1.5,1c-0.6,0.1-2.6-1.5-3.3-1.7
				c0,0.4-0.1,0.9-0.1,1.4c-0.5-0.4-1.9-0.7-2.5-1.4c0,0.6-0.2,1.2-0.1,1.8c-0.9-1-2.4-2.2-3.9-2.5c0.2,0.9-0.1,1.6,0.4,2.4
				c-0.8-1.5-1.9-2.2-3-1c-1.5-1.4-4.8-3.8-5.1-0.4c-0.4,0-0.6-0.3-1.1-0.3c-1.4,1.8-3.2,0.5-4.8,0c0.2,1.9,0,4.5-2.3,3.7
				c-0.1,0.4-0.2,0.9-0.4,1.4c-0.2-0.1-0.8-0.6-1-0.6c-1.3,1.2-3.4,1.2-5.2,2.1c0.1,2.9-0.8,5.4-0.8,8.4"/>
		</g>
	</g>
</g>
</svg>
