<?xml version="1.0" encoding="utf-8"?>
<!-- Generator: Adobe Illustrator 23.0.2, SVG Export Plug-In . SVG Version: 6.00 Build 0)  -->
<svg version="1.1" id="Calque_1" xmlns="http://www.w3.org/2000/svg" xmlns:xlink="http://www.w3.org/1999/xlink" x="0px" y="0px"
	 viewBox="0 0 283.5 283.5" style="enable-background:new 0 0 283.5 283.5;" xml:space="preserve">
<style type="text/css">
	.Graphic_x0020_Style{fill:#C8C8C8;}
	.st0{fill:url(#shadow_1_);}
	.st1{clip-path:url(#SVGID_1_);}
	.st2{fill:#2CCE95;}
	.st3{clip-path:url(#SVGID_1_);fill:#C8C8C8;}
	.st4{fill:#32303A;}
	.st5{fill:#F7CDB9;}
	.st6{fill:#DEB4A0;}
	.st7{fill:#FFFFFF;}
	.st8{fill:#96281B;}
	.st9{fill:#E6E7E8;}
	.st10{fill:#4F4C4D;}
	.st11{fill:#C8C8C8;}
	.st12{fill:#686671;}
	.st13{fill:#3C2415;}
	.st14{fill:#4F3C30;}
</style>
<g id="man_6_">
	
		<radialGradient id="shadow_1_" cx="153.2789" cy="178.9921" r="84.6611" gradientTransform="matrix(0.962 0 0 0.962 -5.7981 6.2059)" gradientUnits="userSpaceOnUse">
		<stop  offset="0" style="stop-color:#ADADAE"/>
		<stop  offset="0.468" style="stop-color:#AFAFB0;stop-opacity:0.532"/>
		<stop  offset="0.6367" style="stop-color:#B6B6B7;stop-opacity:0.3633"/>
		<stop  offset="0.7568" style="stop-color:#C1C1C2;stop-opacity:0.2432"/>
		<stop  offset="0.8539" style="stop-color:#D2D2D3;stop-opacity:0.1461"/>
		<stop  offset="0.9361" style="stop-color:#E8E8E8;stop-opacity:6.388569e-02"/>
		<stop  offset="1" style="stop-color:#FFFFFF;stop-opacity:0"/>
	</radialGradient>
	<circle id="shadow_7_" class="st0" cx="141.7" cy="178.4" r="81.4"/>
	<g>
		<defs>
			<path id="SVGID_3_" d="M190.4,108.7c4.9-8.4,7.8-18.2,7.8-28.6c0-31.2-25.3-56.5-56.5-56.5c-31.2,0-56.5,25.3-56.5,56.5
				c0,10.4,2.8,20.2,7.8,28.6c-14.6,13.3-23.8,32.4-23.8,53.7c0,40.1,32.5,72.5,72.5,72.5c40.1,0,72.5-32.5,72.5-72.5
				C214.2,141.2,205,122,190.4,108.7z"/>
		</defs>
		<clipPath id="SVGID_1_">
			<use xlink:href="#SVGID_3_"  style="overflow:visible;"/>
		</clipPath>
		<g class="st1">
			<circle class="st2" cx="141.7" cy="162.5" r="72.5"/>
		</g>
		<path class="st3" d="M206.3,174.8c-5.6-11.4-14.7-21.7-23.3-29.8l0,0c-3.4-3.5-9.8-5-18.5-7.8l0-0.6l-8.5-4.4h-2.2v-7.1
			c0,0,0,0,0,0c0,0,0.1-0.1,0.1-0.1c0.5-0.4,1.1-0.8,1.6-1.2c0,0,0,0,0.1,0c0.5-0.4,1.1-0.9,1.6-1.4c0.1-0.1,0.3-0.3,0.4-0.4
			c0.1-0.1,0.2-0.2,0.4-0.3c0.1-0.1,0.2-0.2,0.3-0.3c0.2-0.2,0.3-0.3,0.5-0.5c0.1-0.1,0.1-0.1,0.2-0.2c0.2-0.2,0.4-0.4,0.5-0.6
			c0-0.1,0.1-0.1,0.1-0.2c0.4-0.5,0.8-1,1.2-1.5c0.1-0.2,0.2-0.3,0.4-0.5c0.1-0.1,0.2-0.3,0.3-0.4c0-0.1,0.1-0.1,0.1-0.2
			c0.3-0.5,0.7-1.1,1-1.6c0.1-0.2,0.2-0.4,0.3-0.6c0.1-0.1,0.1-0.3,0.2-0.4c0,0,0-0.1,0.1-0.1c0.2-0.5,0.5-1,0.6-1.6
			c0.1-0.3,0.2-0.6,0.3-0.9c0-0.1,0.1-0.2,0.1-0.4c0,0,0,0,0,0c0.2-0.8,0.4-1.6,0.5-2.4c0.1-0.6,0.1-1.1,0.1-1.7
			c2.3,0,4.2-1.9,4.2-4.2v-4.4c0-1.2-0.5-2.3-1.3-3.1c1.9-5.3,4.1-14,1.4-21.6c0.9-2.8,0.2-7.2-2.5-14.2c-0.5-1.3-2.3-1.6-3.2-0.5
			c-2.6,3.2-6.2,3.2-11.5,0.3c-7.8-4.2-14-3-18.1,0.3C112,63.7,116.7,85.9,120,95.9c0,0,0,0,0,0c-0.9,0.8-1.5,1.9-1.5,3.2v4.4
			c0,2.3,1.9,4.2,4.2,4.2c0,6.9,5.2,13.5,11,17.5v6.6v0.5h-2.2l-8.5,4.4l0,0.6c-8.7,2.8-15.1,4.2-18.5,7.8l0,0
			c-8.5,8.1-17.7,18.4-23.3,29.8c-6.7,13.7-0.3,21.8,2.7,24.3c4.4,3.5,18.9,2.8,24.1,2.8c0.1,0,0.1,0,0.2,0c0.1,20.3,0,45-0.6,54
			l33.6,0l2.5-11.8l2.5,11.8l33.6,0c-0.6-9-0.6-33.8-0.6-54c0.1,0,0.1,0,0.2,0c5.2,0,19.7,0.8,24.1-2.8
			C206.6,196.6,213,188.5,206.3,174.8z M95.8,184.9c-0.1,0-1-0.9,1.3-3.4c4.7-5.3,7.2-7,10.5-9.5c0.1,0.1,0.2,0.2,0.2,0.2
			c0,0,0.1,5.1,0.1,12.9C103.3,185.4,97,185.8,95.8,184.9z M191.5,184.9c-1.1,0.9-7.4,0.5-12.1,0.1c0.1-7.8,0.1-12.9,0.1-12.9
			c0,0,0.1,0,0.2-0.1c3.3,2.5,5.6,4.1,10.5,9.5C192.4,184,191.5,184.8,191.5,184.9z"/>
		<g id="man_13_" class="st1">
			<rect x="129.3" y="132.3" class="st4" width="24.6" height="10.4"/>
			<g>
				<polygon class="st5" points="154.9,135.4 151.7,134 151.7,124 131.6,124 131.6,134 128.4,135.3 129.3,163.6 131.6,163.6 
					131.6,168 151.7,168 151.7,163.6 154,163.6 				"/>
				<polygon class="st6" points="131.6,124 131.6,131.8 151.7,133.3 151.7,124 				"/>
			</g>
			<g>
				<g>
					<path class="st7" d="M155.2,135.5l-0.7,2.8c-1.3,3.7-4.6,9.8-12.5,9.8c-8.9,0-12.3-7.7-13.4-11.1l-0.4-1.5
						c-16.4,6.2-11.4,57.5-11.4,57.5l-0.1,42.7l25,0l26.4,0l-0.7-42.7C167.4,193,171.6,141.6,155.2,135.5z"/>
					<polygon class="st8" points="146.5,146.7 144.6,150.4 138.7,150.4 136.8,146.7 141.7,142.7 					"/>
					<path class="st9" d="M141.7,142.7l-6.2,6.5l-10.6-12.6c0,0,6.6-3.3,6.6-3.3l2.5,2.3L141.7,142.7z"/>
					<polygon class="st9" points="151.8,133.3 141.7,142.7 147.9,149.3 158.5,136.6 					"/>
					<polygon class="st8" points="144.6,151.3 147,228.5 141.7,234.3 136.3,228.5 138.7,151.3 					"/>
				</g>
				<path class="st4" d="M183.6,150.3c-1.6-9.4-12-9.4-28.4-15.6c0,0-13.5,54.7-13.5,54.7c0,0-13.5-54.7-13.5-54.7
					c-16.4,6.2-26.8,6.2-28.4,15.6c-2.6,15.2,6.1,21.9,6.2,21.8c0,0,0.7,67.5-0.4,83.8l33.6,0l2.5-11.8l2.5,11.8l33.6,0
					c-1.1-16.3-0.4-83.8-0.4-83.8C177.5,172.2,186.2,165.6,183.6,150.3z"/>
				<g>
					<g>
						<polygon class="st10" points="120.9,136.6 121.2,146.3 126,150.2 122.3,155.3 141.5,189.5 129.3,132.3 						"/>
					</g>
					<g>
						<polygon class="st10" points="162.5,136.6 162.1,146.3 157.3,150.2 161.1,155.3 141.8,189.5 154,132.3 						"/>
					</g>
				</g>
			</g>
			<g>
				<path class="st9" d="M161.8,204.9h-40.3c-3.2,0-5.9-2.6-5.9-5.9l-2.5-33.6c0-3.2,2.6-5.9,5.9-5.9h45.3c3.2,0,5.9,2.6,5.9,5.9
					l-2.5,33.6C167.7,202.3,165.1,204.9,161.8,204.9z"/>
				<path class="st11" d="M164.4,159.5h-45.5c-2,0-3.8,1-4.8,2.6c0.9-0.6,2-1,3.2-1h45.5c3.2,0,5.8,2.6,5.8,5.8l-2.5,33.8
					c0,1.2-0.4,2.3-1,3.2c1.6-1,2.6-2.8,2.6-4.8l2.5-33.8C170.2,162.1,167.6,159.5,164.4,159.5z"/>
				<path class="st12" d="M120.4,184.7h-0.2c-1.3,0-2.4-1.1-2.4-2.4v-0.2c0-1.3,1.1-2.4,2.4-2.4h0.2c1.3,0,2.4,1.1,2.4,2.4v0.2
					C122.8,183.6,121.7,184.7,120.4,184.7z"/>
			</g>
			<g>
				<g>
					<path class="st5" d="M117.4,185.6c0,0-4,0.4-7,0.7c-0.8,0-1.5,0.1-2.2,0.1c-0.7,0-1.4,0-1.9,0.1c-1.1,0-1.9,0-1.9,0l-0.3,12.6
						c0,0,0.9,0,2.3,0c0.7,0,1.5,0,2.3-0.1c0.8-0.1,1.7-0.1,2.6-0.2c3.5-0.3,7.8-0.7,7.8-0.7c2.7-0.4,4.4-3.5,3.8-6.9
						C122.3,187.7,119.8,185.3,117.4,185.6z"/>
					<path class="st5" d="M113.2,182.4c-2.1,0.2-3.7,1.7-4.9,3.2c-1.2,1.4-2,2.9-2,3c-0.5,0.9-0.4,2.2,0.3,2.9
						c0.7,0.7,1.7,0.5,2.2-0.5c0,0,0.2-0.3,0.4-0.7c0.2-0.4,0.6-0.9,1-1.5c0.9-1.1,2.1-2.2,3.5-2.3c0.8-0.1,1.4-1.1,1.2-2.3
						C114.7,183.1,114,182.3,113.2,182.4z"/>
				</g>
				<path class="st4" d="M105.9,201.9c-5.2,0-19.7,0.8-24.1-2.8c-3.1-2.5-9.5-10.6-2.7-24.3c5.6-11.4,14.7-21.7,23.3-29.8l10.1,21.1
					c-7.9,7.5-9.8,7-17.3,15.3c-2.3,2.5-1.4,3.4-1.3,3.4c1.2,1,8.4,0.4,13.1,0.1l1.2,16.8C106.6,201.8,107.5,201.9,105.9,201.9z"/>
			</g>
			<g>
				<g>
					<path class="st5" d="M165.9,185.6c0,0,4,0.4,7,0.7c0.8,0,1.5,0.1,2.2,0.1c0.7,0,1.4,0,1.9,0.1c1.1,0,1.9,0,1.9,0l0.3,12.6
						c0,0-0.9,0-2.3,0c-0.7,0-1.5,0-2.3-0.1c-0.8-0.1-1.7-0.1-2.6-0.2c-3.5-0.3-7.8-0.7-7.8-0.7c-2.7-0.4-4.4-3.5-3.8-6.9
						C161,187.7,163.5,185.3,165.9,185.6z"/>
					<path class="st5" d="M170.1,182.4c2.1,0.2,3.7,1.7,4.9,3.2c1.2,1.4,2,2.9,2,3c0.5,0.9,0.4,2.2-0.3,2.9
						c-0.7,0.7-1.7,0.5-2.2-0.5c0,0-0.2-0.3-0.4-0.7c-0.2-0.4-0.6-0.9-1-1.5c-0.9-1.1-2.1-2.2-3.5-2.3c-0.8-0.1-1.4-1.1-1.2-2.3
						C168.6,183.1,169.3,182.3,170.1,182.4z"/>
				</g>
				<path class="st4" d="M177.4,201.9c5.2,0,19.7,0.8,24.1-2.8c3.1-2.5,9.5-10.6,2.7-24.3c-5.6-11.4-14.7-21.7-23.3-29.8l-9.8,21.4
					c7.9,7.5,9.6,6.8,17,15.1c2.3,2.5,1.4,3.4,1.3,3.4c-1.2,1-8.4,0.4-13.1,0.1l-1.2,16.8C176.7,201.8,175.8,201.9,177.4,201.9z"/>
			</g>
			<g>
				<g>
					<path class="st5" d="M163.7,95.1l0.7-8.9c0-11.6-11.1-21-22.7-21c-11.6,0-22.7,9.4-22.7,21l0.7,8.9c-0.6,0.2-1.2,0.5-1.7,0.9
						c-0.9,0.8-1.5,1.9-1.5,3.2v4.4c0,2.3,1.9,4.2,4.2,4.2c0,11,13.2,21.3,21,21.3c7.9,0,21-10.4,21-21.3c2.3,0,4.2-1.9,4.2-4.2
						v-4.4C166.9,97.2,165.5,95.5,163.7,95.1z"/>
					<path class="st5" d="M163.7,95.1l0.7-8.9c0-11.6-11.1-21-22.7-21c0,0,0,0,0,0V95c-3.1,6.5-5,16-5,16h5V129c0,0,0,0,0,0
						c0,0,0,0,0,0c7.9,0,21-10.4,21-21.3c2.3,0,4.2-1.9,4.2-4.2v-4.4C166.9,97.2,165.5,95.5,163.7,95.1z"/>
					<g>
						<g>
							<path class="st5" d="M135.3,100c0.1,1.8-1.4,3.4-3.2,3.4c-1.8,0.1-3.4-1.4-3.4-3.2c-0.1-1.8,1.4-3.4,3.2-3.4
								C133.7,96.7,135.2,98.1,135.3,100z"/>
							<path class="st13" d="M135.3,99.1c0.1,1.8-1.4,3.4-3.2,3.4c-1.8,0.1-3.4-1.4-3.4-3.2c-0.1-1.8,1.4-3.4,3.2-3.4
								C133.7,95.9,135.2,97.3,135.3,99.1z"/>
							<path class="st7" d="M133.9,100.7c0,0.5-0.3,0.8-0.8,0.9c-0.5,0-0.8-0.3-0.9-0.8c0-0.5,0.3-0.8,0.8-0.9
								C133.5,99.9,133.9,100.2,133.9,100.7z"/>
						</g>
						<g>
							<path class="st5" d="M154.6,100c0.1,1.8-1.4,3.4-3.2,3.4c-1.8,0.1-3.4-1.4-3.4-3.2c-0.1-1.8,1.4-3.4,3.2-3.4
								C153,96.7,154.6,98.1,154.6,100z"/>
							<path class="st13" d="M154.6,99.1c0.1,1.8-1.4,3.4-3.2,3.4c-1.8,0.1-3.4-1.4-3.4-3.2c-0.1-1.8,1.4-3.4,3.2-3.4
								C153,95.9,154.6,97.3,154.6,99.1z"/>
							<path class="st7" d="M153.3,100.7c0,0.5-0.3,0.8-0.8,0.9c-0.5,0-0.8-0.3-0.9-0.8c0-0.5,0.3-0.8,0.8-0.9
								C152.9,99.9,153.3,100.2,153.3,100.7z"/>
						</g>
					</g>
				</g>
				<path class="st14" d="M151.7,115.7c-3-3.1-9.3-3.5-10-3.5c0,0-0.1,0-0.1,0c-0.7,0-7,0.4-10,3.5c-0.3,0.3-0.5,0.7-0.5,1.2
					c0,4.3,0.8,8.5,0.8,8.6c0.1,0.3,0.3,0.5,0.5,0.7c0.1,0.1,4.4,2.8,9.1,2.8c4.8,0,9-2.7,9.1-2.8c0.2-0.2,0.4-0.4,0.5-0.7
					c0.1-0.2,0.8-4.3,0.8-8.6C152.2,116.5,152,116.1,151.7,115.7z M148.3,123.9c-0.6,0.4-2.8,1.2-4.6,1.6v-2.3
					c0-1.2-0.9-2.1-2.1-2.1c-1.2,0-2.1,0.9-2.1,2.1v2.3c-1.8-0.4-4-1.2-4.6-1.6c-0.3-1-0.3-3.6-0.4-6.2c1.9-1.5,5.7-2,7.1-2
					c1.5,0.1,5.2,0.6,7.1,2C148.6,120.3,148.7,122.9,148.3,123.9z"/>
				<path class="st14" d="M166.9,74.5c0.9-2.8,0.2-7.2-2.5-14.2c-0.5-1.3-2.3-1.6-3.2-0.5c-2.6,3.2-6.2,3.2-11.5,0.3
					c-7.8-4.2-14-3-18.1,0.3c-28,4.4-11.8,40.5-11.8,40.5s-1.9-21.7,7.9-20.3c6.1,0.9,10.5,1.2,13.9,1.2c3.4,0,7.9-0.3,13.9-1.2
					c9.8-1.4,7.9,20.3,7.9,20.3S171.1,86.2,166.9,74.5z"/>
				<path class="st4" d="M165.2,92.5h-4.5c-1.4-0.8-3.4-1.2-6.3-1.2c-4.7,0-7.9,0.9-9.5,2.6c-0.8-0.4-1.9-0.9-3.2-0.9
					c-1.3,0-2.4,0.5-3.2,0.9c-1.6-1.7-4.8-2.6-9.5-2.6c-2.8,0-4.8,0.5-6.3,1.2h-4.6v3.3l1.5,0.5c-0.2,0.6-0.2,1.2-0.2,1.8
					c0,4.1,1,9.5,9.6,9.5c7.6,0,9.7-4.7,10.6-9.3c0.1-0.7,0.2-1.4,0.1-2c0.4-0.2,1-0.4,2-0.4c1,0,1.7,0.2,2,0.5
					c-0.1,0.6-0.1,1.3,0.1,2c1,4.6,3,9.3,10.6,9.3c8.6,0,9.6-5.4,9.6-9.5c0-0.6-0.1-1.2-0.2-1.8l1.5-0.5V92.5z M137.9,97.9
					c-1,4.8-2.9,8-9,8c-6.9,0-7.9-3.7-7.9-7.8c0-1.3,0-5.2,7.9-5.2c5.4,0,7.6,1.2,8.4,2.3C138,95.9,138.2,96.8,137.9,97.9z
					 M154.4,105.9c-6.1,0-8-3.2-9-8c-0.2-1.1,0-2,0.6-2.8c0.8-1,3-2.3,8.4-2.3c7.9,0,7.9,3.9,7.9,5.2
					C162.2,102.1,161.3,105.9,154.4,105.9z"/>
			</g>
		</g>
	</g>
</g>
</svg>
