<?xml version="1.0" encoding="utf-8"?>
<!-- Generator: Adobe Illustrator 23.0.2, SVG Export Plug-In . SVG Version: 6.00 Build 0)  -->
<svg version="1.1" id="Illustration" xmlns="http://www.w3.org/2000/svg" xmlns:xlink="http://www.w3.org/1999/xlink" x="0px"
	 y="0px" viewBox="0 0 3710 3710" style="enable-background:new 0 0 3710 3710;" xml:space="preserve">
<style type="text/css">
	.st0{fill:url(#SVGID_1_);}
	.st1{opacity:0.3;}
	.st2{fill:#91B3FA;}
	.st3{fill:#BDD0FB;}
	.st4{fill:#FFFFFF;}
	.st5{fill:url(#SVGID_2_);}
	.st6{fill:url(#SVGID_3_);}
	.st7{opacity:0.5;}
	.st8{fill:#7D97F4;}
	.st9{clip-path:url(#SVGID_5_);}
	.st10{fill:url(#SVGID_6_);}
	.st11{fill:url(#SVGID_7_);}
	.st12{fill:url(#SVGID_8_);}
	.st13{fill:url(#SVGID_9_);}
	.st14{fill:url(#SVGID_10_);}
	.st15{fill:url(#SVGID_11_);}
	.st16{fill:#25AC7E;}
	.st17{fill:url(#SVGID_12_);}
	.st18{fill:url(#SVGID_13_);}
	.st19{fill:url(#SVGID_14_);}
	.st20{fill:url(#SVGID_15_);}
	.st21{fill:#6EE5B7;}
	.st22{fill-rule:evenodd;clip-rule:evenodd;fill:#FFFFFF;}
	.st23{fill:#2CCB93;}
	.st24{fill:url(#SVGID_16_);}
	.st25{fill:url(#SVGID_17_);}
	.st26{fill:url(#SVGID_18_);}
	.st27{fill:url(#SVGID_19_);}
	.st28{fill:url(#SVGID_20_);}
	.st29{fill:url(#SVGID_21_);}
	.st30{fill:url(#SVGID_22_);}
	.st31{fill:url(#SVGID_23_);}
	.st32{fill:url(#SVGID_24_);}
	.st33{fill:url(#SVGID_25_);}
	.st34{fill:url(#SVGID_26_);}
	.st35{fill:url(#SVGID_27_);}
	.st36{fill:url(#SVGID_28_);}
	.st37{fill:url(#SVGID_29_);}
	.st38{fill:url(#SVGID_30_);}
	.st39{fill:url(#SVGID_31_);}
	.st40{fill:url(#SVGID_32_);}
	.st41{fill:url(#SVGID_33_);}
	.st42{fill:url(#SVGID_34_);}
	.st43{fill:url(#SVGID_35_);}
</style>
<g>
	<linearGradient id="SVGID_1_" gradientUnits="userSpaceOnUse" x1="3396.6157" y1="3591.511" x2="1345.3585" y2="1377.4554">
		<stop  offset="0" style="stop-color:#DAE3FE"/>
		<stop  offset="1" style="stop-color:#E9EFFD"/>
	</linearGradient>
	<path class="st0" d="M3110.8,2329.8c-281.9,658.8-1025.9,941.8-1608.8,893.5c-159.2-13.2-479.4-39.7-729.5-276.1
		C292.3,2493.1,366.2,1543.8,825.9,985c59.2-72,469-554.2,1107.5-547.7C2401,442,2729.1,706.1,2769,739
		c50.4,41.6,161.6,140.3,261.8,297C3266.2,1404.2,3286.9,1918.1,3110.8,2329.8z"/>
	<g>
		<g>
			<g class="st1">
				<path class="st2" d="M899,1031.2c-5-1.6-8.1-6.8-7-12.1c2.4-11.5,5.4-23.1,8.8-34.5c1.7-5.5,7.5-8.6,13-7c0.1,0,0.1,0,0.2,0.1
					c5.4,1.7,8.4,7.5,6.8,12.9c-3.3,10.8-6.1,21.8-8.4,32.8c-1.2,5.6-6.7,9.2-12.4,8.1C899.7,1031.4,899.3,1031.3,899,1031.2z
					 M927.6,944.8c-0.4-0.1-0.8-0.3-1.2-0.5c-5.2-2.4-7.5-8.6-5.1-13.8c4.9-10.8,10.4-21.4,16.2-31.7c2.8-5,9.2-6.8,14.2-3.9
					c5,2.8,6.8,9.2,3.9,14.2c-5.5,9.7-10.7,19.9-15.4,30.1C938,944.1,932.5,946.4,927.6,944.8z M974.5,867c-1.1-0.4-2.2-0.9-3.1-1.7
					c-4.6-3.5-5.4-10.1-1.9-14.6c7.2-9.4,14.9-18.5,22.9-27.3c3.9-4.3,10.5-4.5,14.7-0.7c4.3,3.9,4.5,10.5,0.7,14.7
					c-7.6,8.3-14.9,17-21.7,25.9C983.2,867,978.5,868.3,974.5,867z M1037.6,801.5c-1.8-0.6-3.5-1.7-4.8-3.3c-3.7-4.4-3-11,1.4-14.7
					c9.1-7.5,18.7-14.8,28.4-21.5c4.7-3.3,11.2-2.1,14.5,2.6c3.3,4.7,2.1,11.2-2.6,14.5c-9.2,6.4-18.3,13.2-27,20.4
					C1044.6,802,1040.9,802.6,1037.6,801.5z M1113.7,751.8c-2.6-0.8-4.8-2.6-6.1-5.2c-2.6-5.1-0.5-11.4,4.6-14
					c10.5-5.3,21.4-10.2,32.4-14.7c5.3-2.2,11.4,0.4,13.6,5.8c2.1,5.3-0.4,11.4-5.8,13.6c-10.4,4.2-20.8,8.9-30.8,13.9
					C1119.1,752.5,1116.2,752.6,1113.7,751.8z M1199,720.2c-3.3-1.1-6-3.8-6.9-7.4c-1.4-5.6,2-11.3,7.6-12.6
					c11.5-2.9,23.2-5.2,34.9-7.1c5.7-0.9,11,3,12,8.7c0.9,5.7-3,11-8.7,12c-11.1,1.8-22.2,4-33.1,6.8
					C1202.7,720.9,1200.7,720.8,1199,720.2z M1570.5,814.1c-1.4-0.4-2.7-1.2-3.8-2.2c-8.3-7.6-17-14.8-25.9-21.7
					c-4.6-3.5-5.5-10.1-2-14.6c3.5-4.6,10-5.5,14.6-2c9.4,7.2,18.6,14.9,27.3,22.8c4.3,3.9,4.6,10.5,0.7,14.7
					C1578.6,814.4,1574.3,815.4,1570.5,814.1z M1289,708.3c-4.1-1.3-7.1-5.2-7.2-9.7c-0.1-5.8,4.5-10.5,10.2-10.6
					c11.8-0.2,23.8,0,35.6,0.8c5.7,0.4,10.1,5.4,9.7,11.1c-0.4,5.8-5.4,10.1-11.1,9.7c-11.2-0.7-22.6-1-33.8-0.8
					C1291.2,708.8,1290.1,708.6,1289,708.3z M1496.8,760.9c-0.7-0.2-1.3-0.5-1.9-0.8c-9.8-5.5-19.9-10.7-30.1-15.3
					c-5.2-2.4-7.6-8.6-5.2-13.8c2.4-5.2,8.6-7.6,13.8-5.2c10.8,4.9,21.4,10.3,31.7,16.1c5,2.8,6.8,9.2,4,14.2
					C1506.6,760.5,1501.4,762.4,1496.8,760.9z M1379.5,716.7c-5-1.6-8.1-6.8-7-12.1c1.2-5.6,6.7-9.3,12.4-8.1
					c11.6,2.4,23.2,5.4,34.5,8.8c0.1,0,0.1,0,0.2,0.1c5.4,1.7,8.4,7.5,6.8,12.9c-1.7,5.5-7.5,8.7-13,7c-10.8-3.2-21.8-6-32.8-8.3
					C1380.2,716.9,1379.8,716.8,1379.5,716.7z"/>
				<path class="st2" d="M1620,868.2c-2-0.6-3.7-1.8-5.1-3.6c-3.3-4.3-6.7-8.6-10.1-12.7c-3.7-4.4-3.1-11,1.4-14.7
					c4.4-3.7,11-3.1,14.7,1.4c3.6,4.4,7.2,8.9,10.6,13.4c3.5,4.6,2.6,11.1-2,14.6C1626.7,868.7,1623.1,869.2,1620,868.2z"/>
			</g>
			<g class="st1">
				<path class="st2" d="M1698.5,1176.5c-4.8-1.5-7.9-6.4-7.1-11.5c0.8-5.3,1.6-10.7,2.2-16.1c0.6-5.7,5.8-9.8,11.5-9.2
					c5.8,0.7,9.8,5.8,9.2,11.5c-0.6,5.7-1.4,11.4-2.3,17c-0.9,5.7-6.2,9.6-11.9,8.7C1699.6,1176.8,1699,1176.7,1698.5,1176.5z"/>
				<path class="st2" d="M1172.2,1501.5c-4.6-1.5-9.1-3-13.7-4.7c-5.4-2-8.2-7.9-6.3-13.4c2-5.4,8-8.2,13.4-6.3
					c10.5,3.8,21.1,7.1,31.7,10c5.6,1.5,8.9,7.2,7.4,12.8c-1.5,5.6-7.2,8.9-12.8,7.4C1185.4,1505.6,1178.7,1503.6,1172.2,1501.5z
					 M1108.1,1474.6c-0.6-0.2-1.1-0.4-1.6-0.7c-10.3-5.4-20.5-11.3-30.3-17.5c-4.9-3.1-6.3-9.5-3.2-14.4c3.1-4.9,9.6-6.3,14.4-3.2
					c9.3,5.9,19,11.5,28.8,16.6c5.1,2.7,7.1,9,4.4,14.1C1118.1,1474.1,1112.8,1476.2,1108.1,1474.6z M1245.8,1517.9
					c-4.7-1.5-7.8-6.2-7.1-11.2c0.7-5.7,6-9.8,11.7-9c10.9,1.4,22.1,2.3,33.1,2.8c5.8,0.2,10.2,5.1,10,10.9
					c-0.2,5.8-5.1,10.2-10.9,10c-11.6-0.5-23.4-1.5-34.9-2.9C1247,1518.3,1246.4,1518.1,1245.8,1517.9z M1033.8,1424.7
					c-1.3-0.4-2.5-1.1-3.5-2c-8.9-7.5-17.5-15.5-25.7-23.8c-4.1-4.1-4-10.7,0-14.8c4.1-4.1,10.7-4.1,14.8,0
					c7.8,7.8,16,15.4,24.4,22.6c4.4,3.7,4.9,10.3,1.2,14.7C1042.2,1424.8,1037.7,1426,1033.8,1424.7z M1335.2,1519.3
					c-3.8-1.2-6.8-4.7-7.2-8.9c-0.5-5.7,3.7-10.8,9.4-11.4c11-1,22-2.6,32.9-4.6c5.7-1,11.1,2.7,12.1,8.4c1,5.7-2.7,11.1-8.4,12.1
					c-11.5,2.1-23.1,3.7-34.7,4.8C1337.9,1519.9,1336.5,1519.8,1335.2,1519.3z M1422.7,1501.1c-3.1-1-5.6-3.4-6.7-6.7
					c-1.8-5.5,1.2-11.4,6.7-13.2c10.5-3.4,21-7.4,31.2-11.6c5.3-2.2,11.4,0.2,13.7,5.6c2.2,5.3-0.2,11.4-5.6,13.7
					c-10.7,4.5-21.7,8.6-32.8,12.2C1427,1501.8,1424.8,1501.7,1422.7,1501.1z M1504.2,1464.1c-2.3-0.8-4.4-2.3-5.8-4.6
					c-2.9-5-1.3-11.4,3.7-14.3c9.5-5.6,18.9-11.7,27.9-18.1c4.7-3.3,11.2-2.3,14.6,2.4c3.3,4.7,2.2,11.2-2.4,14.6
					c-9.5,6.7-19.3,13.2-29.3,19.1C1510.1,1464.8,1507,1465,1504.2,1464.1z M1575.7,1410.3c-1.6-0.5-3.1-1.4-4.4-2.8
					c-4-4.2-3.8-10.8,0.4-14.7c8-7.6,15.9-15.6,23.2-23.8c3.8-4.3,10.5-4.7,14.7-0.8c4.3,3.8,4.7,10.4,0.8,14.7
					c-7.8,8.7-16,17.1-24.5,25.1C1583.2,1410.7,1579.2,1411.5,1575.7,1410.3z M1633.7,1342.1c-0.9-0.3-1.8-0.7-2.6-1.3
					c-4.8-3.2-6-9.7-2.8-14.5c6.2-9.1,12-18.7,17.4-28.3c2.8-5,9.2-6.8,14.2-4c5,2.8,6.8,9.2,4,14.2c-5.7,10.2-11.8,20.2-18.3,29.8
					C1642.9,1342,1638,1343.5,1633.7,1342.1z M1675.2,1262.9c-0.2-0.1-0.4-0.1-0.6-0.2c-5.4-2.1-8-8.2-5.9-13.5
					c3-7.6,5.7-15.3,8.2-23.1c0.9-2.8,1.8-5.6,2.6-8.4c1.7-5.5,7.5-8.7,13-7c5.6,1.6,8.7,7.5,7,13c-0.9,2.9-1.8,5.9-2.7,8.8
					c-2.6,8.1-5.5,16.3-8.7,24.3C1686.1,1261.9,1680.4,1264.6,1675.2,1262.9z"/>
				<path class="st2" d="M972.3,1359.4c-2-0.6-3.8-1.9-5.1-3.6c-3.4-4.5-6.8-9.2-10-13.9c-3.3-4.7-2.1-11.2,2.7-14.5
					c4.7-3.3,11.2-2.1,14.5,2.7c3.1,4.5,6.3,8.9,9.5,13.2c3.5,4.6,2.5,11.1-2.1,14.6C978.9,1359.9,975.4,1360.4,972.3,1359.4z"/>
			</g>
			<g>
				<path class="st2" d="M1022.9,1248.6c0.8,1.9,2.7,3.2,4.7,3.1l59.3-2.4c15.7,22.9,35.2,43.4,58,60.5l-4.8,59.1
					c-0.2,2.1,1,4,2.9,4.9l65.2,28.6c1.9,0.8,4.1,0.4,5.5-1.2l40.2-43.6c28.1,5.2,56.3,5.6,83.8,1.7l38.4,45.3
					c1.3,1.6,3.6,2.1,5.5,1.4l66.3-25.9c1.9-0.8,3.2-2.7,3.1-4.7l-2.4-59.3c22.9-15.7,43.4-35.2,60.5-58l59.1,4.8
					c2.1,0.2,4-1,4.9-2.9l28.6-65.2c0.8-1.9,0.4-4.1-1.2-5.5l-43.6-40.2c5.2-28.1,5.6-56.3,1.7-83.8l45.3-38.4
					c1.6-1.3,2.1-3.6,1.4-5.5l-25.9-66.3c-0.8-1.9-2.7-3.2-4.7-3.1l-59.3,2.4c-15.7-22.9-35.2-43.4-58-60.5l4.8-59.1
					c0.2-2.1-1-4-2.9-4.9l-65.2-28.6c-1.9-0.8-4.1-0.4-5.5,1.2l-40.2,43.6c-28.1-5.2-56.3-5.6-83.8-1.7l-38.4-45.3
					c-1.3-1.6-3.6-2.1-5.5-1.4l-66.3,25.9c-1.9,0.8-3.2,2.7-3.1,4.7l2.4,59.3c-22.9,15.7-43.4,35.2-60.5,58l-59.1-4.8
					c-2.1-0.2-4,1-4.9,2.9l-28.6,65.2c-0.8,1.9-0.4,4.1,1.2,5.5l43.6,40.2c-5.2,28.1-5.6,56.3-1.7,83.8l-45.3,38.4
					c-1.6,1.3-2.1,3.6-1.4,5.5L1022.9,1248.6z"/>
				<g>
					<path class="st3" d="M1279.2,1169.9c-33.2-10.7-54.5-44.5-48.5-79.9c6.5-38.9,43.5-65.3,82.4-58.7c18.9,3.2,35.4,13.5,46.4,29
						c11.1,15.6,15.5,34.5,12.3,53.4c-6.5,38.9-43.5,65.3-82.4,58.8C1285.9,1171.8,1282.5,1170.9,1279.2,1169.9z M1318.2,1049.6
						c-2.6-0.8-5.2-1.5-7.9-1.9c-29.8-5-58.2,15.2-63.2,45c-5,29.8,15.2,58.2,45,63.2c29.8,5,58.2-15.2,63.2-45
						c2.4-14.5-0.9-29-9.4-40.9C1339,1060.2,1329.3,1053.2,1318.2,1049.6z"/>
				</g>
				<path class="st3" d="M1248.8,1268.7c-5.7-1.8-11.3-4-16.9-6.4l0,0c-1.8-0.8-3.5-1.6-5.2-2.4c-8.5-4.1-16.7-8.8-24.4-14.1
					c-0.1-0.1-0.2-0.1-0.3-0.2c-0.3-0.2-0.6-0.4-0.9-0.6c-0.6-0.4-1.2-0.8-1.7-1.2c-1.5-1.1-2.1-3-1.5-4.7c0.1-0.4,0.3-0.8,0.6-1.2
					c1.3-1.9,4-2.3,5.8-0.9c9.6,6.9,20,12.9,31,17.7c54.4,23.9,114.8,16.4,160.8-14.4c25.6-17.1,46.8-41.5,60.1-71.8
					c2.3-5.3,4.4-10.7,6.1-16.1c11.8-36.6,10.7-75.8-3.5-112.2c-16.3-41.7-47.8-74.6-88.8-92.6c-84.7-37.2-183.7,1.5-220.9,86.2
					c-2.3,5.2-4.3,10.5-6,15.9c-7.5,23.3-9.9,48.1-6.8,72.5c0.1,0.6,0,1.2-0.2,1.8c-0.5,1.5-1.8,2.6-3.4,2.9
					c-2.3,0.3-4.4-1.3-4.7-3.6c-3.3-25.6-0.8-51.6,7.1-76.1c1.8-5.7,3.9-11.2,6.3-16.7c39-88.9,143-129.4,231.9-90.5
					c43.1,18.9,76.2,53.4,93.2,97.2c14.9,38.1,16,79.3,3.6,117.7c-1.8,5.7-4,11.4-6.4,16.9c-18.9,43.1-53.4,76.2-97.2,93.3
					C1328.4,1280,1287.2,1281.1,1248.8,1268.7z"/>
			</g>
		</g>
		<g>
			<g class="st1">
				<path class="st2" d="M475.5,1183.3c-2.7-0.9-4.5-3.4-4.5-6.3c0.1-5.5,0.5-11,0.9-16.5c0.3-3.5,3.4-6.2,7-5.9
					c3.6,0.3,6.2,3.4,5.9,7c-0.5,5.2-0.8,10.5-0.9,15.7c-0.1,3.6-3.1,6.4-6.6,6.3C476.7,1183.6,476.1,1183.5,475.5,1183.3z"/>
				<path class="st2" d="M481.4,1134.1c-3.1-1-5-4.2-4.3-7.5c2-9.2,4.4-18.4,7.3-27.4c0.6-1.9,1.2-3.8,1.9-5.7c1.2-3.4,5-5,8.2-4
					c3.4,1.2,5.1,4.8,4,8.2c-0.6,1.8-1.2,3.6-1.8,5.4c-2.8,8.5-5.1,17.3-7,26.1c-0.7,3.5-4.2,5.7-7.7,5
					C481.8,1134.2,481.6,1134.2,481.4,1134.1z M503.3,1070.9c-0.3-0.1-0.6-0.2-0.9-0.3c-3.2-1.6-4.5-5.4-3-8.6
					c5-10.3,10.7-20.3,17-29.8c1.9-3,6-3.8,8.9-1.9c3,1.9,3.8,5.9,1.9,8.9c-5.9,9.1-11.4,18.7-16.2,28.5
					C509.7,1070.5,506.3,1071.8,503.3,1070.9z M539.9,1014.8c-0.8-0.3-1.5-0.7-2.2-1.2c-2.7-2.3-3-6.4-0.7-9.1
					c7.4-8.7,15.4-17,23.8-24.8c2.6-2.4,6.7-2.2,9.1,0.4c2.4,2.6,2.2,6.7-0.4,9.1c-8,7.4-15.6,15.3-22.7,23.6
					C545.1,1014.9,542.3,1015.6,539.9,1014.8z M589.2,969.5c-1.3-0.4-2.4-1.2-3.3-2.4c-2.1-2.9-1.4-6.9,1.5-9
					c9.3-6.6,19.1-12.8,29.1-18.2c3.1-1.7,7-0.5,8.7,2.6c1.7,3.1,0.5,7-2.6,8.7c-9.5,5.2-18.9,11-27.8,17.3
					C593.2,969.9,591.1,970.1,589.2,969.5z M648,937.6c-1.8-0.6-3.3-1.9-4-3.8c-1.3-3.3,0.3-7.1,3.6-8.4
					c10.6-4.2,21.6-7.7,32.6-10.6c3.5-0.9,7,1.2,7.8,4.6c0.9,3.4-1.2,7-4.6,7.8c-10.5,2.7-21,6.1-31.1,10.1
					C650.9,938,649.4,938.1,648,937.6z M712.8,921c-2.3-0.7-4.1-2.8-4.4-5.3c-0.5-3.5,2-6.8,5.6-7.2c11.3-1.5,22.8-2.2,34.2-2.3
					c3.6,0,6.5,2.9,6.5,6.4c0,3.6-2.9,6.5-6.4,6.5c-10.9,0-21.8,0.8-32.6,2.2C714.6,921.3,713.7,921.2,712.8,921z M779.7,920.6
					c-2.9-0.9-4.8-3.8-4.4-6.9c0.4-3.5,3.6-6.1,7.2-5.6c11.3,1.4,22.6,3.4,33.8,6.2c3.4,0.9,5.6,4.4,4.7,7.8
					c-0.9,3.5-4.3,5.6-7.8,4.7c-10.6-2.6-21.4-4.6-32.2-5.9C780.5,920.8,780.1,920.8,779.7,920.6z M875.2,950.6
					c-0.4-0.1-0.7-0.3-1-0.4c-8.3-4.4-17-8.4-25.8-12c-1.3-0.5-2.7-1.1-4-1.6c-3.3-1.3-5-5-3.7-8.3c1.3-3.3,5-5.1,8.3-3.7
					c1.4,0.5,2.8,1.1,4.2,1.7c9.2,3.7,18.3,7.9,27,12.6c3.1,1.7,4.3,5.6,2.7,8.7C881.3,950.3,878.1,951.6,875.2,950.6z"/>
			</g>
			<g class="st1">
				<path class="st2" d="M667.4,1450.6c-3.3-1.1-5.2-4.7-4.2-8c1-3.4,4.7-5.3,8.1-4.3c10.2,3.2,20.8,5.7,31.3,7.6
					c3.5,0.7,5.8,4,5.2,7.5c-0.6,3.5-4,5.8-7.5,5.2C689.3,1456.7,678.3,1454,667.4,1450.6C667.5,1450.7,667.5,1450.7,667.4,1450.6z
					 M636.6,1439c-0.2-0.1-0.4-0.2-0.7-0.3c-10.2-4.6-20.3-9.8-29.9-15.6c-3.1-1.8-4-5.8-2.2-8.8c1.8-3.1,5.8-4,8.8-2.2
					c9.2,5.5,18.8,10.5,28.6,14.9c3.3,1.4,4.7,5.3,3.3,8.5C643.1,1438.6,639.7,1440,636.6,1439z M732.2,1462.3
					c-2.7-0.9-4.6-3.5-4.5-6.5c0.2-3.5,3.2-6.3,6.8-6.1c10.7,0.6,21.5,0.5,32.2-0.2c3.6-0.2,6.6,2.5,6.9,6c0.2,3.5-2.5,6.6-6,6.9
					c-11.2,0.7-22.5,0.8-33.8,0.2C733.3,1462.6,732.7,1462.5,732.2,1462.3z M580.1,1405.2c-0.7-0.2-1.4-0.6-2-1.1
					c-8.9-6.9-17.4-14.4-25.3-22.4c-2.5-2.5-2.5-6.6,0-9.1c2.5-2.5,6.6-2.5,9.1,0c7.6,7.6,15.7,14.7,24.1,21.3
					c2.8,2.2,3.3,6.2,1.1,9C585.5,1405.2,582.6,1406,580.1,1405.2z M797.9,1458c-2.2-0.7-3.9-2.5-4.4-4.9c-0.7-3.5,1.6-6.9,5.1-7.5
					c10.5-2,21-4.6,31.2-7.9c3.4-1.1,7,0.8,8.1,4.2c1.1,3.4-0.8,7-4.2,8.1c-10.7,3.4-21.7,6.2-32.7,8.3
					C800,1458.4,798.9,1458.3,797.9,1458z M860.6,1438c-1.7-0.5-3.1-1.7-3.9-3.5c-1.5-3.2-0.1-7.1,3.2-8.5
					c9.8-4.5,19.3-9.6,28.4-15.1c3-1.9,7-0.9,8.9,2.1c1.9,3,0.9,7-2.1,8.9c-9.6,5.9-19.6,11.2-29.8,15.9
					C863.7,1438.4,862.1,1438.5,860.6,1438z M916.7,1403.6c-1.2-0.4-2.2-1.1-3.1-2.1c-2.2-2.8-1.7-6.8,1-9.1
					c8.4-6.7,16.5-13.9,24-21.5c2.5-2.5,6.6-2.6,9.1-0.1c2.5,2.5,2.6,6.6,0.1,9.1c-7.9,8-16.3,15.6-25.1,22.6
					C921,1403.9,918.7,1404.2,916.7,1403.6z"/>
				<path class="st2" d="M533.3,1358.4c-1.2-0.4-2.3-1.1-3.1-2.2c-3.4-4.3-6.7-8.8-9.8-13.3c-2-2.9-1.3-6.9,1.6-9
					c2.9-2,6.9-1.3,9,1.6c2.9,4.3,6.1,8.5,9.3,12.7c2.2,2.8,1.7,6.9-1.1,9C537.5,1358.7,535.3,1359.1,533.3,1358.4z"/>
			</g>
			<g>
				<path class="st2" d="M564,1280.8c0.5,1.3,1.8,2.1,3.2,2.1l39.7-1.6c10.5,15.3,23.5,29,38.8,40.5l-3.2,39.6
					c-0.1,1.4,0.7,2.7,1.9,3.3l43.6,19.1c1.3,0.6,2.8,0.2,3.7-0.8l26.9-29.2c18.8,3.5,37.7,3.8,56.1,1.1l25.7,30.3
					c0.9,1.1,2.4,1.4,3.7,0.9l44.4-17.3c1.3-0.5,2.1-1.8,2.1-3.2L849,1326c15.3-10.5,29-23.5,40.5-38.8l39.6,3.2
					c1.4,0.1,2.7-0.7,3.3-1.9l19.1-43.6c0.6-1.3,0.2-2.8-0.8-3.7l-29.2-26.9c3.5-18.8,3.8-37.7,1.1-56.1l30.3-25.7
					c1.1-0.9,1.4-2.4,0.9-3.7l-17.3-44.4c-0.5-1.3-1.8-2.1-3.2-2.1l-39.7,1.6c-10.5-15.3-23.5-29-38.8-40.5l3.2-39.6
					c0.1-1.4-0.7-2.7-1.9-3.3l-43.6-19.1c-1.3-0.6-2.8-0.2-3.7,0.8l-26.9,29.2c-18.8-3.5-37.7-3.8-56.1-1.1L700.1,980
					c-0.9-1.1-2.4-1.4-3.7-0.9L652,996.4c-1.3,0.5-2.1,1.8-2.1,3.2l1.6,39.7c-15.3,10.5-29,23.5-40.5,38.8l-39.6-3.2
					c-1.4-0.1-2.7,0.7-3.3,1.9l-19.1,43.6c-0.6,1.3-0.2,2.8,0.8,3.7L579,1151c-3.5,18.8-3.8,37.7-1.1,56.1l-30.3,25.7
					c-1.1,0.9-1.4,2.4-0.9,3.7L564,1280.8z"/>
				<g>
					<path class="st3" d="M735.2,1229c-9.9-3.2-18.5-9.5-24.6-18.1c-7.6-10.6-10.5-23.5-8.4-36.4c4.4-26.5,29.6-44.5,56.1-40
						c26.5,4.5,44.5,29.6,40,56.2c-2.2,12.8-9.2,24.1-19.8,31.6c-10.6,7.6-23.5,10.5-36.4,8.4C739.8,1230.3,737.4,1229.7,735.2,1229
						z M761.3,1148.5c-1.7-0.5-3.4-1-5.1-1.2c-19.5-3.3-38,9.9-41.3,29.4c-1.6,9.4,0.6,18.9,6.2,26.7c5.6,7.8,13.8,13,23.3,14.6l0,0
						c9.4,1.6,18.9-0.6,26.7-6.2c7.8-5.6,13-13.8,14.6-23.3C788.6,1170.8,777.9,1153.9,761.3,1148.5z"/>
				</g>
				<path class="st3" d="M713.9,1297.7c-3.9-1.3-7.7-2.7-11.5-4.4c-7.6-3.3-14.8-7.4-21.5-12.2c-0.3-0.2-0.6-0.4-0.9-0.6
					c-2.3-1.7-3.2-4.6-2.4-7.2c0.2-0.6,0.5-1.2,0.9-1.8c2.1-2.9,6.1-3.5,9-1.4c6.2,4.5,13,8.4,20.1,11.5l0,0
					c0.4,0.2,0.8,0.3,1.2,0.5c16.8,7.2,34.8,9.9,52.5,8.2c9.6-0.9,19.2-3.1,28.5-6.6c0.1,0,0.2-0.1,0.2-0.1c0.2-0.1,0.5-0.2,0.7-0.3
					c27-10.5,48.3-31,59.9-57.5c1.5-3.4,2.8-6.9,4-10.4c7.7-23.7,6.9-49.1-2.2-72.6c-10.5-27-31-48.3-57.5-59.9
					c-26.5-11.6-56-12.3-83-1.7c-27,10.5-48.3,31-59.9,57.5c-1.5,3.4-2.8,6.8-3.9,10.3c-4.9,15.1-6.4,31.1-4.4,46.9
					c0.1,1,0,1.9-0.3,2.8c-0.7,2.3-2.8,4.1-5.3,4.4c-3.5,0.4-6.8-2-7.2-5.6c-2.2-17.6-0.5-35.6,4.9-52.5c1.3-3.9,2.7-7.8,4.4-11.5
					c13-29.7,36.9-52.5,67.1-64.3c30.2-11.8,63.2-11.1,92.9,1.9c29.7,13,52.5,36.8,64.3,67.1c10.3,26.3,11.1,54.7,2.5,81.2
					c-1.3,3.9-2.8,7.8-4.4,11.7C837.1,1288.4,772.4,1316.6,713.9,1297.7z"/>
			</g>
		</g>
	</g>
	<g>
		<path class="st3" d="M2832.9,613.9c-2.4-11.2-19.8-11.3-25.2-0.1c-54.8,113.5-166.5,428.7,63.3,779.8
			c288.4,440.4,255.5,666.1,163.2,837.7c0,0,171.3-140.8,211.6-373C3344.6,1288.1,2875.2,813.9,2832.9,613.9z"/>
		<path class="st4" d="M2834.7,792.9c13.6,57.7,28.5,115,45.7,171.5c16.9,56.6,35.8,112.5,56.6,167.6c21.1,55,43.3,109.5,68.2,162.8
			c24.6,53.4,51.8,105.6,79.3,157.8c27.2,52.4,54.9,105,76.5,161c21.6,55.8,35.8,115.7,37.3,177.4c0.3,15.4,0.4,30.9-0.6,46.3
			c-0.7,15.4-2.1,30.9-3.8,46.4c-3.6,31-9.4,62-17.8,92.8c-16.8,61.5-43.6,121.7-77.9,178c-3.6,5.9-11.5,8.6-17.6,6
			c-6-2.6-8.1-9.3-4.8-15.2l0,0c7.9-13.9,15.7-27.8,22.8-41.9c3.7-7,7-14.1,10.4-21.2c3.2-7.2,6.7-14.2,9.6-21.5
			c12.3-28.7,22.4-58,30.2-87.5c15.9-59,22.3-119.5,21.1-178.4c-1-29.4-4.4-58.5-10.3-87c-5.9-28.5-14.3-56.3-24.5-83.6
			c-20.4-54.5-47.4-106.9-74.1-159.5c-26.7-52.7-53.1-105.8-76.9-160.1c-12-27.1-23.4-54.5-34.3-82c-5.5-13.8-10.7-27.6-16-41.5
			c-5.1-13.9-10.1-27.9-14.9-41.9c-19.3-56.1-36.7-112.8-52-170.2c-15-57.5-28.2-115.5-39-174.2c-0.3-1.7,1-3.4,2.9-3.9
			C2832.6,790.4,2834.3,791.4,2834.7,792.9z"/>
	</g>
	<g>
		<g>
			<path class="st2" d="M2876.1,1502.6c14.4,9.8,34.2,1.8,37.8-15.2c20.1-94.1,52.9-365.2-155.3-623.9
				c-175.8-218.5-250.4-353.6-280-417.3c-6.3-13.5-26.1-11.1-29,3.4C2416.9,610.1,2354.8,1145.7,2876.1,1502.6z"/>
			<path class="st4" d="M2895.4,1488.9c0.4,0,0.9-0.1,1.3-0.2c3.7-0.9,5.9-4.5,5.1-8.2c-1-4.1-99.8-418.5-330.5-733.3
				c-2.2-3-6.5-3.7-9.5-1.5c-3,2.2-3.7,6.5-1.5,9.5c229.1,312.5,327.3,724.3,328.3,728.4C2889.2,1486.9,2892.2,1489,2895.4,1488.9z"
				/>
		</g>
	</g>
	<linearGradient id="SVGID_2_" gradientUnits="userSpaceOnUse" x1="1182.1687" y1="1406.9741" x2="325.9323" y2="3288.4148">
		<stop  offset="0" style="stop-color:#FDF53F"/>
		<stop  offset="1" style="stop-color:#D93C65"/>
	</linearGradient>
	<circle class="st5" cx="956.6" cy="1902.6" r="242.2"/>
	<g>
		<g>
			<g>
				<linearGradient id="SVGID_3_" gradientUnits="userSpaceOnUse" x1="1516.6725" y1="2858.8884" x2="2153.9399" y2="947.0801">
					<stop  offset="0" style="stop-color:#09005D"/>
					<stop  offset="1" style="stop-color:#1A0F91"/>
				</linearGradient>
				<path class="st6" d="M3154.3,2930.6c0,27.5-22.3,50-49.6,50H421.4c-27.3,0-49.6-22.5-49.6-50l-22.3-1555.1
					c0-27.5,32.1-81.2,91-77.1l2622.4-68.4c34.2-0.9,67.4,12.4,91.6,36.8c24.2,24.4,37.5,57.7,36.7,92.2L3154.3,2930.6z"/>
				<g class="st7">
					<path class="st3" d="M466.9,2208.5c-1.9,0-3.4-1.5-3.4-3.4l-1.7-114.5c0-1.9,1.5-3.4,3.4-3.5c0,0,0,0,0.1,0
						c1.9,0,3.4,1.5,3.4,3.4l1.7,114.5C470.4,2206.9,468.9,2208.4,466.9,2208.5C467,2208.5,467,2208.5,466.9,2208.5z"/>
					<path class="st3" d="M462.9,1927.9c-1.9,0-3.4-1.5-3.4-3.4L453,1486c0.1-29.3,9.1-52.7,26.7-69.5
						c31.8-30.4,81.2-28.9,83.3-28.8l802.6-21.7c2-0.1,3.5,1.4,3.5,3.3c0.1,1.9-1.4,3.5-3.3,3.5l-802.8,21.7
						c-2.2-0.1-48.9-1.5-78.6,26.9c-16.2,15.5-24.5,37.3-24.6,64.6l6.4,438.4C466.3,1926.3,464.8,1927.9,462.9,1927.9
						C462.9,1927.9,462.9,1927.9,462.9,1927.9z"/>
				</g>
				<path class="st8" d="M552.5,2804.3c2.7-116.7,1.7-1149.9-4.9-1239.1c-6.6-89.2,131.2-106,342.8-116
					c211.6-10,1996.8-49.8,2042.7-53.6c103.3-8.4,124.7,147.3,114.4,485.4c-7.8,254-20.6,672.4-26.6,864.9
					c-1.8,57.3-48.2,102.8-105,102.9c-429.6,1.2-2076.1,5.9-2185.7,9.2C603.9,2861.8,551.4,2850.6,552.5,2804.3z"/>
			</g>
			<g>
				<path class="st3" d="M571,1612.8l28.6,1172.9c0.9,38.4,29.1,69,63.1,68.7l461.5-4.1c34.2-0.3,61.6-31.6,61.5-70.2l-5.2-1191.4
					c-0.2-40-29.8-71.9-65.2-70.2L630.4,1541C596.5,1542.6,570.1,1574.5,571,1612.8z"/>
				<path class="st2" d="M1243.8,1597.6l23.3,1188.4c0.8,38.6,29,69.5,63.3,69.1l1640.9-19.9c34.6-0.4,62.1-32.6,61.3-71.6
					l-26.7-1195.6c-0.9-38.7-29.3-69.4-63.5-68.9l-1637.4,27.2C1270.4,1526.7,1243.1,1558.7,1243.8,1597.6z"/>
			</g>
		</g>
		<path class="st3" d="M2983.2,2774.4H1473.1c-22.6,0-41.1-18.5-41.1-41.1v-348.5c0-22.6,18.5-41.1,41.1-41.1h1510.1
			c22.6,0,41.1,18.5,41.1,41.1v348.5C3024.3,2755.9,3005.8,2774.4,2983.2,2774.4z"/>
		<path class="st3" d="M1891.4,2283.4h-417.5c-22.6,0-41.1-18.5-41.1-41.1v-617.1c0-22.6,18.5-41.1,41.1-41.1h417.5
			c22.6,0,41.1,18.5,41.1,41.1v617.1C1932.5,2264.9,1914,2283.4,1891.4,2283.4z"/>
		<path class="st3" d="M2446.7,2287.7h-417.5c-22.6,0-41.1-18.5-41.1-41.1v-617.1c0-22.6,18.5-41.1,41.1-41.1h417.5
			c22.6,0,41.1,18.5,41.1,41.1v617.1C2487.8,2269.2,2469.3,2287.7,2446.7,2287.7z"/>
		<path class="st3" d="M2991.7,2293.6h-417.5c-22.6,0-41.1-18.5-41.1-41.1v-617.1c0-22.6,18.5-41.1,41.1-41.1h417.5
			c22.6,0,41.1,18.5,41.1,41.1v617.1C3032.8,2275.1,3014.3,2293.6,2991.7,2293.6z"/>
		<g>
			<defs>
				<circle id="SVGID_4_" cx="966.6" cy="1836.9" r="252.1"/>
			</defs>
			<use xlink:href="#SVGID_4_"  style="overflow:visible;fill:#91B3FA;"/>
			<clipPath id="SVGID_5_">
				<use xlink:href="#SVGID_4_"  style="overflow:visible;"/>
			</clipPath>
			<g class="st9">
				<linearGradient id="SVGID_6_" gradientUnits="userSpaceOnUse" x1="968.0446" y1="1617.7643" x2="942.1516" y2="2036.032">
					<stop  offset="0" style="stop-color:#09005D"/>
					<stop  offset="1" style="stop-color:#1A0F91"/>
				</linearGradient>
				<path class="st10" d="M908.3,1768.9c-15,0-30.6,1.9-36.4-16.2c-11.1-34,7.5-84.9,38-103.4c10.2-6.2,22.1-8.9,33.8-11.3
					c13.7-2.8,25.6-3.4,38,3.2c11.4,6.2,22.5-3.7,34.4,4.2c10.1,6.7,17.8,17.3,23.2,28c7,13.9,10.7,29.3,13.8,44.6
					c0.7,3.5,1.4,7.1,0.6,10.5c-0.6,2.9-2.3,5.5-3.9,8c-12.3,19-28.7,32.4-52.3,32.4C997.3,1768.9,908.7,1768.9,908.3,1768.9z"/>
				<linearGradient id="SVGID_7_" gradientUnits="userSpaceOnUse" x1="877.444" y1="1612.1558" x2="851.5511" y2="2030.4214">
					<stop  offset="0" style="stop-color:#09005D"/>
					<stop  offset="1" style="stop-color:#1A0F91"/>
				</linearGradient>
				<path class="st11" d="M905.3,1709c0,0,2.7,5.7-15,14.6c-9.8,4.9-29,12.3-31.5,33.6c-1.3,11-5.6,38.3-16.1,40
					c-26.1,4.2-61.4,20.5-64.7,52.2c-3.8,36.4,6.7,55.5,25.2,60.3c13.6,3.5,17.1,7.2,14.3,21.5c-2.6,13.8,7.8,63.3,30.7,75.9
					c51.2,28.3,95.8-100.5,95.8-100.5l10.5-166.3L905.3,1709z"/>
				<linearGradient id="SVGID_8_" gradientUnits="userSpaceOnUse" x1="1072.3767" y1="1624.2229" x2="1046.4838" y2="2042.4895">
					<stop  offset="0" style="stop-color:#09005D"/>
					<stop  offset="1" style="stop-color:#1A0F91"/>
				</linearGradient>
				<path class="st12" d="M1022.4,1694.5c0,0-2.8,6,15.2,15.4c10,5.2,29.5,13,32.1,35.6c1.3,11.7,4.4,28.1,15.1,29.9
					c26.6,4.4,57.5,30.4,64,80.7c5,38.4-5.9,79.6-24.8,84.7c-13.9,3.7-12.8-3.6-10,11.6c2.7,14.6-3.6,9-26.9,22.3
					c-52.1,30-104.1-71-104.1-71l-10.7-176.2L1022.4,1694.5z"/>
				<linearGradient id="SVGID_9_" gradientUnits="userSpaceOnUse" x1="1021.7363" y1="1840.0341" x2="985.6562" y2="1882.1276">
					<stop  offset="0" style="stop-color:#CB236D"/>
					<stop  offset="1" style="stop-color:#4C246D"/>
				</linearGradient>
				<path class="st13" d="M952.8,1879.1c0,0,39.5-10.2,47.9,2.4c4.2,21,6.4,41.8,6.4,41.8l-45.6,8.6l-30.1-6.9l-7.2-4.2l-3-29.7
					C921.2,1891.1,936.6,1882.2,952.8,1879.1z"/>
				<linearGradient id="SVGID_10_" gradientUnits="userSpaceOnUse" x1="900.8911" y1="1768.8427" x2="969.0038" y2="1551.3604">
					<stop  offset="0" style="stop-color:#FEBBBA"/>
					<stop  offset="1" style="stop-color:#FF928E"/>
				</linearGradient>
				<path class="st14" d="M905.3,1773.4c0,0-6.4-19.1-15.9-12.7c-9.5,6.4,14.3,46.9,14.3,46.9L905.3,1773.4z"/>
				<linearGradient id="SVGID_11_" gradientUnits="userSpaceOnUse" x1="1001.4785" y1="1800.3453" x2="1069.5913" y2="1582.863">
					<stop  offset="0" style="stop-color:#FEBBBA"/>
					<stop  offset="1" style="stop-color:#FF928E"/>
				</linearGradient>
				<path class="st15" d="M1000.7,1773.4c0,0,0-28.6,15.9-12.7c15.9,15.9-15.9,38.2-15.9,38.2V1773.4z"/>
				<path class="st16" d="M1150.5,2033.3c-13.3-64.3-32.4-114.5-38.5-117.4l-36.1,89.3c0,0-7.3,26.6-6.7,59.7h55.5
					C1141.4,2064.9,1153.8,2049.6,1150.5,2033.3z"/>
				<path class="st16" d="M872.6,2064.9c1.7-28.7,0.9-46.8,0.9-46.8l-50.9-82.6c0,0-6.4,25.3-12.7,92.1c-0.3,3.1-0.6,6.3-0.8,9.5
					c-1.3,15,10.6,27.8,25.6,27.8H872.6z"/>
				<linearGradient id="SVGID_12_" gradientUnits="userSpaceOnUse" x1="955.8206" y1="1994.3887" x2="987.2232" y2="1784.2339">
					<stop  offset="0" style="stop-color:#FEBBBA"/>
					<stop  offset="1" style="stop-color:#FF928E"/>
				</linearGradient>
				<path class="st17" d="M943,2065.1h55.4l15-157.9c0,0-12.7-3.3-19.1-25.5c-6.4-22.3-9.5-66.8-9.5-66.8l-57.2,12.7
					c0,0,6.4,60.6-6.4,89.2L943,2065.1z"/>
				<linearGradient id="SVGID_13_" gradientUnits="userSpaceOnUse" x1="940.105" y1="2052.7229" x2="957.4693" y2="1936.516">
					<stop  offset="0" style="stop-color:#09005D"/>
					<stop  offset="1" style="stop-color:#1A0F91"/>
				</linearGradient>
				<path class="st18" d="M1028.2,2085l8.1-119.5c-58,34.7-117.7,33-178.2,14.6l56.2,109L1028.2,2085z"/>
				<path class="st16" d="M967.3,2107.1c-17.2-82.9-46.1-215.9-46.1-215.9l-9.5,19l-89,25.5c4.4,20.3,17.7,76.3,31.1,129.2
					L967.3,2107.1z"/>
				<path class="st16" d="M1083.8,2064.9c4.7-25.4,8.9-45.2,8.9-45.2l19.2-103.7c-6.1-6.1-101.1-19.1-101.1-19.1l-10.2-15.2
					c0,0-18.3,135.9-29.1,226.8L1083.8,2064.9z"/>
				<linearGradient id="SVGID_14_" gradientUnits="userSpaceOnUse" x1="946.9858" y1="1783.2789" x2="1015.0989" y2="1565.7953">
					<stop  offset="0" style="stop-color:#FEBBBA"/>
					<stop  offset="1" style="stop-color:#FF928E"/>
				</linearGradient>
				<path class="st19" d="M899,1728.9c0,0-3.2,76.3,6.4,89c9.5,12.7,22.3,41.3,44.5,44.5c22.3,3.2,57.2-60.4,57.2-63.6
					c0-3.2-3.2-85.9-3.2-85.9S937.1,1659,899,1728.9z"/>
				<linearGradient id="SVGID_15_" gradientUnits="userSpaceOnUse" x1="877.3943" y1="1607.2504" x2="1153.0841" y2="2046.6881">
					<stop  offset="0" style="stop-color:#09005D"/>
					<stop  offset="1" style="stop-color:#1A0F91"/>
				</linearGradient>
				<path class="st20" d="M886.3,1716.2c0,0-12.7,38.2,25.4,25.4c38.2-12.7,38.2-12.7,38.2-12.7s38.2-22.3,44.5-12.7
					c6.4,9.5,12.7,33,12.7,33s12.7-33,0-52.1C994.4,1678.1,914.9,1662.2,886.3,1716.2z"/>
			</g>
		</g>
		<path class="st4" d="M1198.8,2204H739.7c-3.8,0-6.9-3.1-6.9-6.9v-35.6c0-3.8,3.1-6.9,6.9-6.9h459.2c3.8,0,6.9,3.1,6.9,6.9v35.6
			C1205.8,2200.8,1202.6,2204,1198.8,2204z"/>
		<g>
			<path class="st4" d="M1211.8,2337H802.6c-3.8,0-6.9-3.1-6.9-6.9v-35.6c0-3.8,3.1-6.9,6.9-6.9h409.2c3.8,0,6.9,3.1,6.9,6.9v35.6
				C1218.8,2333.9,1215.6,2337,1211.8,2337z"/>
			<path class="st4" d="M1211.8,2439.3H802.6c-3.8,0-6.9-3.1-6.9-6.9v-35.6c0-3.8,3.1-6.9,6.9-6.9h409.2c3.8,0,6.9,3.1,6.9,6.9v35.6
				C1218.8,2436.2,1215.6,2439.3,1211.8,2439.3z"/>
			
				<ellipse transform="matrix(0.9265 -0.3762 0.3762 0.9265 -815.0646 449.1802)" class="st4" cx="742.5" cy="2311.4" rx="28" ry="28"/>
			
				<ellipse transform="matrix(0.1588 -0.9873 0.9873 0.1588 -1759.2836 2764.1797)" class="st4" cx="742.5" cy="2414.5" rx="28" ry="28"/>
			<path class="st4" d="M1211.8,2530.9H802.6c-3.8,0-6.9-3.1-6.9-6.9v-35.6c0-3.8,3.1-6.9,6.9-6.9h409.2c3.8,0,6.9,3.1,6.9,6.9v35.6
				C1218.8,2527.8,1215.6,2530.9,1211.8,2530.9z"/>
			
				<ellipse transform="matrix(0.1588 -0.9873 0.9873 0.1588 -1849.7518 2841.26)" class="st4" cx="742.5" cy="2506.1" rx="28" ry="28"/>
			<path class="st4" d="M1211.8,2622.4H802.6c-3.8,0-6.9-3.1-6.9-6.9v-35.6c0-3.8,3.1-6.9,6.9-6.9h409.2c3.8,0,6.9,3.1,6.9,6.9v35.6
				C1218.8,2619.3,1215.6,2622.4,1211.8,2622.4z"/>
			
				<ellipse transform="matrix(0.9265 -0.3762 0.3762 0.9265 -922.7674 470.2134)" class="st4" cx="742.5" cy="2597.7" rx="28" ry="28"/>
			<path class="st4" d="M1211.8,2714H802.6c-3.8,0-6.9-3.1-6.9-6.9v-35.6c0-3.8,3.1-6.9,6.9-6.9h409.2c3.8,0,6.9,3.1,6.9,6.9v35.6
				C1218.8,2710.8,1215.6,2714,1211.8,2714z"/>
			<circle class="st4" cx="742.5" cy="2689.2" r="28"/>
		</g>
	</g>
	<g>
		<path class="st21" d="M1378.6,1516.6l-9.6,305.6c-1,33.2,25.6,60.7,58.8,60.7h349.3c31.7,0,57.7-25.1,58.8-56.8l8.2-313.6
			c0.8-29-22.6-53-51.6-53l-348.8,0.3C1409.7,1456.3,1379.7,1482.4,1378.6,1516.6z"/>
		<g>
			<path class="st4" d="M1741.6,1823.3h-312.2c-9.1,0-17.5-5-21.7-13.1c-4.2-8.1-3.6-17.8,1.6-25.3l64.9-93.4
				c4-5.8,10.4-9.6,17.4-10.4c7-0.8,14,1.5,19.2,6.3l24.7,22.3c0.3-0.1,0.4-0.3,0.5-0.4l59.7-130.8c3.8-8.3,11.8-13.8,21-14.3
				c9.2-0.4,17.7,4.1,22.4,12l123.6,210.1c4.5,7.7,4.6,16.8,0.2,24.6S1750.5,1823.3,1741.6,1823.3z M1494.7,1705l-1,0.1l-64.9,93.4
				c-0.1,0.2-0.2,0.3,0,0.7c0.2,0.4,0.4,0.4,0.6,0.4h312.2c0.2,0,0.4,0,0.6-0.3c0.2-0.3,0.1-0.5,0-0.7l-123.6-210.1
				c-0.1-0.2-0.2-0.3-0.6-0.3c-0.4,0-0.5,0.2-0.6,0.4l-59.7,130.8c-3.2,7.1-9.7,12.3-17.4,13.8c-7.7,1.6-15.7-0.7-21.4-6
				L1494.7,1705z"/>
			<path class="st4" d="M1737.3,1632.8c-31.3,0-56.8-25.5-56.8-56.8s25.5-56.8,56.8-56.8c31.3,0,56.8,25.5,56.8,56.8
				S1768.6,1632.8,1737.3,1632.8z M1737.3,1543c-18.2,0-33,14.8-33,33c0,18.2,14.8,33,33,33c18.2,0,33-14.8,33-33
				C1770.3,1557.8,1755.5,1543,1737.3,1543z"/>
		</g>
	</g>
	<g>
		<path class="st21" d="M2061.9,1136.4v248.7c0,29.5,23.2,53.9,52.7,55.3l311,14.6c31.5,1.5,57.9-23.7,57.9-55.3v-263.3
			c0-30.6-24.8-55.3-55.3-55.3h-311C2086.6,1081.1,2061.9,1105.8,2061.9,1136.4z"/>
		<path class="st4" d="M2174.5,1393.9c-4,0-7.4,0-10.1-0.1c-4.6-0.1-8.4-3.5-8.9-8c-0.6-4.6,2.2-8.8,6.7-10.1
			c23.9-6.7,49.9-18.1,69.1-27.3c-91.4-7.5-109.7-54.4-113.2-75.9c-8.9-54.2,38.1-115.5,104.8-136.7c68.1-21.6,137-13.8,175.7,19.8
			c20.5,17.9,42.8,52.1,32.3,113.7C2411.2,1384.7,2231.4,1393.9,2174.5,1393.9z M2166.7,1391.7L2166.7,1391.7L2166.7,1391.7z
			 M2164.8,1377.2C2164.8,1377.2,2164.8,1377.2,2164.8,1377.2C2164.8,1377.2,2164.8,1377.2,2164.8,1377.2z M2296.9,1332.2l-29,16.2
			c-1.5,0.8-27,15-58,28c70.6-4.3,190-24.2,204.6-109.6c7.4-43.4-1.6-76.5-26.9-98.4c-39.1-34-108.4-32.8-159.8-16.5
			c-58.2,18.5-101,72.6-93.5,118.1c6.8,41.4,53.9,64.5,129.3,62.9L2296.9,1332.2z"/>
	</g>
	<g>
		<path class="st21" d="M2375.2,1637.2v249.3c0,29.6,23.3,54,52.9,55.4l311.8,14.6c31.6,1.5,58.1-23.8,58.1-55.4v-264
			c0-30.6-24.8-55.5-55.5-55.5h-311.8C2400,1581.8,2375.2,1606.6,2375.2,1637.2z"/>
		<g>
			<path class="st4" d="M2580.9,1884.1c-63.3,0-114.8-51.5-114.8-114.8s51.5-114.8,114.8-114.8c63.3,0,114.8,51.5,114.8,114.8
				S2644.2,1884.1,2580.9,1884.1z M2580.9,1673.7c-52.7,0-95.6,42.9-95.6,95.6c0,52.7,42.9,95.6,95.6,95.6
				c52.7,0,95.6-42.9,95.6-95.6C2676.5,1716.5,2633.6,1673.7,2580.9,1673.7z"/>
			<path class="st22" d="M2544.9,1813.5v-82.6c0-8.8,9.6-14.3,17.2-9.8l69.6,41.3c7.4,4.4,7.4,15.2,0,19.6l-69.6,41.3
				C2554.5,1827.7,2544.9,1822.3,2544.9,1813.5z"/>
		</g>
	</g>
	<g>
		<path class="st23" d="M1950.9,1833.8h-39.6V1676c0-62,46.4-114.4,107.9-121.8l81-9.8c34.8-4.2,69.9,6.7,96.2,30
			c26.3,23.3,41.4,56.8,41.4,91.9v137.8h-39.6v-137.8c0-23.8-10.2-46.5-28-62.2s-41.6-23.2-65.2-20.3l-81,9.8
			c-41.7,5.1-73.1,40.5-73.1,82.5V1833.8z"/>
		<path class="st23" d="M1899.6,1798.3l347.1-19.2c14.1-0.8,26,10.4,26,24.6v275c0,13.6-11,24.6-24.6,24.6h-338.8
			c-13.3,0-24.2-10.5-24.6-23.8l-8.3-255.8C1875.9,1810.4,1886.2,1799.1,1899.6,1798.3z"/>
		<path class="st16" d="M2131.1,2024.5l-21-60.4c-2.5-7.3-0.8-15.4,4.6-20.9c10.8-10.9,17.2-26.1,16.4-42.8
			c-1.3-29.5-25.4-53.4-54.9-54.5c-32.6-1.3-59.5,24.8-59.5,57.2c0,17.9,8.3,33.9,21.2,44.4c6.7,5.4,9.5,14.4,6.6,22.5l-18.9,54.5
			c-4.6,13.2,5.2,27.1,19.3,27.1h67C2125.9,2051.6,2135.7,2037.7,2131.1,2024.5z"/>
	</g>
	<g>
		<g>
			<rect x="2571.6" y="2814.9" class="st8" width="31.2" height="337.5"/>
			<path class="st8" d="M2723.9,3159h-273.4v-14c0-3.5,2.8-6.3,6.3-6.3h260.2c3.8,0,6.8,3.1,6.8,6.8V3159z"/>
			<path class="st8" d="M2775.6,2802.5c0,19.6-16.1,35.7-35.7,35.7H2446c-19.6,0-35.7-16.1-35.7-35.7v-32.3
				c0-19.6,16.1-35.7,35.7-35.7h293.9c19.6,0,35.7,16.1,35.7,35.7V2802.5z"/>
		</g>
		<g>
			
				<linearGradient id="SVGID_16_" gradientUnits="userSpaceOnUse" x1="851.1011" y1="3027.9211" x2="796.0023" y2="3136.2822" gradientTransform="matrix(-1 0 0 1 3188.5061 0)">
				<stop  offset="0" style="stop-color:#09005D"/>
				<stop  offset="1" style="stop-color:#1A0F91"/>
			</linearGradient>
			<path class="st24" d="M2413.4,3092.7c0,0-89.1,64.2-73.7,107.4c0,0,97.5-42.1,109.3-75.2c11.8-33.1-2-47.8-2-47.8L2413.4,3092.7z
				"/>
			
				<linearGradient id="SVGID_17_" gradientUnits="userSpaceOnUse" x1="746.3267" y1="3071.0442" x2="801.2151" y2="3071.0442" gradientTransform="matrix(-1 0 0 1 3188.5061 0)">
				<stop  offset="0" style="stop-color:#FEBBBA"/>
				<stop  offset="1" style="stop-color:#FF928E"/>
			</linearGradient>
			<path class="st25" d="M2426.8,3038.8l14.6,42.1c2.2,6.4,0,13.6-5.7,17.2c-2.8,1.8-6.7,3.5-12.1,4.7c-7.5,1.7-15.3-1.8-18.9-8.6
				l-17.4-32.8L2426.8,3038.8z"/>
			
				<linearGradient id="SVGID_18_" gradientUnits="userSpaceOnUse" x1="670.371" y1="2925.8127" x2="903.6216" y2="2598.8943" gradientTransform="matrix(-1 0 0 1 3188.5061 0)">
				<stop  offset="0" style="stop-color:#09005D"/>
				<stop  offset="1" style="stop-color:#1A0F91"/>
			</linearGradient>
			<path class="st26" d="M2568.6,2659.6c0,0-183.1,31.7-261.6,104.3c-78.5,72.5,72.1,303.9,72.1,303.9s24.7-0.2,54.6-25.8
				c0,0-89.3-174-12.3-224.8c86.5-57.1,186.2-69.9,186.2-69.9l-37.2-82.1L2568.6,2659.6z"/>
			
				<linearGradient id="SVGID_19_" gradientUnits="userSpaceOnUse" x1="819.1252" y1="3137.4817" x2="628.116" y2="3387.2625" gradientTransform="matrix(-1 0 0 1 3188.5061 0)">
				<stop  offset="0" style="stop-color:#09005D"/>
				<stop  offset="1" style="stop-color:#1A0F91"/>
			</linearGradient>
			<path class="st27" d="M2355.2,3176.2c19.6-9.1,75.1-47.9,84.5-49.6c9.4-1.7,25.6,9.3,25.6,9.3s3.9,7.1-0.3,19.5
				c-13,15.8-42,45.8-80.8,57c-28.6,8.2-48.6,0.6-61.1-8.4C2329.9,3193.5,2342.2,3182.3,2355.2,3176.2z"/>
			
				<linearGradient id="SVGID_20_" gradientUnits="userSpaceOnUse" x1="723.5339" y1="3191.5789" x2="871.1265" y2="3191.5789" gradientTransform="matrix(-1 0 0 1 3188.5061 0)">
				<stop  offset="0" style="stop-color:#53D8FF"/>
				<stop  offset="1" style="stop-color:#3840F7"/>
			</linearGradient>
			<path class="st28" d="M2384.1,3212.3c38.9-11.2,67.8-41.2,80.8-57c-2.9,8.4-9.4,19.1-23.5,31.8c-34.9,31.3-101.4,42.6-115.6,40.5
				c-11.4-1.7-10.3-12.2-2.8-23.6C2335.5,3212.9,2355.5,3220.6,2384.1,3212.3z"/>
			
				<linearGradient id="SVGID_21_" gradientUnits="userSpaceOnUse" x1="706.6358" y1="3121.6978" x2="758.1499" y2="3121.6978" gradientTransform="matrix(-1 0 0 1 3188.5061 0)">
				<stop  offset="0" style="stop-color:#FEBBBA"/>
				<stop  offset="1" style="stop-color:#FF928E"/>
			</linearGradient>
			<path class="st29" d="M2481.9,3108.4c-0.2,5.4-11.3,23.9-17.7,34.3c-3.1,4.9-8.4,8-14.3,8c-3.7,0-7.9-0.3-11.8-1.4
				c-5.8-1.7-9-7.8-7.3-13.6l12.6-43L2481.9,3108.4z"/>
			
				<linearGradient id="SVGID_22_" gradientUnits="userSpaceOnUse" x1="586.2982" y1="3088.7202" x2="599.1547" y2="2651.6035" gradientTransform="matrix(-1 0 0 1 3188.5061 0)">
				<stop  offset="0" style="stop-color:#09005D"/>
				<stop  offset="1" style="stop-color:#1A0F91"/>
			</linearGradient>
			<path class="st30" d="M2744.8,2604.7c0,0,40.7,108.7,0,141.8c-40.7,33.1-137.6,70.3-159.3,136.1
				c-21.7,65.8-58.4,193.8-107.6,239.1c0,0-34.6-3.3-47.5-17.1c0,0,28-191,46.5-240.1c16-42.4,39.6-103.7,84.8-138
				c12.9-9.8,10.7-25.3,4.7-40.4l-10.9-27.5L2744.8,2604.7z"/>
			
				<linearGradient id="SVGID_23_" gradientUnits="userSpaceOnUse" x1="2546.2205" y1="765.0412" x2="3072.137" y2="235.3405" gradientTransform="matrix(-1 0 0 1 3188.5061 0)">
				<stop  offset="0" style="stop-color:#09005D"/>
				<stop  offset="1" style="stop-color:#1A0F91"/>
			</linearGradient>
			<path class="st31" d="M2320.8,2519.5c68.2,4.1,46.9-104.8,45.7-109.1l103.5,73.1c0,0-5.5,58.2-91.5,88.8
				c-21.8,7.7-41.7,8.1-59.2,4.3C2326.7,2554.6,2325.2,2535,2320.8,2519.5z"/>
			
				<linearGradient id="SVGID_24_" gradientUnits="userSpaceOnUse" x1="864.0414" y1="2527.6572" x2="1043.7399" y2="2527.6572" gradientTransform="matrix(-1 0 0 1 3188.5061 0)">
				<stop  offset="0" style="stop-color:#FEBBBA"/>
				<stop  offset="1" style="stop-color:#FF928E"/>
			</linearGradient>
			<path class="st32" d="M2189,2486.7c25.4-17.7,54.2,0,54.2,0c34,22.2,59.1,31.7,77.6,32.8c4.4,15.5,5.9,35.2-1.6,57
				c-38.1-8.2-65.3-35.7-77.1-49.8c-4.3-5.1-11.8-6-17-1.9c-5.3,4.2-10.4,9.9-9.5,15.9c1.8,11.9-11.9,15.6-13,11.3
				c-1-4.3,4.7-29.8,4.7-29.8s-27.5,27.7-38.3,38.3c-10.8,10.6-24.3,0-24.3,0S2163.6,2504.3,2189,2486.7z"/>
			
				<linearGradient id="SVGID_25_" gradientUnits="userSpaceOnUse" x1="781.1608" y1="2312.4531" x2="377.1039" y2="2606.313" gradientTransform="matrix(-1 0 0 1 3188.5061 0)">
				<stop  offset="0" style="stop-color:#09005D"/>
				<stop  offset="1" style="stop-color:#1A0F91"/>
			</linearGradient>
			<path class="st33" d="M2638.7,2242.1c0,0-99.2-39.7-283.7,112.7c0,0-15.4,31.9,1.4,60.3c16.8,28.4,177.1,166.8,199.1,243.5
				c0,0,95.5,31,194.2-42.5C2749.6,2616.1,2740.9,2402.5,2638.7,2242.1z"/>
			
				<linearGradient id="SVGID_26_" gradientUnits="userSpaceOnUse" x1="723.2159" y1="2232.7788" x2="319.1584" y2="2526.6389" gradientTransform="matrix(-1 0 0 1 3188.5061 0)">
				<stop  offset="0" style="stop-color:#09005D"/>
				<stop  offset="1" style="stop-color:#1A0F91"/>
			</linearGradient>
			<path class="st34" d="M2715.4,2495.6c11.5-46.9-105.1-151.4-105.1-151.4l28.3-102.1c0,0,251.8,167.6,187.6,302.4
				c-9.2,19.3-21.4,32.9-35.6,41.9C2770.4,2531.9,2738.1,2506.9,2715.4,2495.6z"/>
			<linearGradient id="SVGID_27_" gradientUnits="userSpaceOnUse" x1="3317.8887" y1="1151.3378" x2="2839.0044" y2="2071.9131">
				<stop  offset="0" style="stop-color:#09005D"/>
				<stop  offset="1" style="stop-color:#1A0F91"/>
			</linearGradient>
			<path class="st35" d="M2715.5,2488.8c1.2,0,2.4-0.8,2.7-2.1c11.8-47.9-101.1-149.8-105.9-154.1c-1.1-1-2.9-0.9-3.9,0.2
				c-1,1.1-0.9,2.9,0.2,3.9c1.2,1,115.3,104,104.3,148.7c-0.4,1.5,0.5,3,2,3.3C2715.1,2488.8,2715.3,2488.8,2715.5,2488.8z"/>
			
				<linearGradient id="SVGID_28_" gradientUnits="userSpaceOnUse" x1="611.2778" y1="2529.8203" x2="154.8102" y2="3323.0266" gradientTransform="matrix(-1 0 0 1 3188.5061 0)">
				<stop  offset="0" style="stop-color:#FEBBBA"/>
				<stop  offset="1" style="stop-color:#FF928E"/>
			</linearGradient>
			<path class="st36" d="M2538.8,2491.6c0,0,138.3,53.7,172,13.3c2.3-2.7,3.8-5.9,4.6-9.3c22.7,11.3,55,36.3,75.3,90.9
				c-72.7,46.5-197-25.8-230.6-47.2c-5.5-3.5-12.2-4.7-18.6-3.4c-13,2.7-35.4,6.6-47.4,4.8c-17.7-2.7-43,59.6-71.7,40.4
				C2422.4,2581.1,2446.9,2472.7,2538.8,2491.6z"/>
			<linearGradient id="SVGID_29_" gradientUnits="userSpaceOnUse" x1="3652.8738" y1="21.8513" x2="2788.2666" y2="1683.9147">
				<stop  offset="0" style="stop-color:#09005D"/>
				<stop  offset="1" style="stop-color:#1A0F91"/>
			</linearGradient>
			<path class="st37" d="M2406,2291c-18.8,15.7-27.9,28.9-25.8,49.8c34.7,18.6,77.9,23.4,125.9,20.8c25.3-31.9,47.6-77.2,44.2-116.8
				c-9.4-11.5-49.7-13.6-76.8-2.7L2406,2291z"/>
			
				<linearGradient id="SVGID_30_" gradientUnits="userSpaceOnUse" x1="695.993" y1="2255.6277" x2="811.8106" y2="2255.6277" gradientTransform="matrix(-1 0 0 1 3188.5061 0)">
				<stop  offset="0" style="stop-color:#FEBBBA"/>
				<stop  offset="1" style="stop-color:#FF928E"/>
			</linearGradient>
			<path class="st38" d="M2430.4,2188.6l61.1,77.3c4.8,5.9-7.8,39.3-11.1,46.1c-6.8,13.8,1.3,11.2-34.4,8.4
				c-10.6-0.8-30.5-9.7-35.1-19.3l-34.1-70.6L2430.4,2188.6z"/>
			<g>
				
					<linearGradient id="SVGID_31_" gradientUnits="userSpaceOnUse" x1="1080.438" y1="596.6362" x2="931.3893" y2="793.8155" gradientTransform="matrix(-0.9683 -0.2499 -0.2499 0.9683 3559.759 1820.1976)">
					<stop  offset="0" style="stop-color:#FEBBBA"/>
					<stop  offset="1" style="stop-color:#FF928E"/>
				</linearGradient>
				<path class="st39" d="M2336.4,2119.8c-0.5,1.9,11.4,131.3,11.4,131.3l73.7-8.4l6.9-124.3
					C2428.4,2118.4,2344.6,2087.9,2336.4,2119.8z"/>
				
					<linearGradient id="SVGID_32_" gradientUnits="userSpaceOnUse" x1="966.6054" y1="644.201" x2="1144.645" y2="644.201" gradientTransform="matrix(-0.9683 -0.2499 -0.2499 0.9683 3559.759 1820.1976)">
					<stop  offset="0" style="stop-color:#09005D"/>
					<stop  offset="1" style="stop-color:#1A0F91"/>
				</linearGradient>
				<path class="st40" d="M2409.2,2144.1l1.5,65.7c0,0.8-0.1,1.7-0.3,2.5c-1.3,5-7,21.9-23.9,15c-15.3-6.2-29.4-11.7-39.8-9.7
					c-4.7,0.9-7.9,5.1-7.4,9.9c1.1,11.8,4,38.2,10.1,60.8c1.2,4.6,5.8,7.4,10.5,6.6c14.1-2.5,43.6-8.5,66.3-19
					c3.1-1.4,5.1-4.4,5.3-7.7c1.1-16.4,4.6-66.3,7.8-80.1c2.9-12.9,19.9-19,27.1-21c2.4-0.7,4.4-2.3,5.5-4.5
					c4.1-7.7,10.6-26-12.1-36.2c-4.8-2.1-6.8-7.8-4.5-12.5c4.6-9.3,7.7-24-9.7-34.2c-17.6-10.4-32.6-2-41,5.2
					c-3.4,2.9-8.3,2.9-11.8,0.1c-2-1.6-4.7-2.3-8.2-0.6c-4.8,2.3-10.5-0.3-12.3-5.3c-3.4-9.6-11.4-20.4-29.9-19.3
					c-32.8,2-40.4,37.3-34.2,59.2c6.2,21.9,41.7,17.7,60.2,9c14.1-6.6,30.3,3.7,37.2,9C2407.9,2138.8,2409.2,2141.4,2409.2,2144.1z"
					/>
				
					<linearGradient id="SVGID_33_" gradientUnits="userSpaceOnUse" x1="862.1418" y1="752.7878" x2="981.6893" y2="630.1353" gradientTransform="matrix(-0.9683 -0.2499 -0.2499 0.9683 3559.759 1820.1976)">
					<stop  offset="0" style="stop-color:#FEBBBA"/>
					<stop  offset="1" style="stop-color:#FF928E"/>
				</linearGradient>
				<path class="st41" d="M2439.6,2212c0,0-9.2-38.6,5.4-46.2c14.6-7.6,34.3-0.7,26.9,25.7C2462.7,2224.4,2439.6,2212,2439.6,2212z"
					/>
			</g>
		</g>
		<g>
			
				<linearGradient id="SVGID_34_" gradientUnits="userSpaceOnUse" x1="12902.3594" y1="3216.6318" x2="12668.6309" y2="3280.6907" gradientTransform="matrix(0.9988 -4.940000e-02 4.940000e-02 0.9988 -10528.5889 -55.0328)">
				<stop  offset="0" style="stop-color:#09005D"/>
				<stop  offset="1" style="stop-color:#1A0F91"/>
			</linearGradient>
			<path class="st42" d="M2468,2597.4c-0.2,0-0.4,0-0.7,0l-290.1-0.3c-7.2,0-13-5.8-13-13c0-7.2,5.8-13.1,13-13l290.1,0.3
				c7.2,0,13,5.8,13,13C2480.3,2591.4,2474.8,2597.1,2468,2597.4z"/>
			
				<linearGradient id="SVGID_35_" gradientUnits="userSpaceOnUse" x1="12687.9688" y1="2369.3721" x2="12522.1279" y2="2544.6555" gradientTransform="matrix(1 0 0 1 -10487.1201 0)">
				<stop  offset="0" style="stop-color:#09005D"/>
				<stop  offset="1" style="stop-color:#1A0F91"/>
			</linearGradient>
			<path class="st43" d="M1916.4,2334.1H2158c17.8,0,34,10.3,41.6,26.4l111.7,236.8h-300.2c-11.5,0-21.8-7-26-17.7l-86.6-219.1
				C1893.5,2347.8,1902.8,2334.1,1916.4,2334.1z"/>
			<path class="st16" d="M2140.9,2544.4l-35.4-74.9c17.3-14.3,23.4-39,13.4-60.2c-11.9-25.1-41.9-35.8-67-24
				c-25.1,11.9-35.8,41.9-24,67c10.5,22.2,35.2,33.2,58.1,27.2l10.1,21.4l-11.4,5.4c-4.3,2-6.1,7.1-4.1,11.4l0.1,0.3
				c2,4.3,7.1,6.1,11.4,4.1l11.4-5.4l9.3,19.8l-17.7,8.3c-4.3,2-6.1,7.1-4.1,11.4l0.1,0.3c2,4.3,7.1,6.1,11.4,4.1l17.7-8.3l0.7,1.5
				c2.6,5.4,9,7.7,14.4,5.2l0.2-0.1C2141.1,2556.3,2143.4,2549.8,2140.9,2544.4z M2045.3,2444c-7.3-15.5-0.7-34,14.8-41.3
				c15.5-7.3,34-0.7,41.3,14.8c7.3,15.5,0.7,34-14.8,41.3C2071.1,2466.1,2052.6,2459.5,2045.3,2444z"/>
		</g>
		<g>
			<g>
				<path class="st8" d="M1955.6,3219.6c-1.6,0-3.2-0.3-4.8-1c-6.2-2.6-9-9.5-6.4-15.5l255.7-575.4c2.7-6,9.8-8.7,16-6.2
					c6.2,2.6,9,9.5,6.4,15.5l-255.7,575.4C1964.8,3217,1960.3,3219.6,1955.6,3219.6z"/>
				<path class="st8" d="M2243.6,3219.6c-4.7,0-9.2-2.7-11.2-7.1l-255.7-575.4c-2.7-6,0.2-12.9,6.4-15.5c6.2-2.6,13.4,0.2,16,6.2
					l255.7,575.4c2.7,6-0.2,12.9-6.4,15.5C2246.9,3219.3,2245.2,3219.6,2243.6,3219.6z"/>
				<path class="st8" d="M2747,3219.6c-1.6,0-3.2-0.3-4.8-1c-6.2-2.6-9-9.5-6.4-15.5l255.7-575.4c2.7-6,9.8-8.7,16-6.2
					c6.2,2.6,9,9.5,6.4,15.5l-255.7,575.4C2756.2,3217,2751.7,3219.6,2747,3219.6z"/>
				<path class="st8" d="M3035,3219.6c-4.7,0-9.2-2.7-11.2-7.1l-255.7-575.4c-2.7-6,0.2-12.9,6.4-15.5c6.2-2.6,13.4,0.2,16,6.2
					l255.7,575.4c2.7,6-0.2,12.9-6.4,15.5C3038.2,3219.3,3036.6,3219.6,3035,3219.6z"/>
			</g>
			<path class="st8" d="M3065,2610c0.7-3.8-0.2-7.7-2.4-10.6c-2.2-3-5.4-4.7-8.9-4.7H1890.6c-4.5,0-8.7,2.6-11.2,6.8
				c-2.4,4.3-2.8,9.6-0.9,14.2l12.6,30.5c2.9,7,9.1,11.5,16,11.5h1138.5c6.4,0,11.9-5.1,13.1-12.1L3065,2610z"/>
		</g>
	</g>
</g>
</svg>
