<?xml version="1.0" encoding="utf-8"?>
<!-- Generator: Adobe Illustrator 23.0.2, SVG Export Plug-In . SVG Version: 6.00 Build 0)  -->
<svg version="1.1" id="OBJECTS" xmlns="http://www.w3.org/2000/svg" xmlns:xlink="http://www.w3.org/1999/xlink" x="0px" y="0px"
	 viewBox="0 0 500 500" style="enable-background:new 0 0 500 500;" xml:space="preserve">
<style type="text/css">
	.st0{opacity:0.15;}
	.st1{filter:url(#Adobe_OpacityMaskFilter);}
	.st2{mask:url(#SVGID_1_);}
	.st3{enable-background:new    ;}
	.st4{fill:url(#SVGID_2_);}
	.st5{fill:#B3B3B3;}
	.st6{fill:#E0DBD8;}
	.st7{fill:#666666;}
	.st8{fill:#B3B0AD;}
	.st9{fill:#716F6D;}
	.st10{clip-path:url(#SVGID_4_);enable-background:new    ;}
	.st11{fill:#6E6C6A;}
	.st12{fill:#696765;}
	.st13{fill:#3F3F3D;}
	.st14{fill:#9EE4FA;}
	.st15{fill:#FAFAFA;}
	.st16{fill:#129FC5;}
	.st17{fill:#03FF68;}
	.st18{fill:#FCF04C;}
	.st19{fill:#FF0D5E;}
	.st20{fill:#FFFFFF;}
	.st21{fill:#CDCFD0;}
	.st22{opacity:0.2;fill:url(#SVGID_5_);}
	.st23{fill:#BDB9B6;}
	.st24{clip-path:url(#SVGID_7_);enable-background:new    ;}
	.st25{fill:#0C6B85;}
	.st26{fill:#2C2B2A;}
	.st27{fill:#474644;}
	.st28{fill:#A9A6A3;}
	.st29{clip-path:url(#SVGID_9_);enable-background:new    ;}
	.st30{fill:#AAA6A3;}
	.st31{fill:#A5A29F;}
	.st32{fill:#A19E9B;}
	.st33{fill:#9D9A97;}
	.st34{fill:#999693;}
	.st35{fill:#94928F;}
	.st36{fill:#908D8B;}
	.st37{fill:#8C8987;}
	.st38{fill:#888583;}
	.st39{fill:#83817E;}
	.st40{fill:#B6B3B0;}
	.st41{clip-path:url(#SVGID_11_);enable-background:new    ;}
	.st42{fill:#72706E;}
	.st43{fill:#777472;}
	.st44{fill:#7B7976;}
	.st45{fill:#7F7D7A;}
	.st46{fill:#717070;}
	.st47{fill:#AAA9A6;}
	.st48{fill:#767676;}
	.st49{fill:#A19F9C;}
	.st50{filter:url(#Adobe_OpacityMaskFilter_1_);}
	.st51{mask:url(#SVGID_12_);}
	.st52{fill:#5C5A59;}
	.st53{fill:url(#SVGID_13_);}
	.st54{fill:#787574;}
	.st55{fill:#3D3C3A;}
	.st56{fill:#69B6FA;}
	.st57{fill:#31312F;}
	.st58{fill:#222221;}
	.st59{fill:#363635;}
	.st60{fill:#484846;}
	.st61{opacity:0.1;}
	.st62{fill:#0C657D;}
	.st63{fill:#0A5266;}
	.st64{fill:#FFE4A2;}
	.st65{opacity:0.3;}
	.st66{fill:#0F84A3;}
	.st67{fill:#CF0B4C;}
	.st68{opacity:0.2;}
	.st69{fill:#2D4254;}
	.st70{fill:#EBC490;}
	.st71{fill:#52524F;}
	.st72{fill:#D9A982;}
	.st73{fill:#383836;}
	.st74{opacity:0.2;fill:#FFFFFF;}
	.st75{opacity:0.7;fill:#FFFFFF;}
	.st76{fill:#D14343;}
	.st77{fill:#EB4C4C;}
	.st78{fill:#FFC79E;}
	.st79{fill:#00FFF2;}
	.st80{fill:#C20948;}
	.st81{fill:#F20757;}
	.st82{fill:#E03F75;}
	.st83{fill:#7A7A7A;}
	.st84{fill:#4E7291;}
	.st85{fill:#DBDBDB;}
	.st86{fill:#808080;}
	.st87{fill:#A3A3A3;}
	.st88{clip-path:url(#SVGID_15_);enable-background:new    ;}
	.st89{fill:#ADADAD;}
	.st90{fill:#A8A8A8;}
	.st91{fill:#9E9E9E;}
	.st92{fill:#999999;}
	.st93{fill:#970738;}
	.st94{fill:#BDBDBD;}
	.st95{fill:#888888;}
</style>
<g>
	<g>
		<g class="st0">
			<defs>
				<filter id="Adobe_OpacityMaskFilter" filterUnits="userSpaceOnUse" x="128" y="329.7" width="121" height="68.7">
					<feFlood  style="flood-color:white;flood-opacity:1" result="back"/>
					<feBlend  in="SourceGraphic" in2="back" mode="normal"/>
				</filter>
			</defs>
			<mask maskUnits="userSpaceOnUse" x="128" y="329.7" width="121" height="68.7" id="SVGID_1_">
				<g class="st1">
					<image style="overflow:visible;" width="127" height="74" xlink:href="AAE4CF69.jpg"  transform="matrix(1 0 0 1 125 327)">
					</image>
				</g>
			</mask>
			<g class="st2">
				<polygon points="128,372.2 175.1,398.5 249,356 201.9,329.7 				"/>
			</g>
		</g>
		<g>
			<g class="st3">
				<linearGradient id="SVGID_2_" gradientUnits="userSpaceOnUse" x1="173.1071" y1="334.6481" x2="186.5639" y2="356.9287">
					<stop  offset="1.785710e-02" style="stop-color:#666666"/>
					<stop  offset="1" style="stop-color:#B3B3B3"/>
				</linearGradient>
				<path class="st4" d="M147.5,342.5l55.3-32.5c-2.2,3.8-0.8,9.8,1.8,16c2.6,6.2,7,11.6,11.9,14.5l-59.9,34.8
					c-4.9-2.8-9.4-8.3-11.9-14.5C142.1,354.5,145.4,346.3,147.5,342.5z"/>
				<g>
					<polygon class="st5" points="156.6,375.3 216.5,340.5 238.7,356.7 178.8,391.5 					"/>
				</g>
				<g>
					<polygon class="st6" points="178.8,391.5 238.7,356.7 238.7,358.5 178.8,393.4 					"/>
				</g>
				<g>
					<polygon class="st7" points="172.1,303.3 216.5,280 202.9,310 147.5,342.5 					"/>
				</g>
				<g>
					<polygon class="st8" points="168,298.6 212.4,275.3 216.5,280 172.1,303.3 					"/>
				</g>
				<g>
					<path class="st9" d="M168,298.6l4.1,4.7l-24.5,39.2c-2.2,3.8-3.2,10.6-1.6,17.2c1.6,6.9,6.2,11.5,10.7,15.6l22.2,16.2l0,1.8
						l-22.2-12.8c-8.2-5.3-13.3-10.8-16-20.3c-2.4-8.6-0.1-17.4,2.8-22.4L168,298.6z"/>
				</g>
			</g>
		</g>
		<g>
			<g class="st3">
				<defs>
					<path id="SVGID_3_" class="st3" d="M100.9,379.4l-7.3-4.2c-1.8-1.1-2.9-3.3-2.9-6.4l7.3,4.2C97.9,376.1,99.1,378.3,100.9,379.4
						z"/>
				</defs>
				<clipPath id="SVGID_4_">
					<use xlink:href="#SVGID_3_"  style="overflow:visible;"/>
				</clipPath>
				<g class="st10">
					<path class="st11" d="M100.9,379.4l-7.3-4.2c-1.8-1.1-2.9-3.3-2.9-6.4l7.3,4.2C97.9,376.1,99.1,378.3,100.9,379.4"/>
				</g>
			</g>
			<g>
				<polygon class="st9" points="97.9,372.9 90.6,368.7 90.6,362.3 97.9,366.6 				"/>
			</g>
			<g>
				<polygon class="st12" points="97.9,366.6 90.6,362.3 90.6,356.4 97.9,360.6 				"/>
			</g>
			<g>
				<g>
					<path class="st13" d="M102.9,198.4L292.4,89l0,3.7l0.4,155.3l0,3.9l-5.2,3l-0.3-142.4l0-9.6c0-2.9-2.1-4-4.6-2.6l-170.1,98.2
						c-2.5,1.5-4.5,5-4.5,7.8l0.4,152l-5.2,3l0-3.9l-0.4-155.3L102.9,198.4z"/>
				</g>
				<g>
					<g>
						<polygon class="st14" points="108.3,206.4 108.3,216 287.5,112.6 287.8,255 108.7,358.4 						"/>
					</g>
					<g>
						<polygon class="st15" points="281.4,105.8 281.4,112.5 142.7,192.5 142.7,185.9 						"/>
					</g>
					<g>
						<path class="st16" d="M282.7,100.4c2.5-1.4,4.6-0.3,4.6,2.6l0,9.6L108.1,216l0-9.6c0-2.9,2-6.4,4.5-7.8L282.7,100.4z
							 M281.4,112.5l0-6.6l-138.6,80l0,6.6L281.4,112.5 M132.1,198.6c1.6-0.9,2.8-3.1,2.8-4.9c0-1.8-1.3-2.5-2.9-1.6
							c-1.6,0.9-2.8,3.1-2.8,4.9C129.2,198.8,130.5,199.5,132.1,198.6 M124,203.3c1.6-0.9,2.8-3.1,2.8-4.9c0-1.8-1.3-2.5-2.9-1.6
							c-1.6,0.9-2.8,3.1-2.8,4.9C121.2,203.4,122.5,204.2,124,203.3 M116,207.9c1.6-0.9,2.8-3.1,2.8-4.9c0-1.8-1.3-2.5-2.9-1.6
							c-1.6,0.9-2.8,3.1-2.8,4.9C113.2,208.1,114.4,208.8,116,207.9"/>
					</g>
					<g>
						<path class="st17" d="M132.1,192.1c1.6-0.9,2.9-0.2,2.9,1.6c0,1.8-1.3,4-2.8,4.9c-1.6,0.9-2.9,0.2-2.9-1.6
							C129.2,195.2,130.5,193,132.1,192.1z"/>
					</g>
					<g>
						<path class="st18" d="M124,196.7c1.6-0.9,2.9-0.2,2.9,1.6c0,1.8-1.3,4-2.8,4.9c-1.6,0.9-2.9,0.2-2.9-1.6
							C121.2,199.8,122.4,197.6,124,196.7z"/>
					</g>
					<g>
						<path class="st19" d="M116,201.3c1.6-0.9,2.8-0.2,2.9,1.6c0,1.8-1.3,4-2.8,4.9c-1.6,0.9-2.9,0.2-2.9-1.6
							C113.1,204.5,114.4,202.3,116,201.3z"/>
					</g>
				</g>
			</g>
			<path class="st20" d="M186.4,211.6c0,0-31.6,9.5-43.7,38.2c-12.1,28.7-13.2,99-13.2,99l67.8-38.2c0,0,10.1-74.9,21.2-91.3
				C218.4,219.3,214.9,201.1,186.4,211.6z"/>
			<path class="st21" d="M208,228.9c0.8-6.5,8.3-9.9,13.6-6.1c4.8,3.4,9.5,8.8,10.9,16.8c3.2,18.1-8.4,57-8.4,57L197,314.3
				L208,228.9z"/>
			<linearGradient id="SVGID_5_" gradientUnits="userSpaceOnUse" x1="203.557" y1="305.6187" x2="193.8717" y2="287.5881">
				<stop  offset="1.785710e-02" style="stop-color:#000000"/>
				<stop  offset="1" style="stop-color:#000000;stop-opacity:0"/>
			</linearGradient>
			<polygon class="st22" points="292.8,252 103.3,361.4 102.9,338 292.4,228.6 			"/>
			<g>
				<polygon class="st9" points="97.9,360.6 90.6,356.4 90.2,201.1 97.5,205.3 				"/>
			</g>
			<g>
				<polygon class="st12" points="97.5,205.3 90.2,201.1 90.2,195.1 97.5,199.4 				"/>
			</g>
			<g>
				<g>
					<polygon class="st6" points="292.8,248.1 292.4,92.8 297.8,89.6 298.2,245 					"/>
				</g>
				<g>
					<path class="st6" d="M97.9,372.9l0-6.4l200.3-115.7l0,6.4c0,6.4-4.5,14.2-10,17.4L108,378.7C102.5,381.9,97.9,379.3,97.9,372.9
						z"/>
				</g>
				<g>
					<polygon class="st23" points="298.2,245 298.2,250.9 97.9,366.6 97.9,360.6 103.3,357.5 103.3,361.4 292.8,252 292.8,248.1 
											"/>
				</g>
				<g class="st3">
					<defs>
						<path id="SVGID_6_" class="st3" d="M134.9,193.7c-1.8-1.1-3.7-2.1-5.5-3.2C131.2,191.6,133.1,192.6,134.9,193.7L134.9,193.7z"
							/>
					</defs>
					<clipPath id="SVGID_7_">
						<use xlink:href="#SVGID_6_"  style="overflow:visible;"/>
					</clipPath>
					<g class="st24">
						<path class="st25" d="M134.9,194.2l-7.3-4.2c0-0.2,0-0.4,0-0.6c0-0.9-0.3-1.5-0.8-1.8l7.3,4.2c0.5,0.3,0.8,0.9,0.8,1.8
							C134.9,193.9,134.9,194.1,134.9,194.2"/>
					</g>
				</g>
				<g>
					<polygon class="st26" points="102.9,202.2 95.7,197.9 95.6,194.2 102.9,198.4 					"/>
				</g>
				<g>
					<polygon class="st27" points="102.9,198.4 95.6,194.2 285.1,84.8 292.4,89 					"/>
				</g>
				<g>
					<polygon class="st23" points="297.8,83.7 297.8,89.6 292.4,92.8 292.4,89 102.9,198.4 102.9,202.2 97.5,205.3 97.5,199.4 					
						"/>
				</g>
				<g>
					<polygon class="st6" points="102.9,202.2 103.3,357.5 97.9,360.6 97.5,205.3 					"/>
				</g>
				<g>
					<polygon class="st28" points="97.5,199.4 90.2,195.1 290.5,79.5 297.8,83.7 					"/>
				</g>
				<g class="st3">
					<g class="st3">
						<defs>
							<path id="SVGID_8_" class="st3" d="M287.6,66.8l7.3,4.2c-1.8-1.1-4.4-0.9-7.1,0.7l-7.3-4.2C283.2,65.9,285.7,65.8,287.6,66.8
								z"/>
						</defs>
						<clipPath id="SVGID_9_">
							<use xlink:href="#SVGID_8_"  style="overflow:visible;"/>
						</clipPath>
						<g class="st29">
							<path class="st30" d="M287.7,71.7l-7.3-4.2c0.5-0.3,0.9-0.5,1.4-0.7l7.3,4.2C288.6,71.2,288.2,71.5,287.7,71.7"/>
							<path class="st31" d="M289.1,71l-7.3-4.2c0.4-0.2,0.8-0.3,1.2-0.4l7.3,4.2C289.9,70.7,289.5,70.9,289.1,71"/>
							<path class="st32" d="M290.3,70.6l-7.3-4.2c0.3-0.1,0.6-0.1,0.9-0.2l7.3,4.2C290.9,70.5,290.6,70.6,290.3,70.6"/>
							<path class="st33" d="M291.2,70.5l-7.3-4.2c0.3,0,0.5-0.1,0.7-0.1l7.3,4.2C291.7,70.4,291.4,70.4,291.2,70.5"/>
							<path class="st34" d="M291.9,70.4l-7.3-4.2c0.2,0,0.4,0,0.7,0l7.3,4.2C292.4,70.4,292.1,70.4,291.9,70.4"/>
							<path class="st35" d="M292.6,70.4l-7.3-4.2c0.2,0,0.4,0,0.6,0.1l7.3,4.2C293,70.4,292.8,70.4,292.6,70.4"/>
							<path class="st36" d="M293.2,70.5l-7.3-4.2c0.2,0,0.4,0.1,0.6,0.1l7.3,4.2C293.6,70.5,293.4,70.5,293.2,70.5"/>
							<path class="st37" d="M293.8,70.6l-7.3-4.2c0.2,0.1,0.4,0.1,0.5,0.2l7.3,4.2C294.1,70.7,293.9,70.6,293.8,70.6"/>
							<path class="st38" d="M294.3,70.8l-7.3-4.2c0.2,0.1,0.3,0.2,0.5,0.2l7.3,4.2C294.6,70.9,294.5,70.8,294.3,70.8"/>
							<path class="st39" d="M294.8,71l-7.3-4.2c0,0,0,0,0.1,0L294.8,71C294.8,71,294.8,71,294.8,71"/>
						</g>
					</g>
					<g>
						<polygon class="st9" points="97.5,199.4 90.2,195.1 90.2,188.9 97.5,193.2 						"/>
					</g>
					<g>
						<polygon class="st40" points="107.5,175.8 100.2,171.6 280.4,67.5 287.7,71.7 						"/>
					</g>
					<g class="st3">
						<defs>
							<path id="SVGID_10_" class="st3" d="M97.5,193.2l-7.3-4.2c0-6.4,4.5-14.2,10-17.4l7.3,4.2C102,179,97.5,186.8,97.5,193.2z"/>
						</defs>
						<clipPath id="SVGID_11_">
							<use xlink:href="#SVGID_10_"  style="overflow:visible;"/>
						</clipPath>
						<g class="st41">
							<path class="st11" d="M97.5,193.2l-7.3-4.2c0-0.6,0-1.3,0.1-1.9l7.3,4.2C97.5,191.9,97.5,192.5,97.5,193.2"/>
							<path class="st42" d="M97.6,191.2l-7.3-4.2c0.1-0.5,0.1-0.9,0.2-1.4l7.3,4.2C97.7,190.3,97.7,190.7,97.6,191.2"/>
							<path class="st43" d="M97.8,189.8l-7.3-4.2c0.1-0.4,0.2-0.8,0.3-1.2l7.3,4.2C98,189.1,97.9,189.4,97.8,189.8"/>
							<path class="st44" d="M98.1,188.7l-7.3-4.2c0.1-0.3,0.2-0.7,0.3-1l7.3,4.2C98.3,188,98.2,188.3,98.1,188.7"/>
							<path class="st45" d="M98.4,187.6l-7.3-4.2c0.1-0.3,0.2-0.6,0.3-1l7.3,4.2C98.7,187,98.5,187.3,98.4,187.6"/>
							<path class="st39" d="M98.8,186.7l-7.3-4.2c0.1-0.3,0.2-0.6,0.4-0.9l7.3,4.2C99,186.1,98.9,186.4,98.8,186.7"/>
							<path class="st38" d="M99.1,185.8l-7.3-4.2c0.1-0.3,0.3-0.6,0.4-0.9l7.3,4.2C99.4,185.2,99.3,185.5,99.1,185.8"/>
							<path class="st37" d="M99.6,184.9l-7.3-4.2c0.1-0.3,0.3-0.6,0.4-0.9l7.3,4.2C99.8,184.3,99.7,184.6,99.6,184.9"/>
							<path class="st36" d="M100,184l-7.3-4.2c0.2-0.3,0.3-0.6,0.5-0.9l7.3,4.2C100.3,183.5,100.1,183.8,100,184"/>
							<path class="st35" d="M100.5,183.2l-7.3-4.2c0.2-0.3,0.3-0.6,0.5-0.9l7.3,4.2C100.8,182.6,100.6,182.9,100.5,183.2"/>
							<path class="st34" d="M101,182.3l-7.3-4.2c0.2-0.3,0.4-0.6,0.6-0.9l7.3,4.2C101.4,181.7,101.2,182,101,182.3"/>
							<path class="st33" d="M101.6,181.5l-7.3-4.2c0.2-0.3,0.4-0.6,0.7-0.9l7.3,4.2C102,180.8,101.8,181.1,101.6,181.5"/>
							<path class="st32" d="M102.2,180.5l-7.3-4.2c0.3-0.3,0.5-0.7,0.8-1l7.3,4.2C102.8,179.9,102.5,180.2,102.2,180.5"/>
							<path class="st31" d="M103.1,179.5l-7.3-4.2c0.4-0.4,0.7-0.8,1.1-1.2l7.3,4.2C103.8,178.7,103.4,179.1,103.1,179.5"/>
							<path class="st30" d="M104.2,178.4l-7.3-4.2c1-1,2.2-1.9,3.3-2.6l7.3,4.2C106.3,176.5,105.2,177.3,104.2,178.4"/>
						</g>
					</g>
					<g>
						<path class="st6" d="M287.7,71.7c5.5-3.2,10.1-0.6,10.1,5.8l0,6.2L97.5,199.4l0-6.2c0-6.4,4.5-14.2,10-17.4L287.7,71.7z"/>
					</g>
				</g>
			</g>
			<g>
				<path class="st46" d="M214.2,303.5c0,0,0.1,0,0.1,0c0.1,0,0.1,0,0.2,0c0.2,0,0.3-0.1,0.5-0.1c0,0,0.1,0,0.1,0c0.2,0,0.4,0,0.6,0
					c0,0,0.1,0,0.1,0c0.2,0,0.3,0.1,0.5,0.1c0,0,0,0,0.1,0c0.2,0.1,0.3,0.1,0.5,0.2l0,0c0,0,0,0,0,0l-1.3-0.8l-0.3-0.2l0,0
					c0,0,0,0,0,0c-0.1-0.1-0.2-0.1-0.3-0.1c-0.1,0-0.1,0-0.2-0.1c0,0,0,0-0.1,0c0,0,0,0-0.1,0c-0.1,0-0.2-0.1-0.3-0.1
					c0,0-0.1,0-0.1,0c0,0-0.1,0-0.1,0c0,0-0.1,0-0.1,0c-0.1,0-0.2,0-0.4,0c0,0,0,0-0.1,0c0,0-0.1,0-0.1,0c-0.1,0-0.2,0-0.3,0
					c-0.1,0-0.2,0-0.2,0c0,0-0.1,0-0.1,0c0,0-0.1,0-0.1,0c0,0,0,0-0.1,0c0,0,0,0-0.1,0c-0.1,0-0.1,0-0.2,0c-0.1,0-0.2,0.1-0.4,0.1
					c0,0-0.1,0-0.1,0c0,0,0,0,0,0c0,0,0,0,0,0c0,0,0,0,0,0l0,0c0,0,0,0,0,0c0,0,0,0,0,0c0,0,0,0,0,0l0,0c0,0,0,0,0,0
					c-0.1,0.1-0.3,0.1-0.4,0.2c0,0,0,0-0.1,0c0,0,0,0,0,0c0,0,0,0-0.1,0c0,0,0,0,0,0l0,0c0,0,0,0,0,0c0,0-0.1,0-0.1,0.1
					c0,0,0,0-0.1,0c0,0,0,0,0,0l0,0c0,0,0,0,0,0c-0.1,0-0.1,0.1-0.2,0.1c0,0,0,0-0.1,0c0,0-0.1,0-0.1,0.1c0,0,0,0,0,0l0,0
					c0,0,0,0,0,0c-0.2,0.1-0.4,0.2-0.5,0.4c0,0-0.1,0-0.1,0.1c-0.2,0.2-0.4,0.3-0.6,0.5c-0.1,0-0.1,0.1-0.2,0.2c0,0-0.1,0.1-0.1,0.1
					c-0.1,0.1-0.2,0.2-0.3,0.3c-0.1,0.1-0.2,0.2-0.3,0.3c0,0-0.1,0.1-0.1,0.1c-0.2,0.2-0.3,0.4-0.5,0.6c0,0,0,0,0,0c0,0,0,0,0,0
					c0,0,0,0,0,0c-0.1,0.2-0.2,0.3-0.4,0.5c-0.1,0.2-0.2,0.3-0.3,0.5l0,0l0,0c-0.1,0.2-0.2,0.3-0.3,0.5c-0.1,0.2-0.2,0.3-0.3,0.5
					c0,0,0,0,0,0.1c0,0,0,0,0,0.1c-0.1,0.1-0.1,0.2-0.2,0.3c-0.1,0.2-0.2,0.3-0.2,0.5c0,0.1,0,0.1-0.1,0.2c0,0,0,0.1,0,0.1
					c0,0.1-0.1,0.2-0.1,0.2c-0.1,0.2-0.1,0.4-0.2,0.5c0,0.1,0,0.1-0.1,0.2c0,0,0,0.1,0,0.1c0,0,0,0,0,0l0,0c0,0,0,0,0,0
					c0,0,0,0.1,0,0.1c0,0.1,0,0.1-0.1,0.2c-0.1,0.2-0.1,0.4-0.2,0.7c0,0,0,0,0,0c0,0,0,0,0,0c0,0,0,0.1,0,0.1c0,0.2-0.1,0.4-0.1,0.6
					c0,0.1,0,0.2,0,0.2c0,0.1,0,0.2,0,0.2c0,0,0,0,0,0l0,0c0,0,0,0,0,0c0,0.1,0,0.2,0,0.3c0,0,0,0,0,0l0,0c0,0,0,0,0,0
					c0,0,0,0.1,0,0.1c0,0,0,0,0,0c0,0.1,0,0.2,0,0.3c0,0.1,0,0.2,0,0.3c0,0,0,0,0,0v0c0,0,0,0,0,0c0,0,0,0,0,0l0,0c0,0,0,0,0,0
					c0,0,0,0,0,0c0,0,0,0,0,0h0c0,0,0,0,0,0c0,0,0,0.1,0,0.1c0,0,0,0,0,0.1c0,0.3,0.1,0.6,0.1,0.9c0,0.1,0,0.1,0,0.1
					c0.1,0.3,0.2,0.5,0.3,0.8c0,0,0,0.1,0.1,0.1c0.1,0.2,0.3,0.4,0.4,0.6c0,0,0,0,0.1,0.1c0.2,0.2,0.4,0.3,0.6,0.5l1.6,0.9l0,0l0,0
					c-0.2-0.1-0.4-0.3-0.6-0.5c0,0,0,0-0.1-0.1c-0.2-0.2-0.3-0.4-0.4-0.6c0,0,0-0.1-0.1-0.1c-0.1-0.2-0.2-0.5-0.3-0.8
					c0,0,0-0.1,0-0.1c-0.1-0.3-0.1-0.6-0.1-0.9c0-0.2,0-0.3,0-0.5c0-0.3,0-0.6,0.1-0.9c0-0.3,0.1-0.6,0.1-0.8c0,0,0-0.1,0-0.1
					c0.1-0.3,0.1-0.6,0.2-0.9c0-0.1,0-0.1,0-0.2c0.1-0.3,0.2-0.7,0.4-1c0,0,0-0.1,0-0.1c0.1-0.3,0.3-0.7,0.5-1c0,0,0,0,0-0.1
					c0.2-0.3,0.4-0.7,0.6-1c0,0,0,0,0,0c0.2-0.3,0.4-0.7,0.7-1c0,0,0,0,0,0c0.2-0.2,0.4-0.5,0.6-0.7c0.1-0.1,0.2-0.2,0.3-0.3
					c0.1-0.1,0.2-0.2,0.4-0.4c0.3-0.2,0.5-0.5,0.8-0.7c0,0,0.1,0,0.1-0.1c0.3-0.2,0.6-0.4,0.9-0.6c0.3-0.2,0.5-0.3,0.8-0.4
					c0,0,0.1,0,0.1,0C213.9,303.6,214.1,303.5,214.2,303.5z"/>
				<g>
					<g>
						<g>
							<path class="st47" d="M213.8,309l1-1.5l-0.8,1.4c0.3,0.2,0.4,0.5,0.4,0.9c0,0.9-0.7,2.1-1.5,2.6c0,0-0.1,0-0.1,0
								c0.8-0.5,1.4-1.6,1.4-2.5C214.2,309.5,214,309.2,213.8,309z"/>
						</g>
						<g>
							<path class="st47" d="M212.7,307.1C212.7,307.1,212.7,307,212.7,307.1c-0.3,0.2-0.5,0.7-0.5,1.1l0,2.6c0,0.4,0.3,0.6,0.6,0.4
								c0,0-0.1,0-0.1,0c-0.4,0.2-0.7,0-0.7-0.4l0-2.6C212,307.8,212.3,307.3,212.7,307.1z"/>
						</g>
						<g>
							<path class="st47" d="M210.2,312.3c0,1.6,1.1,2.3,2.6,1.6c0,0-0.1,0-0.1,0c-1.5,0.8-2.6,0.2-2.6-1.5c0-0.8,0.4-1.9,0.9-2.7
								C210.5,310.5,210.2,311.4,210.2,312.3z"/>
						</g>
					</g>
					<g>
						<g>
							<path class="st48" d="M212.8,307c0.4-0.2,0.7,0,0.7,0.4l0,2.6c0,0.4-0.3,0.9-0.7,1.2c0,0-0.1,0-0.1,0c-0.3,0.2-0.6,0-0.6-0.4
								l0-2.6C212.2,307.7,212.4,307.3,212.8,307C212.8,307,212.8,307,212.8,307z"/>
						</g>
						<g>
							<path class="st48" d="M215.5,309.2c0-0.8-0.2-1.3-0.7-1.6c0,0,0,0-0.1,0l-0.8,1.4c0.3,0.2,0.4,0.5,0.4,0.9
								c0,0.9-0.7,2.1-1.5,2.6c0,0-0.1,0-0.1,0c-0.8,0.4-1.4,0-1.4-0.9c0-0.5,0.2-1,0.5-1.5l-0.8-0.5c-0.5,0.9-0.8,1.8-0.8,2.6
								c0,1.6,1.1,2.3,2.6,1.6c0,0,0.1,0,0.1,0C214.3,313,215.5,310.9,215.5,309.2z"/>
						</g>
					</g>
				</g>
				<g>
					<path class="st23" d="M218.4,307.8c0-0.1,0-0.3,0-0.4c0,3.5-2.5,7.8-5.5,9.6c-3.1,1.8-5.5,0.4-5.6-3.2c0,0.1,0,0.3,0,0.4
						c0.2-3.4,2.6-7.5,5.5-9.2C215.8,303.4,218.2,304.6,218.4,307.8z M212.9,313.8c1.5-0.8,2.6-2.9,2.6-4.6c0-0.8-0.2-1.3-0.7-1.6
						c0,0,0,0-0.1,0l-1,1.5c0.3,0.2,0.4,0.5,0.4,0.9c0,0.9-0.6,2-1.4,2.5c-0.8,0.4-1.4,0-1.4-0.9c0-0.5,0.2-1,0.5-1.5l-0.8-0.5
						c-0.5,0.9-0.9,1.9-0.9,2.7c0,1.7,1.2,2.3,2.6,1.5C212.7,313.9,212.8,313.8,212.9,313.8C212.8,313.8,212.8,313.8,212.9,313.8
						 M212,308.2l0,2.6c0,0.4,0.3,0.6,0.7,0.4c0,0,0.1,0,0.1,0c0,0,0.1,0,0.1,0c0.4-0.2,0.7-0.7,0.7-1.2l0-2.6
						c0-0.4-0.3-0.6-0.7-0.4c0,0-0.1,0-0.1,0c0,0-0.1,0-0.1,0C212.3,307.3,212,307.8,212,308.2"/>
				</g>
				<g>
					<path class="st48" d="M212.8,304.1c3.1-1.8,5.7-0.4,5.7,3.3c0,3.6-2.5,8-5.7,9.8c-3.1,1.8-5.7,0.4-5.7-3.3
						C207.2,310.3,209.7,305.9,212.8,304.1z M212.9,317c3.1-1.8,5.5-6,5.5-9.6c0-3.5-2.5-4.9-5.6-3.2c-3.1,1.8-5.5,6.1-5.5,9.6
						C207.3,317.3,209.8,318.8,212.9,317"/>
				</g>
				<g>
					<path class="st49" d="M212.8,304.3c3.1-1.8,5.5-0.3,5.6,3.2c0,0.1,0,0.3,0,0.4c-0.2-3.2-2.6-4.5-5.5-2.8
						c-2.9,1.7-5.3,5.7-5.5,9.2c0-0.1,0-0.2,0-0.4C207.3,310.3,209.8,306,212.8,304.3z"/>
				</g>
			</g>
		</g>
	</g>
	<g>
		<g class="st0">
			<defs>
				<filter id="Adobe_OpacityMaskFilter_1_" filterUnits="userSpaceOnUse" x="197.7" y="335.3" width="203.8" height="116.6">
					<feFlood  style="flood-color:white;flood-opacity:1" result="back"/>
					<feBlend  in="SourceGraphic" in2="back" mode="normal"/>
				</filter>
			</defs>
			<mask maskUnits="userSpaceOnUse" x="197.7" y="335.3" width="203.8" height="116.6" id="SVGID_12_">
				<g class="st50">
					<image style="overflow:visible;" width="209" height="121" xlink:href="AAE4CF6B.jpg"  transform="matrix(1 0 0 1 195 333)">
					</image>
				</g>
			</mask>
			<g class="st51">
				<polygon points="197.7,415.7 259.9,451.9 401.4,371.4 339.3,335.3 				"/>
			</g>
		</g>
		<path class="st52" d="M341.5,340.9l-129.8,75.5c1.4-0.8,2.2-2.5,2.2-4.8c0-0.1,0-0.3,0-0.4l129.8-75.5c0,0.1,0,0.3,0,0.4
			C343.7,338.5,342.9,340.1,341.5,340.9z"/>
		<linearGradient id="SVGID_13_" gradientUnits="userSpaceOnUse" x1="266.366" y1="355.4678" x2="271.0018" y2="363.125">
			<stop  offset="1.785710e-02" style="stop-color:#666666"/>
			<stop  offset="1" style="stop-color:#B3B3B3"/>
		</linearGradient>
		<path class="st53" d="M201,398l129.8-75.5c1.4-0.8,3.3-0.7,5.4,0.5c1.2,0.7,2.4,1.7,3.4,2.9l-129.8,75.5c-1-1.2-2.2-2.2-3.4-2.9
			C204.3,397.3,202.4,397.2,201,398z"/>
		<g>
			<polygon class="st6" points="262.9,446.7 392.7,371.2 392.7,373 262.9,448.5 			"/>
		</g>
		<g>
			<path class="st54" d="M262.9,446.7l0,1.8l-49-37.4c0,0.1,0,0.3,0,0.4c0,4.8-3.4,6.7-7.6,4.3c-4.2-2.4-7.5-8.2-7.5-13
				c0-4.8,3.4-6.7,7.6-4.3c1.2,0.7,2.4,1.7,3.4,2.9L262.9,446.7z M206.3,413.7c3.1,1.8,5.7,0.4,5.7-3.2c0-3.6-2.5-7.9-5.6-9.7
				c-3.1-1.8-5.6-0.4-5.7,3.2C200.7,407.5,203.2,411.9,206.3,413.7"/>
		</g>
		<g>
			<path class="st55" d="M206.4,400.7c3.1,1.8,5.6,6.2,5.6,9.7c0,3.6-2.5,5-5.7,3.2c-3.1-1.8-5.6-6.2-5.6-9.7
				C200.7,400.3,203.3,398.9,206.4,400.7z"/>
		</g>
		<g>
			<path class="st56" d="M206.4,404.3c1.4,0.8,2.5,2.7,2.5,4.3c0,1.6-1.1,2.2-2.5,1.4c-1.4-0.8-2.5-2.7-2.5-4.3
				C203.8,404.1,205,403.5,206.4,404.3z"/>
		</g>
		<g>
			<polygon class="st6" points="209.7,401.4 339.6,325.9 392.7,371.2 262.9,446.7 			"/>
		</g>
		<g>
			<g class="st3">
				<g>
					<polygon class="st57" points="328.1,334.8 328,336.7 333.5,341.5 333.6,339.6 					"/>
				</g>
				<g>
					<polygon class="st58" points="333.6,339.6 333.5,341.5 342.7,336.1 342.8,334.1 					"/>
				</g>
				<g>
					<polygon class="st59" points="328.1,334.8 333.6,339.6 342.8,334.1 337.4,329.4 					"/>
				</g>
			</g>
			<g class="st3">
				<g>
					<polygon class="st57" points="317.1,341.3 317,343.2 322.5,347.9 322.6,346 					"/>
				</g>
				<g>
					<polygon class="st58" points="322.6,346 322.5,347.9 331.7,342.5 331.8,340.6 					"/>
				</g>
				<g>
					<polygon class="st59" points="317.1,341.3 322.6,346 331.8,340.6 326.4,335.8 					"/>
				</g>
			</g>
			<g class="st3">
				<g>
					<polygon class="st57" points="306.2,347.7 306.1,349.6 311.6,354.3 311.7,352.4 					"/>
				</g>
				<g>
					<polygon class="st58" points="311.7,352.4 311.6,354.3 320.8,348.9 320.9,347 					"/>
				</g>
				<g>
					<polygon class="st59" points="306.2,347.7 311.7,352.4 320.9,347 315.4,342.3 					"/>
				</g>
			</g>
			<g class="st3">
				<g>
					<polygon class="st57" points="295.2,354.1 295.1,356 300.6,360.8 300.7,358.9 					"/>
				</g>
				<g>
					<polygon class="st58" points="300.7,358.9 300.6,360.8 309.8,355.4 309.9,353.5 					"/>
				</g>
				<g>
					<polygon class="st59" points="295.2,354.1 300.7,358.9 309.9,353.5 304.4,348.7 					"/>
				</g>
			</g>
			<g class="st3">
				<g>
					<polygon class="st57" points="284.3,360.6 284.2,362.5 289.7,367.2 289.8,365.3 					"/>
				</g>
				<g>
					<polygon class="st58" points="289.8,365.3 289.7,367.2 298.9,361.8 298.9,359.9 					"/>
				</g>
				<g>
					<polygon class="st59" points="284.3,360.6 289.8,365.3 298.9,359.9 293.5,355.2 					"/>
				</g>
			</g>
			<g class="st3">
				<g>
					<polygon class="st57" points="273.3,367 273.3,368.9 278.8,373.6 278.9,371.7 					"/>
				</g>
				<g>
					<polygon class="st58" points="278.9,371.7 278.8,373.6 287.9,368.2 288,366.3 					"/>
				</g>
				<g>
					<polygon class="st59" points="273.3,367 278.9,371.7 288,366.3 282.5,361.6 					"/>
				</g>
			</g>
			<g class="st3">
				<g>
					<polygon class="st57" points="262.4,373.4 262.4,375.3 267.9,380 267.9,378.1 					"/>
				</g>
				<g>
					<polygon class="st58" points="267.9,378.1 267.9,380 277,374.6 277.1,372.7 					"/>
				</g>
				<g>
					<polygon class="st59" points="262.4,373.4 267.9,378.1 277.1,372.7 271.6,368 					"/>
				</g>
			</g>
			<g class="st3">
				<g>
					<polygon class="st57" points="251.5,379.8 251.5,381.7 257,386.4 257.1,384.5 					"/>
				</g>
				<g>
					<polygon class="st58" points="257.1,384.5 257,386.4 266.1,381 266.2,379.1 					"/>
				</g>
				<g>
					<polygon class="st59" points="251.5,379.8 257.1,384.5 266.2,379.1 260.7,374.4 					"/>
				</g>
			</g>
			<g class="st3">
				<g>
					<polygon class="st57" points="240.7,386.2 240.6,388.1 246.1,392.7 246.2,390.9 					"/>
				</g>
				<g>
					<polygon class="st58" points="246.2,390.9 246.1,392.7 255.2,387.4 255.3,385.5 					"/>
				</g>
				<g>
					<polygon class="st59" points="240.7,386.2 246.2,390.9 255.3,385.5 249.8,380.8 					"/>
				</g>
			</g>
			<g class="st3">
				<g>
					<polygon class="st57" points="229.8,392.6 229.7,394.4 235.3,399.1 235.3,397.2 					"/>
				</g>
				<g>
					<polygon class="st58" points="235.3,397.2 235.3,399.1 244.4,393.8 244.5,391.9 					"/>
				</g>
				<g>
					<polygon class="st59" points="229.8,392.6 235.3,397.2 244.5,391.9 238.9,387.2 					"/>
				</g>
			</g>
			<g class="st3">
				<g>
					<polygon class="st57" points="219,398.9 218.9,400.8 224.4,405.5 224.5,403.6 					"/>
				</g>
				<g>
					<polygon class="st58" points="224.5,403.6 224.4,405.5 233.5,400.1 233.6,398.3 					"/>
				</g>
				<g>
					<polygon class="st59" points="219,398.9 224.5,403.6 233.6,398.3 228.1,393.6 					"/>
				</g>
			</g>
			<g class="st3">
				<g>
					<polygon class="st57" points="336,341.6 335.9,343.5 343.8,350.5 343.9,348.6 					"/>
				</g>
				<g>
					<polygon class="st58" points="343.9,348.6 343.8,350.5 353.1,345.1 353.2,343.2 					"/>
				</g>
				<g>
					<polygon class="st59" points="336,341.6 343.9,348.6 353.2,343.2 345.2,336.2 					"/>
				</g>
			</g>
			<g class="st3">
				<g>
					<path class="st60" d="M331.3,346.7c-1.5,0.9-1.6,2.6-0.2,3.8c1.4,1.2,3.8,1.5,5.3,0.6c1.5-0.9,1.6-2.6,0.2-3.8
						C335.2,346.1,332.9,345.8,331.3,346.7z"/>
				</g>
				<g>
					<polygon class="st58" points="333,355 332.9,356.9 342.1,351.5 342.2,349.6 					"/>
				</g>
				<g>
					<polygon class="st57" points="325,348.1 324.9,350 332.9,356.9 333,355 					"/>
				</g>
				<g>
					<path class="st59" d="M342.2,349.6L333,355l-8-6.9l9.2-5.4L342.2,349.6z M336.4,351.1c1.5-0.9,1.6-2.6,0.2-3.8
						c-1.4-1.2-3.8-1.5-5.3-0.6c-1.5,0.9-1.6,2.6-0.2,3.8C332.5,351.8,334.9,352,336.4,351.1"/>
				</g>
			</g>
			<g class="st3">
				<g>
					<polygon class="st57" points="339.5,353.9 339.4,355.8 347.4,362.8 347.5,360.9 					"/>
				</g>
				<g>
					<polygon class="st58" points="347.5,360.9 347.4,362.8 363,353.7 363.1,351.8 					"/>
				</g>
				<g>
					<polygon class="st59" points="339.5,353.9 347.5,360.9 363.1,351.8 355,344.8 					"/>
				</g>
			</g>
			<g class="st3">
				<g>
					<path class="st60" d="M320.3,353.2c-1.5,0.9-1.6,2.6-0.2,3.8c1.4,1.2,3.8,1.5,5.3,0.6c1.5-0.9,1.6-2.6,0.2-3.8
						C324.2,352.6,321.8,352.3,320.3,353.2z"/>
				</g>
				<g>
					<polygon class="st58" points="322,361.4 321.9,363.3 331.1,357.9 331.2,356 					"/>
				</g>
				<g>
					<polygon class="st57" points="314.1,354.5 314,356.4 321.9,363.3 322,361.4 					"/>
				</g>
				<g>
					<path class="st59" d="M331.2,356l-9.2,5.4l-8-6.9l9.2-5.4L331.2,356z M325.4,357.6c1.5-0.9,1.6-2.6,0.2-3.8
						c-1.4-1.2-3.8-1.5-5.3-0.6c-1.5,0.9-1.6,2.6-0.2,3.8C321.4,358.3,323.8,358.5,325.4,357.6"/>
				</g>
			</g>
			<g class="st3">
				<g>
					<polygon class="st57" points="328,360.6 327.9,362.5 336,369.5 336.1,367.6 					"/>
				</g>
				<g>
					<polygon class="st58" points="336.1,367.6 336,369.5 345.2,364.1 345.3,362.2 					"/>
				</g>
				<g>
					<polygon class="st59" points="328,360.6 336.1,367.6 345.3,362.2 337.2,355.2 					"/>
				</g>
			</g>
			<g class="st3">
				<g>
					<polygon class="st57" points="303.1,360.9 303,362.8 311,369.7 311.1,367.8 					"/>
				</g>
				<g>
					<polygon class="st58" points="311.1,367.8 311,369.7 320.2,364.3 320.3,362.4 					"/>
				</g>
				<g>
					<polygon class="st59" points="303.1,360.9 311.1,367.8 320.3,362.4 312.3,355.5 					"/>
				</g>
			</g>
			<g class="st3">
				<g>
					<path class="st59" d="M334.3,368.6l-9.2,5.4l-8.1-7l9.2-5.4L334.3,368.6z M328.3,370c1.5-0.9,1.6-2.6,0.2-3.8
						c-1.4-1.2-3.8-1.5-5.3-0.6c-1.5,0.9-1.6,2.6-0.2,3.8C324.4,370.6,326.7,370.9,328.3,370"/>
				</g>
				<g>
					<path class="st60" d="M323.2,365.6c-1.5,0.9-1.6,2.6-0.2,3.8c1.4,1.2,3.8,1.5,5.3,0.6c1.5-0.9,1.6-2.6,0.2-3.8
						C327.1,365,324.7,364.7,323.2,365.6z"/>
				</g>
				<g>
					<polygon class="st58" points="325.2,374 325.1,375.9 334.2,370.5 334.3,368.6 					"/>
				</g>
				<g>
					<polygon class="st57" points="317.1,367 317,368.9 325.1,375.9 325.2,374 					"/>
				</g>
			</g>
			<g class="st3">
				<g>
					<polygon class="st57" points="292.2,367.4 292.1,369.2 300.1,376.1 300.2,374.2 					"/>
				</g>
				<g>
					<polygon class="st58" points="300.2,374.2 300.1,376.1 309.2,370.7 309.3,368.8 					"/>
				</g>
				<g>
					<polygon class="st59" points="292.2,367.4 300.2,374.2 309.3,368.8 301.3,362 					"/>
				</g>
			</g>
			<g class="st3">
				<g>
					<polygon class="st57" points="306.2,373.4 306.1,375.3 314.2,382.2 314.2,380.4 					"/>
				</g>
				<g>
					<polygon class="st58" points="314.2,380.4 314.2,382.2 323.3,376.9 323.4,375 					"/>
				</g>
				<g>
					<polygon class="st59" points="306.2,373.4 314.2,380.4 323.4,375 315.3,368.1 					"/>
				</g>
			</g>
			<g class="st3">
				<g>
					<polygon class="st57" points="281.3,373.8 281.2,375.6 289.2,382.5 289.3,380.6 					"/>
				</g>
				<g>
					<polygon class="st58" points="289.3,380.6 289.2,382.5 298.3,377.1 298.4,375.2 					"/>
				</g>
				<g>
					<polygon class="st59" points="281.3,373.8 289.3,380.6 298.4,375.2 290.4,368.4 					"/>
				</g>
			</g>
			<g class="st3">
				<g>
					<polygon class="st57" points="295.3,379.8 295.2,381.7 303.3,388.6 303.4,386.7 					"/>
				</g>
				<g>
					<polygon class="st58" points="303.4,386.7 303.3,388.6 312.4,383.3 312.5,381.4 					"/>
				</g>
				<g>
					<polygon class="st59" points="295.3,379.8 303.4,386.7 312.5,381.4 304.4,374.4 					"/>
				</g>
			</g>
			<g class="st3">
				<g>
					<polygon class="st57" points="270.4,380.1 270.3,382 278.3,388.9 278.4,387 					"/>
				</g>
				<g>
					<polygon class="st58" points="278.4,387 278.3,388.9 287.4,383.5 287.5,381.6 					"/>
				</g>
				<g>
					<polygon class="st59" points="270.4,380.1 278.4,387 287.5,381.6 279.5,374.8 					"/>
				</g>
			</g>
			<g class="st3">
				<g>
					<polygon class="st57" points="284.4,386.2 284.3,388.1 292.4,395 292.5,393.1 					"/>
				</g>
				<g>
					<polygon class="st58" points="292.5,393.1 292.4,395 301.5,389.6 301.6,387.8 					"/>
				</g>
				<g>
					<polygon class="st59" points="284.4,386.2 292.5,393.1 301.6,387.8 293.5,380.8 					"/>
				</g>
			</g>
			<g class="st3">
				<g>
					<polygon class="st57" points="259.5,386.5 259.4,388.4 267.4,395.2 267.5,393.3 					"/>
				</g>
				<g>
					<polygon class="st58" points="267.5,393.3 267.4,395.2 276.6,389.9 276.6,388 					"/>
				</g>
				<g>
					<polygon class="st59" points="259.5,386.5 267.5,393.3 276.6,388 268.6,381.2 					"/>
				</g>
			</g>
			<g class="st3">
				<g>
					<polygon class="st58" points="281.6,399.5 281.5,401.3 290.6,396 290.7,394.1 					"/>
				</g>
				<g>
					<polygon class="st57" points="273.5,392.6 273.4,394.4 281.5,401.3 281.6,399.5 					"/>
				</g>
				<g>
					<path class="st59" d="M290.7,394.1l-9.1,5.3l-8.1-6.9l9.1-5.3L290.7,394.1z M284.7,395.5c1.5-0.9,1.6-2.6,0.2-3.8
						c-1.4-1.2-3.8-1.5-5.3-0.6c-1.5,0.9-1.6,2.6-0.2,3.8C280.8,396.1,283.2,396.4,284.7,395.5"/>
				</g>
				<g>
					<path class="st60" d="M279.6,391.2c-1.5,0.9-1.6,2.6-0.2,3.8c1.4,1.2,3.8,1.5,5.3,0.6c1.5-0.9,1.6-2.6,0.2-3.8
						C283.5,390.5,281.1,390.3,279.6,391.2z"/>
				</g>
			</g>
			<g class="st3">
				<g>
					<path class="st59" d="M246.9,393.9l10.9-6.4l8,6.8l-10.9,6.4l-4.6,2.7l-4.5,2.7l-8.1-6.8l4.5-2.7L246.9,393.9z M248.9,402.2
						c1.5-0.9,1.6-2.6,0.2-3.8c-1.4-1.2-3.8-1.5-5.3-0.6c-1.5,0.9-1.6,2.6-0.2,3.8C245,402.8,247.4,403.1,248.9,402.2"/>
				</g>
				<polygon class="st58" points="265.8,394.4 254.9,400.7 250.4,403.4 245.8,406.1 245.8,407.9 250.3,405.3 254.8,402.6 
					265.7,396.2 				"/>
				<g>
					<polygon class="st57" points="237.8,399.3 237.7,401.1 245.8,407.9 245.8,406.1 					"/>
				</g>
				<g>
					<path class="st60" d="M243.8,397.8c-1.5,0.9-1.6,2.6-0.2,3.8c1.4,1.2,3.8,1.5,5.3,0.6c1.5-0.9,1.6-2.6,0.2-3.8
						C247.7,397.2,245.3,396.9,243.8,397.8z"/>
				</g>
			</g>
			<g class="st3">
				<g>
					<polygon class="st57" points="262.6,398.9 262.6,400.8 270.7,407.7 270.8,405.8 					"/>
				</g>
				<g>
					<polygon class="st58" points="270.8,405.8 270.7,407.7 279.8,402.3 279.9,400.5 					"/>
				</g>
				<g>
					<polygon class="st59" points="262.6,398.9 270.8,405.8 279.9,400.5 271.8,393.6 					"/>
				</g>
			</g>
			<g class="st3">
				<g>
					<polygon class="st57" points="247.7,407.7 247.7,409.5 255.8,416.4 255.9,414.5 					"/>
				</g>
				<g>
					<polygon class="st58" points="255.9,414.5 255.8,416.4 269,408.7 269,406.8 					"/>
				</g>
				<g>
					<polygon class="st59" points="247.7,407.7 255.9,414.5 269,406.8 260.9,399.9 					"/>
				</g>
			</g>
			<g class="st3">
				<g>
					<polygon class="st57" points="226.9,405.6 226.9,407.5 234.9,414.3 235,412.4 					"/>
				</g>
				<g>
					<polygon class="st58" points="235,412.4 234.9,414.3 244,408.9 244.1,407.1 					"/>
				</g>
				<g>
					<polygon class="st59" points="226.9,405.6 235,412.4 244.1,407.1 236,400.3 					"/>
				</g>
			</g>
			<g class="st3">
				<g>
					<polygon class="st57" points="236.9,414 236.8,415.9 245,422.7 245.1,420.8 					"/>
				</g>
				<g>
					<polygon class="st58" points="245.1,420.8 245,422.7 254.1,417.4 254.1,415.5 					"/>
				</g>
				<g>
					<polygon class="st59" points="236.9,414 245.1,420.8 254.1,415.5 246,408.7 					"/>
				</g>
			</g>
			<g class="st3">
				<g>
					<polygon class="st57" points="344.8,365.2 344.7,367.1 352.6,374 352.7,372.1 					"/>
				</g>
				<g>
					<polygon class="st58" points="352.7,372.1 352.6,374 372.7,362.2 372.8,360.3 					"/>
				</g>
				<g>
					<polygon class="st59" points="344.8,365.2 352.7,372.1 372.8,360.3 364.9,353.4 					"/>
				</g>
			</g>
			<g class="st3">
				<g>
					<polygon class="st57" points="333.8,371.6 333.7,373.5 341.7,380.3 341.8,378.5 					"/>
				</g>
				<g>
					<polygon class="st58" points="341.8,378.5 341.7,380.3 350.8,375 350.9,373.1 					"/>
				</g>
				<g>
					<polygon class="st59" points="333.8,371.6 341.8,378.5 350.9,373.1 343,366.3 					"/>
				</g>
			</g>
			<g class="st3">
				<g>
					<polygon class="st57" points="322.9,378 322.8,379.9 330.7,386.7 330.8,384.8 					"/>
				</g>
				<g>
					<polygon class="st58" points="330.8,384.8 330.7,386.7 339.9,381.4 340,379.5 					"/>
				</g>
				<g>
					<polygon class="st59" points="322.9,378 330.8,384.8 340,379.5 332.1,372.6 					"/>
				</g>
			</g>
			<g class="st3">
				<g>
					<polygon class="st57" points="312,384.4 311.9,386.3 319.9,393.1 320,391.2 					"/>
				</g>
				<g>
					<polygon class="st58" points="320,391.2 319.9,393.1 329,387.7 329.1,385.8 					"/>
				</g>
				<g>
					<polygon class="st59" points="312,384.4 320,391.2 329.1,385.8 321.2,379 					"/>
				</g>
			</g>
			<g class="st3">
				<g>
					<polygon class="st57" points="301.1,390.7 301.1,392.6 309,399.4 309.1,397.5 					"/>
				</g>
				<g>
					<polygon class="st58" points="309.1,397.5 309,399.4 318.1,394.1 318.2,392.2 					"/>
				</g>
				<g>
					<polygon class="st59" points="301.1,390.7 309.1,397.5 318.2,392.2 310.3,385.4 					"/>
				</g>
			</g>
			<g class="st3">
				<g>
					<polygon class="st57" points="290.3,397.1 290.2,399 298.1,405.7 298.2,403.9 					"/>
				</g>
				<g>
					<polygon class="st58" points="298.2,403.9 298.1,405.7 307.2,400.4 307.3,398.6 					"/>
				</g>
				<g>
					<polygon class="st59" points="290.3,397.1 298.2,403.9 307.3,398.6 299.4,391.8 					"/>
				</g>
			</g>
			<g class="st3">
				<g>
					<polygon class="st57" points="279.4,403.4 279.3,405.3 287.3,412.1 287.4,410.2 					"/>
				</g>
				<g>
					<polygon class="st58" points="287.4,410.2 287.3,412.1 296.4,406.8 296.5,404.9 					"/>
				</g>
				<g>
					<polygon class="st59" points="279.4,403.4 287.4,410.2 296.5,404.9 288.5,398.1 					"/>
				</g>
			</g>
			<g class="st3">
				<polygon class="st58" points="274.8,417.5 270.3,420.2 265.7,422.8 265.7,424.7 270.2,422 274.7,419.4 285.6,413.1 285.6,411.2 
									"/>
				<g>
					<polygon class="st57" points="257.8,416.1 257.7,418 265.7,424.7 265.7,422.8 					"/>
				</g>
				<g>
					<polygon class="st59" points="257.8,416.1 265.7,422.8 270.3,420.2 274.8,417.5 285.6,411.2 277.7,404.5 266.8,410.8 
						262.3,413.5 					"/>
				</g>
			</g>
			<g class="st3">
				<g>
					<polygon class="st57" points="247,422.4 246.9,424.3 254.9,431 255,429.1 					"/>
				</g>
				<g>
					<polygon class="st58" points="255,429.1 254.9,431 263.9,425.7 264,423.9 					"/>
				</g>
				<g>
					<polygon class="st59" points="247,422.4 255,429.1 264,423.9 256,417.1 					"/>
				</g>
			</g>
			<g class="st3">
				<g>
					<path class="st60" d="M360.7,372.2c-1.5,0.9-1.6,2.6-0.2,3.8c1.4,1.2,3.8,1.5,5.3,0.6c1.5-0.9,1.6-2.6,0.2-3.8
						C364.5,371.6,362.2,371.3,360.7,372.2z"/>
				</g>
				<g>
					<polygon class="st58" points="362.4,380.5 362.3,382.4 382.4,370.7 382.5,368.8 					"/>
				</g>
				<g>
					<polygon class="st57" points="354.5,373.7 354.4,375.6 362.3,382.4 362.4,380.5 					"/>
				</g>
				<g>
					<path class="st59" d="M382.5,368.8l-20.1,11.7l-7.9-6.8l20.1-11.8L382.5,368.8z M365.7,376.6c1.5-0.9,1.6-2.6,0.2-3.8
						c-1.4-1.2-3.8-1.5-5.3-0.6c-1.5,0.9-1.6,2.6-0.2,3.8C361.8,377.2,364.2,377.5,365.7,376.6"/>
				</g>
			</g>
			<g class="st3">
				<g>
					<path class="st59" d="M360.7,381.5l-74.3,43.3l-7.9-6.7l74.4-43.4L360.7,381.5z M289.5,421c1.5-0.9,1.6-2.6,0.2-3.8
						c-1.4-1.2-3.8-1.4-5.3-0.6c-1.5,0.9-1.6,2.6-0.2,3.8C285.6,421.6,288,421.9,289.5,421"/>
				</g>
				<g>
					<polygon class="st58" points="286.4,424.8 286.3,426.7 360.5,383.4 360.7,381.5 					"/>
				</g>
				<g>
					<polygon class="st57" points="278.4,418.1 278.4,420 286.3,426.7 286.4,424.8 					"/>
				</g>
				<g>
					<path class="st60" d="M284.4,416.7c-1.5,0.9-1.6,2.6-0.2,3.8c1.4,1.2,3.8,1.4,5.3,0.6c1.5-0.9,1.6-2.6,0.2-3.8
						C288.3,416,285.9,415.8,284.4,416.7z"/>
				</g>
			</g>
			<g class="st3">
				<polygon class="st58" points="273.9,432.1 269.3,434.8 264.8,437.4 264.7,439.3 269.3,436.6 273.8,434 284.6,427.7 284.6,425.8 
									"/>
				<g>
					<polygon class="st57" points="256.8,430.7 256.8,432.6 264.7,439.3 264.8,437.4 					"/>
				</g>
				<g>
					<polygon class="st59" points="256.8,430.7 264.8,437.4 269.3,434.8 273.9,432.1 284.6,425.8 276.7,419.1 265.9,425.4 
						261.4,428.1 					"/>
				</g>
			</g>
		</g>
	</g>
	<g>
		<path class="st61" d="M233.2,157.6c-2.7-8.2-8.5-16.1-18.6-20.5c-4.1-1.8-10.2-3.3-17.3-3.5c0,0,0,0-0.1,0c-0.5,0-1,0-1.4,0
			c0,0,0,0-0.1,0c0,0,0,0,0,0c-0.5,0-1,0-1.5,0c0,0,0,0-0.1,0c-2.1,0.1-4.2,0.2-6.3,0.5c0,0,0,0,0,0c-0.5,0.1-1,0.2-1.5,0.2
			c-0.1,0-0.2,0-0.4,0.1c-0.4,0.1-0.8,0.1-1.2,0.2c-0.2,0-0.3,0.1-0.5,0.1c-0.4,0.1-0.7,0.2-1.1,0.2c-0.2,0-0.4,0.1-0.6,0.1
			c-0.3,0.1-0.7,0.2-1,0.3c-0.1,0-0.2,0.1-0.3,0.1c-0.1,0-0.2,0.1-0.3,0.1c-0.3,0.1-0.6,0.2-1,0.3c-0.2,0.1-0.4,0.1-0.6,0.2
			c-0.3,0.1-0.6,0.2-1,0.3c-0.2,0.1-0.4,0.1-0.6,0.2c-0.3,0.1-0.7,0.2-1,0.4c-0.2,0.1-0.4,0.2-0.6,0.2c-0.4,0.1-0.7,0.3-1.1,0.5
			c-0.1,0.1-0.3,0.1-0.4,0.2c0,0,0,0-0.1,0c-0.5,0.2-1,0.5-1.6,0.7c-0.6,0.3-1.1,0.6-1.6,0.9c-0.1,0.1-0.3,0.2-0.4,0.3
			c-0.4,0.3-0.9,0.6-1.3,0.9c-0.1,0.1-0.2,0.1-0.2,0.2c-11.9,9.1-15.6,29.2-13.3,34c0.1,0.2,0.2,0.4,0.4,0.6c0,0,0.1,0.1,0.1,0.1
			c0.1,0.2,0.3,0.4,0.4,0.6c0,0,0,0,0,0c0.2,0.2,0.4,0.4,0.6,0.6c0,0,0,0,0,0c0.5,0.5,1.2,1,1.8,1.5c-0.1,0.5-0.1,1.1-0.1,1.8l0,0
			c0,0,0,0,0,0c0,2.3,0.2,5.4,1.2,9.4c2.7,11.1,0.1,14.6,0,17.9c-0.4,15.8,18.8,0.3,37,10c1.1,0.6,3,6.4,3.7,5.8
			c2.9-0.1,6.1-0.5,9.1-1.6c9.7-3.5,16.8-11.6,15-25.7c-0.8-6.4,0.9-13.6,1.5-21.5c0.1,0.3,0.2,0.5,0.2,0.5c0.5,1.7,3.2,1.3,5.3-0.5
			c0,0,0,0,0,0.1c0.1-0.1,0.1-0.1,0.2-0.2c0.1-0.1,0.2-0.2,0.2-0.2c0.1-0.1,0.3-0.3,0.4-0.4c0.1-0.1,0.1-0.1,0.2-0.2
			c0.2-0.2,0.3-0.5,0.5-0.7c0-0.1,0.1-0.2,0.1-0.2c0.1-0.2,0.2-0.4,0.3-0.6c0-0.1,0.1-0.2,0.1-0.3c0.1-0.2,0.1-0.4,0.2-0.6
			c0-0.1,0.1-0.2,0.1-0.3c0.1-0.2,0.1-0.4,0.1-0.7c0-0.1,0-0.2,0.1-0.3c0-0.3,0.1-0.7,0.1-1.1v0C235,165.1,234.4,161.3,233.2,157.6z
			"/>
		<g>
			<path class="st61" d="M222.6,236.5c0-26.2-18.6-36.9-41.5-23.7c-22.9,13.2-41.3,45.2-41.3,71.5v0v0v0v0
				c0.1,26.2,18.6,36.8,41.5,23.6C203.4,295.2,222.6,260.4,222.6,236.5z M139.8,284.4c0,0.9,0.1,1.8,0.2,2.7c0,0,0,0,0,0
				C140,286.2,139.9,285.3,139.8,284.4z"/>
			<path class="st20" d="M224.2,238.5c0-24.3-17.3-34.2-38.4-22c-21.2,12.3-38.3,41.9-38.2,66.3v0v0v0v0
				c0.1,24.3,17.3,34.1,38.5,21.9C206.4,292.9,224.2,260.6,224.2,238.5z M147.5,282.9c0,0.8,0.1,1.7,0.2,2.5c0,0,0,0,0,0
				C147.6,284.6,147.5,283.7,147.5,282.9z"/>
			<g>
				<path class="st61" d="M194.9,231.4c0,0,9.2,38.3,3.8,63.9l-22.2-34l6.9-9.1l-17.7-14.5l10.5-19.3
					C176.3,218.4,189.7,224.9,194.9,231.4z"/>
				<path class="st20" d="M195.7,230.6c0,0,8.5,38.3,3.5,63.9l-19.8-35.2l7.3-8.2l-16.7-14.3l8.3-19.3
					C178.2,217.5,190.8,224,195.7,230.6z"/>
				<path class="st20" d="M198.8,295.3c0,0,21.7-22.6,25.1-35.1l-1.6-6.6l7.8-8c0,0-6.3-19.5-16.3-25.8
					C213.7,219.8,220.7,260,198.8,295.3z"/>
				<path class="st16" d="M191,226.3c0,0,9.4,46.5,7.8,69c0,0,23.2-36,19.7-60.4C214.9,210.4,194.1,222.1,191,226.3z"/>
			</g>
			<path class="st62" d="M179.2,211.3c0,0,5.8-2,8-1.8c2.3,0.2,4.8,7,4.8,7l-3.2,5.8L179.2,211.3z"/>
			<polygon class="st63" points="216.5,228.6 204.8,221.9 212.9,217.2 			"/>
			<polygon class="st62" points="203.9,229 214.2,222 216.5,228.6 214.1,216.5 203.2,222.7 202.5,225.3 			"/>
			<path class="st19" d="M194.4,223.4c0,0,2.4,3.6,7.2,3.4c0.9,0,1.4,6.8,1.4,6.8l-7.4-0.8l-6.1-3.4L194.4,223.4z"/>
			<path class="st64" d="M195.9,228L195.9,228c-5.5,0-10-4.5-10-10l0,0c0-5.5,4.5-10,10-10l0,0c5.5,0,10,4.5,10,10l0,0
				C205.9,223.5,201.4,228,195.9,228z"/>
			<path class="st65" d="M195.9,207.9c-0.9,0-1.8,0.1-2.6,0.4l-3,1.4c-2.6,1.7-4,2.6-4.1,5.9c3.6,2.8,9,8.2,16.8,9.5
				c1.8-1.8,2.9-4.3,2.9-7.1v0C205.9,212.4,201.4,207.9,195.9,207.9z"/>
			<path class="st66" d="M197.6,226l-4.2,13l-14.9-17c-2.1-2.3-2.4-5.7-0.7-8.3l1.6-2.5L197.6,226z"/>
			<path class="st67" d="M207.5,223.9c0,0,3.3-0.9,4.3-0.3c1,0.6,2.6,2.6,2.7,3.9c0.1,1.3-3.6,3.7-4.5,3.9
				C209.1,231.7,207.6,224.5,207.5,223.9z"/>
			<g>
				<path class="st19" d="M200.1,227c0,0,1.5,2.5,1.5,6.3c0,0,2.4,3.7,3.2,3.7c0,0,3.6-3.7,5.9-3.3c0,0,1-3.8-1.2-7.8
					C207.3,221.8,201.8,223.9,200.1,227z"/>
				<path class="st19" d="M204.8,237c0,0-0.6,19.1-1.8,25.5c-1.1,6.1-4.2,19.9-4.2,19.9v13l10-15.9c0.9-1.4,1.5-3,1.8-4.7
					c1.1-6.7,3.4-25.3,0.1-41.1C210.6,233.6,205.6,233,204.8,237z"/>
				<g class="st61">
					<path d="M201.9,268c-0.3,1.4-0.6,2.9-0.9,4.3l10.9-8.2c0.1-1.2,0.2-2.5,0.3-3.8L201.9,268z"/>
					<path d="M205,285.5l3.8-6.1c0.2-0.2,0.3-0.5,0.4-0.8l-10.5,7.9v3.6L205,285.5z"/>
					<path d="M199.8,277.7c-0.4,2-0.8,3.6-0.9,4.3l12-9.1c0.2-1.1,0.3-2.5,0.5-4L199.8,277.7z"/>
					<path d="M203.5,258.6c-0.2,1.5-0.3,2.8-0.5,3.9c0,0.1,0,0.1,0,0.2l9.4-7.1c0-1.2,0-2.4,0-3.6L203.5,258.6z"/>
					<path d="M204.6,241.5c0,1.1-0.1,2.4-0.2,3.7l7.2-5.5c-0.1-1.1-0.3-2.2-0.5-3.3L204.6,241.5z"/>
					<path d="M204.2,250c-0.1,1.3-0.2,2.6-0.3,3.8l8.4-6.3c0-1.1-0.1-2.3-0.2-3.5L204.2,250z"/>
				</g>
				<path class="st68" d="M200.1,227c0,0,2.4,2.9,1.5,6.3L200.1,227z"/>
				<path class="st68" d="M204.8,237c0,0,1.8-4.3,5.9-3.3C210.6,233.6,206.6,230.5,204.8,237z"/>
			</g>
		</g>
		<path class="st69" d="M216.3,254.4l-3.6-1.3l3.1-8.3c0.6-1.7,1.5-3.2,2.6-4.6l5.3-7c0.4-0.6,0.7-1.3,0.6-2l-0.7-27.6l3.8-0.1
			l0.7,27.6c0,1.6-0.5,3.1-1.4,4.4l-5.3,7c-0.8,1.1-1.5,2.4-2,3.7L216.3,254.4z"/>
		<g>
			<path class="st64" d="M235.1,163.1c-1.8-11.1-9-14.5-19-8.8c-4,2.3-7.7,5.7-10.9,9.7c-7-0.2-26-0.4-29.4,2.4
				c-4.2,3.5-1.2,33.4,4.2,42.9c5.3,9.5,23.2,13.5,23.2,13.5c3.6,0.9,9.9,1.1,15.8-1c9.7-3.5,16.8-11.6,15-25.7
				C232.9,186.6,237.1,175.4,235.1,163.1z"/>
			<path class="st70" d="M192,185.5c0.5-8.4,1.2-15.4,4.7-21.7c-8.3,0-18.5,0.5-20.9,2.5c-4.2,3.5-1.2,33.4,4.2,42.9
				c3.4,6,11.8,9.8,17.5,11.8C197.5,221,190.6,209.7,192,185.5z"/>
			<path class="st71" d="M169.2,174.4c0,0-2.7,4.2,0,15.3c2.7,11.1-1.3,14.8,0,17.9c1.3,3,9.1,2.4,11.8-2.3
				c2.7-4.7,5.1-17.7,4.2-22.2C184.3,178.6,172.9,172.4,169.2,174.4z"/>
			<g class="st3">
				<g>
					<polygon class="st72" points="185.9,187 182.2,184.8 185.1,183.1 188.9,185.3 					"/>
				</g>
				<path class="st72" d="M180.5,205.3l-3.7-2.2c-1.4-0.8-2.3-2.5-2.3-5c0-4.9,3.4-10.9,7.7-13.4l3.7,2.2c-4.3,2.5-7.7,8.5-7.7,13.4
					C178.2,202.8,179.1,204.5,180.5,205.3z"/>
				<g>
					<path class="st64" d="M188.9,185.3l0.1,17.8l-2.9,1.7c-4.3,2.5-7.8,0.5-7.8-4.4c0-4.9,3.4-10.9,7.7-13.4L188.9,185.3z"/>
				</g>
				<path class="st70" d="M184,190.9c0,0,2.9,0.4,3.7,4c0.8,3.5-0.2,6.1-1.3,7c-1,0.9-3.8,0.5-3.8,0.5s2.6-0.3,3.3-2.3
					C186.7,198.1,187.3,192.8,184,190.9z"/>
			</g>
			<path class="st13" d="M186,185.3c0,0,2.8,1.7,2.8,4.2c0,1.5,0,7.5,0,12.1c0,3.6,1.8,7,4.9,9.1l0.8,0.6c0,0-1.5-16.2,0.9-26.2
				L186,185.3z"/>
			<path class="st61" d="M235.7,175c0,0-0.9-2.7-1.6-3.9c0,0-3.5,8.3-11.3,12.1c-7.8,3.7-21.1,5.7-28.6,4.9
				c-7.5-0.7-8.2-1.1-8.2-1.1s-3.2-1.4-5.1-1.3c0,0-10.7-3.2-12.9-5.4l1.1-3.9l64.4-17.1l2.9,2.3L235.7,175z"/>
			<path class="st73" d="M235.1,165.5c0,0-2.1,7-6.5,11.6c-4.4,4.6-12.9,6.5-20.7,8.5c-4.4,1.1-14.6,1-19.7,0.1
				c-2.9-0.5-4.4-1.1-5.3-1.3c-2.8-0.5-15.7-4.2-18.3-9.5c-2.6-5.3,2.1-28.9,16.9-36.3c15.8-7.9,33.2-5.2,41.6-1.6
				c14.7,6.4,20.4,20.2,20.4,31.5c0,6.3-7,9.1-7.9,6.3C234.8,172.1,235.1,165.5,235.1,165.5z"/>
			<path class="st74" d="M223.2,137.1c-8.4-3.6-25.8-6.3-41.6,1.6c-2.5,1.2-4.7,2.9-6.6,4.9c1.7-1.7,3.7-3.1,5.9-4.2
				c15.8-7.9,33.2-5.2,41.6-1.6c14.7,6.4,20.4,20.2,20.4,31.5c0,2.2-0.8,3.9-1.9,5.2c1.5-1.3,2.6-3.3,2.6-5.9
				C243.6,157.3,237.8,143.5,223.2,137.1z"/>
			<path class="st13" d="M223.4,139.4c-4.6-2.6-10.1-4.6-16.1-5.8c-7.9-0.4-17,0.7-25.7,5c-14.8,7.4-19.5,31-16.9,36.3
				c2.6,5.3,15.5,9,18.3,9.5c0.9,0.1,2.4,0.8,5.3,1.3c5.1,0.8,15.3,1,19.7-0.1c7.8-2,16.3-3.9,20.7-8.5c4.4-4.6,6.5-11.6,6.5-11.6
				S235.7,146.4,223.4,139.4z"/>
			<path class="st74" d="M166.1,176.4c-2.6-5.3,2.1-28.9,16.9-36.3c8.7-4.3,17.8-5.5,25.7-5c6,1.2,11.5,3.2,16.1,5.8
				c1.1,0.6,2.2,1.4,3.1,2.2c-1.3-1.4-2.8-2.7-4.5-3.7c-4.6-2.6-10.1-4.6-16.1-5.8c-7.9-0.4-17,0.7-25.7,5
				c-14.8,7.4-19.5,31-16.9,36.3c0.5,0.9,1.2,1.8,2.2,2.7C166.6,177.2,166.3,176.8,166.1,176.4z"/>
			<path class="st75" d="M229.2,151.1c0,0,3.6,7.8,0,16.7c-3.6,8.9-23.7,11.7-25.2,10.6c-1.6-1.1,10.1-3.7,13.4-6.4
				c0,0-18.2,5.3-21.5,4.6c-3.3-0.7,20.1-7.1,23.5-9.3c3.4-2.2,4.6-13.7,6.6-16.6C227.9,147.8,228.5,149.3,229.2,151.1z"/>
			<g>
				<path class="st76" d="M229.7,204.9l-16.8,8.7c0,0,3.2,5.3,7.7,3.8C228.6,214.5,229.7,204.9,229.7,204.9z"/>
				<path class="st77" d="M218.6,210.6l-5.7,3c0,0,3.2,5.3,7.7,3.8c2-0.7,3.5-1.8,4.7-3C223.7,212.1,220.7,211.1,218.6,210.6z"/>
				<path class="st20" d="M229.7,204.9c0,0-2.9,9.2-16.8,8.7L229.7,204.9z"/>
				<path class="st68" d="M220.6,215.3c-4.5,1.5-7.7-1.7-7.7-1.7s3.2,5.3,7.7,3.8c8-2.8,9.1-12.4,9.1-12.4S228.6,212.5,220.6,215.3z
					"/>
				<path class="st68" d="M222.8,208.5c0,0,5-2.2,5.3,1.6c0,0,1.5-3.1,1.6-5.1L222.8,208.5z"/>
			</g>
			<path class="st78" d="M225.5,193.6c0,0,4.2,4.4,7.2,6.8c3.2,2.6-4.1,6.8-5.8,6.8c-1.8,0-3.4-1.6-6.1-0.5c-2,0.9-2.7-3.8,0.6-5.1
				C224.6,200.1,225.6,196.3,225.5,193.6z"/>
			<g>
				<g>
					<path class="st13" d="M217.2,191.4c0-0.1,0-0.1,0-0.2c0.3,1.7-0.5,4.1-1.8,5.2c-1.3,1.2-2.7,0.7-3-1c0,0.1,0,0.1,0,0.2
						c-0.3-1.7,0.5-3.9,1.8-5C215.5,189.4,216.8,189.8,217.2,191.4z"/>
				</g>
				<g>
					<path class="st20" d="M214.7,190.7C214.7,190.7,214.7,190.6,214.7,190.7c0.2,0.7-0.2,1.9-0.9,2.5c-0.7,0.6-1.3,0.3-1.5-0.5
						c0,0,0,0.1,0,0.1c-0.1-0.8,0.3-1.9,0.9-2.5C213.9,189.7,214.5,189.9,214.7,190.7z"/>
				</g>
			</g>
			<g>
				<g>
					<path class="st13" d="M232.4,186.5c0-0.1,0-0.1,0-0.2c0.3,1.7-0.5,4.1-1.8,5.2c-1.3,1.2-2.7,0.7-3-1c0,0.1,0,0.1,0,0.2
						c-0.3-1.7,0.5-3.9,1.8-5C230.7,184.6,232,184.9,232.4,186.5z"/>
				</g>
				<g>
					<path class="st20" d="M230,185.8C230,185.8,230,185.8,230,185.8c0.2,0.7-0.2,1.9-0.9,2.5c-0.7,0.6-1.3,0.3-1.5-0.5
						c0,0,0,0.1,0,0.1c-0.1-0.8,0.3-1.9,0.9-2.5C229.1,184.9,229.8,185.1,230,185.8z"/>
				</g>
			</g>
			<path class="st13" d="M203.8,189.8c-0.1,0-0.3,0-0.4-0.1c-0.5-0.2-0.7-0.8-0.5-1.3c0.1-0.2,2.1-4.3,6-5.8
				c4.7-1.9,9.3,1.5,9.5,1.7c0.4,0.3,0.5,1,0.2,1.4c-0.3,0.4-1,0.5-1.4,0.2l0,0c0,0-3.9-2.8-7.6-1.4c-3.2,1.3-4.9,4.8-4.9,4.8
				C204.5,189.6,204.2,189.8,203.8,189.8z"/>
			<path class="st13" d="M226,182.8c-0.1,0-0.3,0-0.4-0.1c-0.5-0.2-0.7-0.8-0.5-1.3c0.1-0.1,1.5-3,4.3-4c3.4-1.3,6.6,1.1,6.7,1.2
				c0.4,0.3,0.5,1,0.2,1.4c-0.3,0.4-1,0.5-1.4,0.2l0,0c0,0-2.5-1.8-4.8-0.9c-2,0.8-3.2,3-3.2,3.1C226.8,182.6,226.4,182.8,226,182.8
				z"/>
		</g>
		<polygon class="st0" points="177.9,256.3 211.3,280.8 198.9,291.8 		"/>
		<path class="st79" d="M237.5,315.2c-3.3,0-6.6-1.3-9-3.9l-10.7-11.5c-2-2.1-3.2-4.9-3.3-7.9l-1.6-38.1l2.9-0.1l1.6,38.1
			c0.1,2.2,1,4.4,2.5,6l10.7,11.5c3.5,3.7,9.2,4,13.1,0.7l6.7-5.8c2-1.8,4.6-2.8,7.3-3l15.7-0.9c5-0.3,8.9-4.4,8.9-9.4h2.9
			c0,6.5-5.1,11.9-11.6,12.3l-15.7,0.9c-2.1,0.1-4,0.9-5.6,2.3l-6.7,5.8C243.2,314.2,240.3,315.2,237.5,315.2z"/>
		<g>
			<g>
				<path class="st80" d="M290.1,272.2c0.1,0,0.1,0,0.2,0c0.1,0,0.2,0,0.3-0.1c0.2-0.1,0.5-0.1,0.7-0.1c0,0,0.1,0,0.1,0
					c0.3,0,0.5,0,0.8,0c0,0,0.1,0,0.1,0c0.3,0,0.5,0.1,0.7,0.2c0,0,0.1,0,0.1,0c0.2,0.1,0.5,0.2,0.7,0.3l0,0c0,0,0,0,0,0l-1.9-1.1
					l-0.4-0.3l0,0c0,0,0,0,0,0c-0.1-0.1-0.3-0.1-0.4-0.2c-0.1,0-0.2-0.1-0.2-0.1c0,0-0.1,0-0.1,0c0,0-0.1,0-0.1,0
					c-0.1,0-0.3-0.1-0.5-0.1c-0.1,0-0.1,0-0.2,0c0,0-0.1,0-0.1,0c-0.1,0-0.1,0-0.2,0c-0.2,0-0.4,0-0.5,0c0,0-0.1,0-0.1,0
					c0,0-0.1,0-0.1,0c-0.1,0-0.3,0-0.4,0c-0.1,0-0.2,0-0.3,0.1c-0.1,0-0.1,0-0.2,0c0,0-0.1,0-0.1,0c0,0-0.1,0-0.1,0c0,0-0.1,0-0.1,0
					c-0.1,0-0.1,0-0.2,0.1c-0.2,0.1-0.3,0.1-0.5,0.2c0,0-0.1,0-0.1,0c0,0,0,0,0,0c0,0,0,0-0.1,0c0,0,0,0,0,0l0,0c0,0,0,0,0,0
					c0,0,0,0-0.1,0c0,0,0,0,0,0l0,0c0,0,0,0,0,0c-0.2,0.1-0.4,0.2-0.6,0.3c0,0-0.1,0-0.1,0c0,0,0,0-0.1,0c0,0-0.1,0-0.1,0.1
					c0,0,0,0,0,0l0,0c0,0,0,0,0,0c-0.1,0-0.1,0.1-0.2,0.1c0,0-0.1,0-0.1,0.1c0,0,0,0,0,0l0,0c0,0,0,0,0,0c-0.1,0-0.2,0.1-0.2,0.2
					c0,0-0.1,0-0.1,0.1c0,0-0.1,0.1-0.1,0.1c0,0,0,0,0,0l0,0c0,0,0,0,0,0c-0.3,0.2-0.5,0.4-0.8,0.5c0,0-0.1,0.1-0.1,0.1
					c-0.3,0.2-0.6,0.5-0.9,0.8c-0.1,0.1-0.1,0.2-0.2,0.2c-0.1,0.1-0.1,0.1-0.2,0.1c-0.1,0.1-0.2,0.3-0.4,0.4
					c-0.1,0.1-0.3,0.3-0.4,0.4c0,0.1-0.1,0.1-0.1,0.2c-0.2,0.3-0.4,0.5-0.7,0.8c0,0,0,0,0,0c0,0,0,0,0,0c0,0,0,0,0,0
					c-0.2,0.2-0.3,0.5-0.5,0.7c-0.2,0.2-0.3,0.5-0.5,0.7c0,0,0,0,0,0l0,0c-0.1,0.2-0.3,0.5-0.4,0.7c-0.1,0.2-0.3,0.5-0.4,0.7
					c0,0,0,0.1-0.1,0.1c0,0,0,0.1-0.1,0.1c-0.1,0.2-0.2,0.3-0.2,0.5c-0.1,0.2-0.2,0.5-0.3,0.7c0,0.1-0.1,0.2-0.1,0.2
					c0,0.1,0,0.1-0.1,0.2c0,0.1-0.1,0.2-0.1,0.3c-0.1,0.3-0.2,0.5-0.3,0.8c0,0.1-0.1,0.2-0.1,0.3c0,0,0,0.1,0,0.1c0,0,0,0,0,0l0,0
					c0,0,0,0,0,0c0,0,0,0.1,0,0.1c0,0.1-0.1,0.2-0.1,0.3c-0.1,0.3-0.2,0.6-0.2,0.9c0,0,0,0,0,0.1c0,0,0,0,0,0c0,0,0,0.1,0,0.1
					c-0.1,0.3-0.1,0.6-0.2,0.9c0,0.1,0,0.2,0,0.3c0,0.1,0,0.2,0,0.3c0,0,0,0,0,0l0,0c0,0,0,0,0,0c0,0.1,0,0.3,0,0.4c0,0,0,0,0,0l0,0
					c0,0,0,0,0,0c0,0,0,0.1,0,0.1c0,0,0,0,0,0c0,0.1,0,0.3,0,0.4c0,0.1,0,0.3,0,0.4c0,0,0,0,0,0v0c0,0,0,0,0,0c0,0,0,0,0,0l0,0
					c0,0,0,0,0,0c0,0,0,0,0,0.1c0,0,0,0,0,0h0c0,0,0,0,0,0c0,0,0,0.1,0,0.1c0,0,0,0.1,0,0.1c0,0.5,0.1,0.9,0.2,1.3
					c0,0.1,0,0.1,0.1,0.2c0.1,0.4,0.3,0.8,0.4,1.1c0,0.1,0.1,0.1,0.1,0.2c0.2,0.3,0.4,0.6,0.6,0.9c0,0,0.1,0.1,0.1,0.1
					c0.3,0.3,0.5,0.5,0.9,0.7l2.3,1.4l0,0l0,0c-0.3-0.2-0.6-0.4-0.9-0.7c0,0-0.1-0.1-0.1-0.1c-0.2-0.3-0.4-0.6-0.6-0.9
					c0-0.1-0.1-0.1-0.1-0.2c-0.2-0.3-0.3-0.7-0.4-1.1c0-0.1,0-0.1-0.1-0.2c-0.1-0.4-0.2-0.9-0.2-1.3c0-0.2,0-0.5,0-0.7
					c0-0.4,0-0.8,0.1-1.3c0-0.4,0.1-0.8,0.2-1.2c0-0.1,0-0.1,0-0.2c0.1-0.4,0.2-0.9,0.3-1.3c0-0.1,0-0.2,0.1-0.2
					c0.1-0.5,0.3-0.9,0.5-1.4c0-0.1,0-0.1,0.1-0.2c0.2-0.5,0.4-1,0.7-1.4c0,0,0-0.1,0.1-0.1c0.3-0.5,0.5-1,0.9-1.5c0,0,0,0,0,0
					c0.3-0.5,0.6-1,1-1.4c0,0,0,0,0,0c0.3-0.3,0.5-0.7,0.8-1c0.1-0.1,0.3-0.3,0.4-0.4c0.2-0.2,0.3-0.4,0.5-0.5
					c0.4-0.4,0.7-0.7,1.1-1c0,0,0.1-0.1,0.1-0.1c0.4-0.3,0.9-0.6,1.3-0.9c0.4-0.2,0.7-0.4,1.1-0.6c0.1,0,0.1,0,0.2-0.1
					C289.6,272.4,289.9,272.3,290.1,272.2z"/>
				<g>
					<path class="st81" d="M296.1,278.5c0-0.2,0-0.4,0-0.6c0,5-3.5,11.2-7.9,13.7c-4.4,2.5-8,0.5-8-4.5c0,0.2,0,0.4,0,0.5
						c0.2-4.9,3.7-10.7,7.9-13.2C292.3,272,295.8,273.8,296.1,278.5z"/>
				</g>
				<g class="st0">
					<path d="M292.3,280.1c0-0.1,0-0.2,0-0.4c0,3.2-2.2,7.1-5,8.7c-2.8,1.6-5.1,0.3-5.1-2.9c0,0.1,0,0.2,0,0.3
						c0.2-3.1,2.3-6.8,5-8.3C290,276.1,292.2,277.2,292.3,280.1z"/>
				</g>
				<g>
					<g class="st0">
						<path d="M288.9,282.6C288.9,282.5,289,282.5,288.9,282.6c0,0.5-0.4,1.1-0.8,1.3c-0.4,0.3-0.8,0.1-0.8-0.5c0,0,0,0,0,0.1
							c0-0.5,0.4-1.1,0.8-1.3C288.6,281.9,288.9,282.1,288.9,282.6z"/>
					</g>
					<g class="st0">
						<path d="M287.8,285.4C287.8,285.4,287.8,285.4,287.8,285.4c0,0.5-0.4,1.1-0.8,1.3c-0.4,0.3-0.8,0.1-0.8-0.5c0,0,0,0,0,0.1
							c0-0.5,0.4-1.1,0.8-1.3C287.4,284.8,287.7,285,287.8,285.4z"/>
					</g>
					<g class="st0">
						<path d="M289.8,279.9C289.8,279.9,289.8,279.9,289.8,279.9c0,0.5-0.4,1.1-0.8,1.3c-0.4,0.3-0.8,0.1-0.8-0.5c0,0,0,0,0,0.1
							c0-0.5,0.4-1.1,0.8-1.3C289.4,279.3,289.7,279.4,289.8,279.9z"/>
					</g>
					<g class="st0">
						<path d="M286.7,282.1C286.7,282.1,286.7,282.1,286.7,282.1c0,0.5-0.4,1.1-0.8,1.3c-0.4,0.3-0.8,0.1-0.8-0.5c0,0,0,0,0,0.1
							c0-0.5,0.4-1.1,0.8-1.3C286.3,281.5,286.6,281.7,286.7,282.1z"/>
					</g>
					<g class="st0">
						<path d="M291.2,282.6C291.2,282.5,291.2,282.5,291.2,282.6c0,0.5-0.4,1.1-0.8,1.3c-0.4,0.3-0.8,0.1-0.8-0.5c0,0,0,0,0,0.1
							c0-0.5,0.4-1.1,0.8-1.3C290.8,281.9,291.2,282.1,291.2,282.6z"/>
					</g>
				</g>
				<g>
					<path class="st80" d="M288.1,273.1c4.5-2.6,8.2-0.5,8.2,4.7c0,5.2-3.6,11.5-8.2,14.1c-4.5,2.6-8.2,0.5-8.2-4.7
						C279.9,282,283.6,275.7,288.1,273.1z M288.1,291.6c4.4-2.5,7.9-8.7,7.9-13.7c0-5-3.6-7.1-8-4.6c-4.4,2.5-8,8.7-7.9,13.8
						C280.2,292.1,283.7,294.2,288.1,291.6"/>
				</g>
				<g>
					<path class="st82" d="M288.1,273.3c4.4-2.5,8-0.5,8,4.6c0,0.2,0,0.4,0,0.6c-0.3-4.6-3.7-6.4-8-4c-4.2,2.4-7.7,8.2-7.9,13.2
						c0-0.2,0-0.4,0-0.5C280.1,282,283.7,275.9,288.1,273.3z"/>
				</g>
			</g>
			<path class="st83" d="M249.8,279c0,0,9.8,1.3,9.1,15.4c-0.7,13.7-7.2,14.2-7.2,14.2S228.5,301.3,249.8,279z"/>
			<path class="st66" d="M256.1,306c0,0,9-4.6,6.4-17.4c-2-10-3.6-10-3.6-10s-10,4.2-9.1,15.2S256.1,306,256.1,306z"/>
			<path class="st64" d="M259,278.6c0,0,9.6-7.6,13.1-9.6c3.5-2,12-1.2,14.1,0c2.2,1.2,1.9,2.6,0,4.2c-1.9,1.6-8.9,0.9-8.9,0.9
				l-3.5,2.3c0,0,5.9,1.4,7.5,3.6c1.5,2.2,0.4,9.9,0,11.1c-0.4,1.1-4,3.2-5.9,4.3c-1.9,1.1-10.5,0.4-12.9,0c-1.7-0.3-14.1,0-14.1,0
				S247.7,285.3,259,278.6z"/>
			<path class="st68" d="M259,278.6c0,0-6.9,6.8-4.7,16.6l-3,0.1C251.3,295.3,250.1,282.3,259,278.6z"/>
			<path class="st68" d="M262.5,295.3c0,0-7.5,0.3-8.1,2.6c-0.6,2.3,1.7,8.1,1.7,8.1s-5.9-4.8-6.2-7.4c-0.3-2.6,0-5.4,0-5.4
				S260.8,293.5,262.5,295.3z"/>
			<path class="st16" d="M245.9,279.3l13.1-0.7c0,0-14.6,11.6-2.9,27.4h-10C246,306,232.6,291.8,245.9,279.3z"/>
			<path class="st68" d="M256.1,306h-10l-3-4.2l10.3-0.5C253.2,301.3,254.7,304.2,256.1,306z"/>
			<path class="st20" d="M181.4,305.7l-26-30c-5.4-6.2-4.7-15.6,1.5-20.9l0,0c6.2-5.4,15.6-4.7,20.9,1.5l22.5,26l49.4-3.2
				c-12,13.4-6.3,27,1.9,29.6l-54.7,3.6C191.1,312.6,185.3,310.2,181.4,305.7z"/>
			<path class="st68" d="M245.6,303.7l-46,3.1c-5.4,0.4-10.7-1.7-14.4-5.7c-6.6-7.1-17.2-18.5-23.3-24.3c-6.2-6-8-13.4-8.4-17.5
				c-2.6,5.2-2,11.7,2,16.4l26,30c3.9,4.5,9.7,6.9,15.7,6.5l54.7-3.6C249.3,307.9,247.1,306.1,245.6,303.7z"/>
		</g>
		<g>
			<path class="st84" d="M188,200.1c0,1.9-1.5,3.4-3.4,3.4s-3.4-1.5-3.4-3.4s1.5-3.4,3.4-3.4S188,198.2,188,200.1z"/>
			<path class="st69" d="M189.1,200.7c0,1.9-1.5,3.4-3.4,3.4c-1.9,0-3.4-1.5-3.4-3.4s1.5-3.4,3.4-3.4
				C187.6,197.3,189.1,198.9,189.1,200.7z"/>
			<path class="st69" d="M214.3,256L214.3,256c-1.1,0-1.9-0.9-1.9-1.9l0,0c0-4.2-2.6-8-6.6-9.5l-11.9-5.1c-1.6-0.6-2.9-2-3.2-3.8
				l-6.7-35.3c-0.2-1,0.5-2,1.5-2.2l0,0c1-0.2,2,0.5,2.2,1.5l6.3,33.2c0.3,1.7,1.5,3.2,3.2,3.8l11.9,5.1c4.3,1.6,7.1,5.6,7.1,10.2
				v2.1C216.2,255.1,215.4,256,214.3,256z"/>
		</g>
	</g>
	<g>
		<g class="st3">
			<path class="st80" d="M328,120.3c-3.4-2-8-1.8-13,0.8c-0.3,0.2-0.7,0.4-1,0.6c-7.5,4.3-14,12.9-17.4,21.9l-4.4-2.6
				c-3.6-2.1-8.6-1.8-14.1,1.4c-0.3,0.2-0.7,0.4-1,0.6c-10.1,6.4-18.2,20.5-18.7,32.4c-0.1,2.9,0.2,5.4,0.8,7.6c0,0,0.1,0.2,0.3,0.5
				c0.8,2.1,2,3.8,3.4,4.9c3,4,11.8,9.6,19.6,14.2l13.6,7.9c-7.8-4.5-16.6-10.2-19.6-14.2c-1.5-1.2-2.6-2.9-3.4-4.9
				c-0.2-0.3-0.3-0.5-0.3-0.5c-0.6-2.2-0.9-4.7-0.8-7.6c0.5-11.9,8.6-26,18.7-32.4c0.3-0.2,0.7-0.4,1-0.6c3.1-1.8,6-2.6,8.6-2.7
				l9.4,5.5c3.1-9.6,10-18.9,17.9-23.5c0.3-0.2,0.7-0.4,1-0.6c5.1-2.6,9.7-2.8,13-0.8L328,120.3z"/>
			<g>
				<path class="st81" d="M327.5,129.6c0.3-0.2,0.7-0.4,1-0.6c10.1-5.2,18.3-0.5,18.8,10.8c0.1,2.7-0.2,5.6-0.9,8.6
					c0.1,0,0,0.3-0.2,0.8c-0.8,3-1.9,6-3.4,8.9c-3.5,8.9-15.5,30-24,44.6c-2.5,4.3-5.8,7.7-9.1,9.6c-3.3,1.9-6.6,2.4-9.2,1
					c-8.6-4.8-20.6-12-24.2-16.8c-1.5-1.2-2.6-2.9-3.4-4.9c-0.2-0.3-0.3-0.5-0.3-0.5c-0.6-2.2-0.9-4.7-0.8-7.6
					c0.5-11.9,8.6-26,18.7-32.4c0.3-0.2,0.7-0.4,1-0.6c7.9-4.6,14.8-3.2,18,2.8C312.7,143.5,319.6,134.2,327.5,129.6z"/>
			</g>
			<path class="st74" d="M328.5,129c-0.3,0.2-0.7,0.4-1,0.6c-7.4,4.3-14.5,14.6-17.9,23.5l0.7,1c3.1-9.6,12.7-18.4,20.6-23
				c0.3-0.2,0.7-0.4,1-0.6c3.8-2,7.3-2.5,10.2-1.9C338.8,126.3,333.9,126.2,328.5,129z M291.6,150.4c-0.3,0.2-0.7,0.4-1,0.6
				c-10.1,6.4-18.2,20.5-18.7,32.4c-0.1,2.9,0.2,5.4,0.8,7.6c0,0,0.1,0.2,0.3,0.5c0.8,2.1,2,3.8,3.4,4.9c3.6,4.8,15.6,12,24.2,16.8
				c0.6,0.4,1.3,0.6,2.1,0.7c-8.4-4.8-19.4-11.5-22.8-16c-1.5-1.2-2.6-2.9-3.4-4.9c-0.2-0.3-0.3-0.5-0.3-0.5
				c-0.6-2.2-0.9-4.7-0.8-7.6c0.5-11.9,8.6-26,18.7-32.4c0.3-0.2,0.7-0.4,1-0.6c4.2-2.4,8.1-3.2,11.3-2.4
				C302.7,146.9,297.4,147,291.6,150.4z"/>
		</g>
		<g class="st3">
			<path class="st85" d="M352.8,151.3l2.7,1.6c-0.2-0.1-0.6-0.1-1,0.1l-2.7-1.6C352.2,151.2,352.5,151.2,352.8,151.3z"/>
			<g>
				<polygon class="st85" points="332.4,165.8 329.7,164.2 351.8,151.4 354.5,153 				"/>
			</g>
			<path class="st86" d="M330.4,169.6l-2.7-1.6c-0.2-0.1-0.3-0.2-0.3-0.4l2.7,1.6C330.1,169.4,330.2,169.5,330.4,169.6z"/>
			<path class="st86" d="M313.4,195.9l-2.7-1.6c-0.1-0.1-0.3-0.2-0.3-0.4l2.7,1.6C313.1,195.7,313.2,195.8,313.4,195.9z"/>
			<g>
				<polygon class="st86" points="330.1,169.2 327.3,167.6 324,157.3 326.7,158.9 				"/>
			</g>
			<g>
				<polygon class="st87" points="314.5,189.6 311.8,188.1 321.3,157.2 324,158.8 				"/>
			</g>
			<path class="st87" d="M327.2,147.7l2.7,1.6c-0.7-0.4-1.7-0.4-2.8,0.3c-2.2,1.3-4,4.3-4,6.9c0,1.1,0.3,1.9,0.9,2.4l-2.7-1.6
				c-0.6-0.5-0.9-1.3-0.9-2.4c0-2.5,1.8-5.6,4-6.9C325.4,147.3,326.4,147.3,327.2,147.7z"/>
			<g class="st3">
				<defs>
					<path id="SVGID_14_" class="st3" d="M294.6,184.1l2.7,1.6c-0.2-0.1-0.3-0.2-0.5-0.2l-2.7-1.6
						C294.3,183.9,294.5,184,294.6,184.1z"/>
				</defs>
				<clipPath id="SVGID_15_">
					<use xlink:href="#SVGID_14_"  style="overflow:visible;"/>
				</clipPath>
				<g class="st88">
					<path class="st89" d="M296.8,185.5l-2.7-1.6c0,0,0.1,0,0.1,0L296.8,185.5C296.9,185.5,296.9,185.5,296.8,185.5"/>
					<path class="st90" d="M296.9,185.5l-2.7-1.6c0.1,0,0.1,0,0.2,0.1l2.7,1.6C297.1,185.6,297,185.5,296.9,185.5"/>
					<path class="st87" d="M297.1,185.6l-2.7-1.6c0.1,0,0.1,0.1,0.2,0.1l2.7,1.6C297.3,185.6,297.2,185.6,297.1,185.6"/>
					<path class="st91" d="M297.3,185.7l-2.7-1.6c0,0,0,0,0,0L297.3,185.7C297.3,185.7,297.3,185.7,297.3,185.7"/>
				</g>
			</g>
			<path class="st92" d="M291.7,195.4l-2.7-1.6c-0.4-0.2-0.7-0.6-0.9-1.1l2.7,1.6C291,194.8,291.3,195.2,291.7,195.4z"/>
			<path class="st85" d="M290.8,191.2l-2.7-1.6c0.5-2,1.8-4,3.4-5l2.7,1.6C292.6,187.2,291.3,189.2,290.8,191.2z"/>
			<g>
				<polygon class="st86" points="313,195.5 310.3,193.9 299.1,160.3 301.8,161.9 				"/>
			</g>
			<g>
				<polygon class="st92" points="294.2,186.2 291.5,184.6 297.7,155.2 300.4,156.8 				"/>
			</g>
			<path class="st92" d="M300,153.2c-0.3-0.1-0.6-0.1-1,0.1c-0.6,0.4-1.1,1.1-1.3,1.9l2.7,1.6c0.2-0.8,0.7-1.5,1.3-1.9
				c0.4-0.2,0.8-0.3,1-0.1L300,153.2z"/>
			<g>
				<polygon class="st85" points="271.6,202.2 268.9,200.7 288,189.6 290.8,191.2 				"/>
			</g>
			<path class="st85" d="M270.7,205.5l-2.7-1.6c-0.2-0.1-0.4-0.4-0.4-0.9c0-0.9,0.6-1.9,1.4-2.4l2.7,1.6c-0.8,0.4-1.4,1.5-1.4,2.4
				C270.3,205,270.4,205.3,270.7,205.5z"/>
			<g>
				<path class="st20" d="M301.7,154.9c0.6-0.4,1.2-0.2,1.3,0.3l11.5,34.4l9.5-30.9c-0.6-0.5-0.9-1.3-0.9-2.4c0-2.5,1.8-5.6,4-6.9
					c2.2-1.3,4-0.3,4,2.3c0,1.5-0.7,3.3-1.7,4.7l3,9.2l22.2-12.8c0.8-0.4,1.4-0.1,1.4,0.8c0,0.9-0.6,1.9-1.4,2.4l-23.2,13.4
					c-0.6,0.3-1.1,0.2-1.3-0.3l-3.3-10.3c-0.1,0.1-0.2,0.1-0.3,0.1l-10.8,35.1c-0.2,0.7-0.7,1.4-1.3,1.7c-0.6,0.3-1.1,0.2-1.3-0.3
					l-11.2-33.6l-5,23.6c1,0.2,1.7,1.2,1.7,2.7c0,2.5-1.8,5.6-4,6.9c-1.7,1-3.1,0.6-3.7-0.8l-19.2,11.1c-0.8,0.4-1.4,0.1-1.4-0.8
					c0-0.9,0.6-1.9,1.4-2.4l19.1-11c0.5-2,1.8-4,3.4-5l6.2-29.4C300.6,156,301.1,155.2,301.7,154.9z"/>
			</g>
		</g>
	</g>
	<g class="st3">
		<path class="st80" d="M129.5,233.5l5,2.9c-2.2-1.3-5.2-1.1-8.6,0.8l-5-2.9C124.3,232.4,127.3,232.2,129.5,233.5z"/>
		<path class="st93" d="M71.3,319.8l-5-2.9c-2.2-1.3-3.5-3.9-3.5-7.7l5,2.9C67.8,315.8,69.2,318.5,71.3,319.8z"/>
		<g>
			<polygon class="st93" points="67.8,312 62.8,309.1 62.7,281.8 67.7,284.7 			"/>
		</g>
		<g>
			<polygon class="st80" points="79.7,263.9 74.7,261 120.9,234.3 126,237.3 			"/>
		</g>
		<g>
			<path class="st81" d="M126,237.3c6.6-3.8,12.1-0.8,12.1,6.9l0.1,27.3c0,7.6-5.3,16.9-12,20.8l-46.2,26.7
				c-6.6,3.8-12.1,0.8-12.1-6.9l-0.1-27.3c0-7.6,5.3-16.9,12-20.8L126,237.3z M94.3,297.8l22.2-27.6l-22.3-1.9L94.3,297.8"/>
		</g>
		<path class="st80" d="M67.7,284.7l-5-2.9c0-7.6,5.3-16.9,12-20.8l5,2.9C73.1,267.8,67.7,277.1,67.7,284.7z"/>
		<g>
			<g>
				<polygon class="st20" points="97.2,268 123.4,270.3 97.3,302.6 				"/>
			</g>
			<g>
				<polygon class="st94" points="97.2,268 91.3,264.6 117.5,266.8 123.4,270.3 				"/>
			</g>
			<g>
				<polygon class="st95" points="97.3,302.6 91.4,299.2 91.3,264.6 97.2,268 				"/>
			</g>
		</g>
	</g>
</g>
</svg>
